G04 #@! TF.GenerationSoftware,KiCad,Pcbnew,7.0.7-7.0.7~ubuntu22.04.1*
G04 #@! TF.CreationDate,2024-03-29T17:55:08+00:00*
G04 #@! TF.ProjectId,receiver6_rep,72656365-6976-4657-9236-5f7265702e6b,rev?*
G04 #@! TF.SameCoordinates,Original*
G04 #@! TF.FileFunction,Paste,Top*
G04 #@! TF.FilePolarity,Positive*
%FSLAX46Y46*%
G04 Gerber Fmt 4.6, Leading zero omitted, Abs format (unit mm)*
G04 Created by KiCad (PCBNEW 7.0.7-7.0.7~ubuntu22.04.1) date 2024-03-29 17:55:08*
%MOMM*%
%LPD*%
G01*
G04 APERTURE LIST*
G04 Aperture macros list*
%AMRoundRect*
0 Rectangle with rounded corners*
0 $1 Rounding radius*
0 $2 $3 $4 $5 $6 $7 $8 $9 X,Y pos of 4 corners*
0 Add a 4 corners polygon primitive as box body*
4,1,4,$2,$3,$4,$5,$6,$7,$8,$9,$2,$3,0*
0 Add four circle primitives for the rounded corners*
1,1,$1+$1,$2,$3*
1,1,$1+$1,$4,$5*
1,1,$1+$1,$6,$7*
1,1,$1+$1,$8,$9*
0 Add four rect primitives between the rounded corners*
20,1,$1+$1,$2,$3,$4,$5,0*
20,1,$1+$1,$4,$5,$6,$7,0*
20,1,$1+$1,$6,$7,$8,$9,0*
20,1,$1+$1,$8,$9,$2,$3,0*%
G04 Aperture macros list end*
%ADD10RoundRect,0.162500X0.362500X-0.162500X0.362500X0.162500X-0.362500X0.162500X-0.362500X-0.162500X0*%
%ADD11RoundRect,0.140000X-0.170000X0.140000X-0.170000X-0.140000X0.170000X-0.140000X0.170000X0.140000X0*%
%ADD12R,0.500000X0.400000*%
%ADD13RoundRect,0.250000X-0.250000X-0.750000X0.250000X-0.750000X0.250000X0.750000X-0.250000X0.750000X0*%
%ADD14C,0.227000*%
G04 APERTURE END LIST*
D10*
X81100000Y-92800000D03*
D11*
X58700000Y-100550000D03*
X58700000Y-101510000D03*
D12*
X91960000Y-100090000D03*
X91160000Y-100090000D03*
X91160000Y-100790000D03*
X91960000Y-100790000D03*
D13*
X91350000Y-107350000D03*
D14*
X92700000Y-53750000D03*
X93300000Y-53750000D03*
X93900000Y-53750000D03*
X93600000Y-54000000D03*
X92700000Y-54250000D03*
X93300000Y-54250000D03*
X93900000Y-54250000D03*
X93000000Y-54500000D03*
X93600000Y-54500000D03*
X92700000Y-54750000D03*
X93300000Y-54750000D03*
X93900000Y-54750000D03*
X93000000Y-55000000D03*
X93600000Y-55000000D03*
X92700000Y-55250000D03*
X93300000Y-55250000D03*
X93900000Y-55250000D03*
X80950000Y-80450000D03*
X81550000Y-80450000D03*
X82150000Y-80450000D03*
X81850000Y-80700000D03*
X80950000Y-80950000D03*
X81550000Y-80950000D03*
X82150000Y-80950000D03*
X81250000Y-81200000D03*
X81850000Y-81200000D03*
X80950000Y-81450000D03*
X81550000Y-81450000D03*
X82150000Y-81450000D03*
X81250000Y-81700000D03*
X81850000Y-81700000D03*
X80950000Y-81950000D03*
X81550000Y-81950000D03*
X82150000Y-81950000D03*
D13*
X91350000Y-98450000D03*
D10*
X69350000Y-83900000D03*
X91550000Y-110600000D03*
X69350000Y-92800000D03*
X92850000Y-92800000D03*
D13*
X67850000Y-98450000D03*
X56100000Y-53950000D03*
D14*
X80950000Y-89350000D03*
X81550000Y-89350000D03*
X82150000Y-89350000D03*
X81850000Y-89600000D03*
X80950000Y-89850000D03*
X81550000Y-89850000D03*
X82150000Y-89850000D03*
X81250000Y-90100000D03*
X81850000Y-90100000D03*
X80950000Y-90350000D03*
X81550000Y-90350000D03*
X82150000Y-90350000D03*
X81250000Y-90600000D03*
X81850000Y-90600000D03*
X80950000Y-90850000D03*
X81550000Y-90850000D03*
X82150000Y-90850000D03*
D10*
X57600000Y-83900000D03*
X68050000Y-110600000D03*
D12*
X68460000Y-82290000D03*
X67660000Y-82290000D03*
X67660000Y-82990000D03*
X68460000Y-82990000D03*
X80210000Y-46690000D03*
X79410000Y-46690000D03*
X79410000Y-47390000D03*
X80210000Y-47390000D03*
D13*
X67850000Y-53950000D03*
D14*
X80950000Y-53750000D03*
X81550000Y-53750000D03*
X82150000Y-53750000D03*
X81850000Y-54000000D03*
X80950000Y-54250000D03*
X81550000Y-54250000D03*
X82150000Y-54250000D03*
X81250000Y-54500000D03*
X81850000Y-54500000D03*
X80950000Y-54750000D03*
X81550000Y-54750000D03*
X82150000Y-54750000D03*
X81250000Y-55000000D03*
X81850000Y-55000000D03*
X80950000Y-55250000D03*
X81550000Y-55250000D03*
X82150000Y-55250000D03*
X92700000Y-44850000D03*
X93300000Y-44850000D03*
X93900000Y-44850000D03*
X93600000Y-45100000D03*
X92700000Y-45350000D03*
X93300000Y-45350000D03*
X93900000Y-45350000D03*
X93000000Y-45600000D03*
X93600000Y-45600000D03*
X92700000Y-45850000D03*
X93300000Y-45850000D03*
X93900000Y-45850000D03*
X93000000Y-46100000D03*
X93600000Y-46100000D03*
X92700000Y-46350000D03*
X93300000Y-46350000D03*
X93900000Y-46350000D03*
D13*
X91350000Y-62850000D03*
D10*
X81100000Y-75000000D03*
D14*
X57450000Y-107150000D03*
X58050000Y-107150000D03*
X58650000Y-107150000D03*
X58350000Y-107400000D03*
X57450000Y-107650000D03*
X58050000Y-107650000D03*
X58650000Y-107650000D03*
X57750000Y-107900000D03*
X58350000Y-107900000D03*
X57450000Y-108150000D03*
X58050000Y-108150000D03*
X58650000Y-108150000D03*
X57750000Y-108400000D03*
X58350000Y-108400000D03*
X57450000Y-108650000D03*
X58050000Y-108650000D03*
X58650000Y-108650000D03*
D10*
X79800000Y-57200000D03*
D14*
X69200000Y-98250000D03*
X69800000Y-98250000D03*
X70400000Y-98250000D03*
X70100000Y-98500000D03*
X69200000Y-98750000D03*
X69800000Y-98750000D03*
X70400000Y-98750000D03*
X69500000Y-99000000D03*
X70100000Y-99000000D03*
X69200000Y-99250000D03*
X69800000Y-99250000D03*
X70400000Y-99250000D03*
X69500000Y-99500000D03*
X70100000Y-99500000D03*
X69200000Y-99750000D03*
X69800000Y-99750000D03*
X70400000Y-99750000D03*
D13*
X56100000Y-80650000D03*
D10*
X81100000Y-66100000D03*
X56300000Y-66100000D03*
D14*
X80950000Y-107150000D03*
X81550000Y-107150000D03*
X82150000Y-107150000D03*
X81850000Y-107400000D03*
X80950000Y-107650000D03*
X81550000Y-107650000D03*
X82150000Y-107650000D03*
X81250000Y-107900000D03*
X81850000Y-107900000D03*
X80950000Y-108150000D03*
X81550000Y-108150000D03*
X82150000Y-108150000D03*
X81250000Y-108400000D03*
X81850000Y-108400000D03*
X80950000Y-108650000D03*
X81550000Y-108650000D03*
X82150000Y-108650000D03*
D10*
X69350000Y-57200000D03*
X57600000Y-92800000D03*
D11*
X70450000Y-56050000D03*
X70450000Y-57010000D03*
D10*
X68050000Y-83900000D03*
D12*
X56710000Y-46690000D03*
X55910000Y-46690000D03*
X55910000Y-47390000D03*
X56710000Y-47390000D03*
D10*
X56300000Y-101700000D03*
D14*
X92700000Y-98250000D03*
X93300000Y-98250000D03*
X93900000Y-98250000D03*
X93600000Y-98500000D03*
X92700000Y-98750000D03*
X93300000Y-98750000D03*
X93900000Y-98750000D03*
X93000000Y-99000000D03*
X93600000Y-99000000D03*
X92700000Y-99250000D03*
X93300000Y-99250000D03*
X93900000Y-99250000D03*
X93000000Y-99500000D03*
X93600000Y-99500000D03*
X92700000Y-99750000D03*
X93300000Y-99750000D03*
X93900000Y-99750000D03*
D12*
X56710000Y-64490000D03*
X55910000Y-64490000D03*
X55910000Y-65190000D03*
X56710000Y-65190000D03*
D14*
X57450000Y-98250000D03*
X58050000Y-98250000D03*
X58650000Y-98250000D03*
X58350000Y-98500000D03*
X57450000Y-98750000D03*
X58050000Y-98750000D03*
X58650000Y-98750000D03*
X57750000Y-99000000D03*
X58350000Y-99000000D03*
X57450000Y-99250000D03*
X58050000Y-99250000D03*
X58650000Y-99250000D03*
X57750000Y-99500000D03*
X58350000Y-99500000D03*
X57450000Y-99750000D03*
X58050000Y-99750000D03*
X58650000Y-99750000D03*
D11*
X82200000Y-109450000D03*
X82200000Y-110410000D03*
X82200000Y-91650000D03*
X82200000Y-92610000D03*
D13*
X67850000Y-45050000D03*
D10*
X91550000Y-83900000D03*
D13*
X79600000Y-71750000D03*
D14*
X80950000Y-71550000D03*
X81550000Y-71550000D03*
X82150000Y-71550000D03*
X81850000Y-71800000D03*
X80950000Y-72050000D03*
X81550000Y-72050000D03*
X82150000Y-72050000D03*
X81250000Y-72300000D03*
X81850000Y-72300000D03*
X80950000Y-72550000D03*
X81550000Y-72550000D03*
X82150000Y-72550000D03*
X81250000Y-72800000D03*
X81850000Y-72800000D03*
X80950000Y-73050000D03*
X81550000Y-73050000D03*
X82150000Y-73050000D03*
X69200000Y-53750000D03*
X69800000Y-53750000D03*
X70400000Y-53750000D03*
X70100000Y-54000000D03*
X69200000Y-54250000D03*
X69800000Y-54250000D03*
X70400000Y-54250000D03*
X69500000Y-54500000D03*
X70100000Y-54500000D03*
X69200000Y-54750000D03*
X69800000Y-54750000D03*
X70400000Y-54750000D03*
X69500000Y-55000000D03*
X70100000Y-55000000D03*
X69200000Y-55250000D03*
X69800000Y-55250000D03*
X70400000Y-55250000D03*
D10*
X68050000Y-48300000D03*
D13*
X67850000Y-62850000D03*
D11*
X82200000Y-64950000D03*
X82200000Y-65910000D03*
D10*
X81100000Y-48300000D03*
D12*
X80210000Y-82290000D03*
X79410000Y-82290000D03*
X79410000Y-82990000D03*
X80210000Y-82990000D03*
D10*
X91550000Y-57200000D03*
D12*
X68460000Y-100090000D03*
X67660000Y-100090000D03*
X67660000Y-100790000D03*
X68460000Y-100790000D03*
D10*
X56300000Y-92800000D03*
D13*
X56100000Y-89550000D03*
D10*
X79800000Y-66100000D03*
D12*
X68460000Y-64490000D03*
X67660000Y-64490000D03*
X67660000Y-65190000D03*
X68460000Y-65190000D03*
D13*
X91350000Y-53950000D03*
D10*
X92850000Y-75000000D03*
D12*
X56710000Y-108990000D03*
X55910000Y-108990000D03*
X55910000Y-109690000D03*
X56710000Y-109690000D03*
D11*
X70450000Y-100550000D03*
X70450000Y-101510000D03*
D14*
X57450000Y-62650000D03*
X58050000Y-62650000D03*
X58650000Y-62650000D03*
X58350000Y-62900000D03*
X57450000Y-63150000D03*
X58050000Y-63150000D03*
X58650000Y-63150000D03*
X57750000Y-63400000D03*
X58350000Y-63400000D03*
X57450000Y-63650000D03*
X58050000Y-63650000D03*
X58650000Y-63650000D03*
X57750000Y-63900000D03*
X58350000Y-63900000D03*
X57450000Y-64150000D03*
X58050000Y-64150000D03*
X58650000Y-64150000D03*
D11*
X58700000Y-91650000D03*
X58700000Y-92610000D03*
D12*
X56710000Y-55590000D03*
X55910000Y-55590000D03*
X55910000Y-56290000D03*
X56710000Y-56290000D03*
D10*
X92850000Y-66100000D03*
D14*
X80950000Y-44850000D03*
X81550000Y-44850000D03*
X82150000Y-44850000D03*
X81850000Y-45100000D03*
X80950000Y-45350000D03*
X81550000Y-45350000D03*
X82150000Y-45350000D03*
X81250000Y-45600000D03*
X81850000Y-45600000D03*
X80950000Y-45850000D03*
X81550000Y-45850000D03*
X82150000Y-45850000D03*
X81250000Y-46100000D03*
X81850000Y-46100000D03*
X80950000Y-46350000D03*
X81550000Y-46350000D03*
X82150000Y-46350000D03*
D10*
X57600000Y-57200000D03*
D11*
X70450000Y-64950000D03*
X70450000Y-65910000D03*
D10*
X68050000Y-57200000D03*
X81100000Y-83900000D03*
D11*
X82200000Y-56050000D03*
X82200000Y-57010000D03*
X82200000Y-82750000D03*
X82200000Y-83710000D03*
X58700000Y-82750000D03*
X58700000Y-83710000D03*
D10*
X91550000Y-101700000D03*
D14*
X92700000Y-89350000D03*
X93300000Y-89350000D03*
X93900000Y-89350000D03*
X93600000Y-89600000D03*
X92700000Y-89850000D03*
X93300000Y-89850000D03*
X93900000Y-89850000D03*
X93000000Y-90100000D03*
X93600000Y-90100000D03*
X92700000Y-90350000D03*
X93300000Y-90350000D03*
X93900000Y-90350000D03*
X93000000Y-90600000D03*
X93600000Y-90600000D03*
X92700000Y-90850000D03*
X93300000Y-90850000D03*
X93900000Y-90850000D03*
D11*
X58700000Y-64950000D03*
X58700000Y-65910000D03*
X93950000Y-73850000D03*
X93950000Y-74810000D03*
X70450000Y-109450000D03*
X70450000Y-110410000D03*
D12*
X56710000Y-73390000D03*
X55910000Y-73390000D03*
X55910000Y-74090000D03*
X56710000Y-74090000D03*
D14*
X92700000Y-62650000D03*
X93300000Y-62650000D03*
X93900000Y-62650000D03*
X93600000Y-62900000D03*
X92700000Y-63150000D03*
X93300000Y-63150000D03*
X93900000Y-63150000D03*
X93000000Y-63400000D03*
X93600000Y-63400000D03*
X92700000Y-63650000D03*
X93300000Y-63650000D03*
X93900000Y-63650000D03*
X93000000Y-63900000D03*
X93600000Y-63900000D03*
X92700000Y-64150000D03*
X93300000Y-64150000D03*
X93900000Y-64150000D03*
D11*
X58700000Y-73850000D03*
X58700000Y-74810000D03*
D13*
X91350000Y-89550000D03*
X79600000Y-53950000D03*
X67850000Y-80650000D03*
D10*
X56300000Y-110600000D03*
X69350000Y-48300000D03*
X92850000Y-57200000D03*
D11*
X70450000Y-82750000D03*
X70450000Y-83710000D03*
D10*
X69350000Y-66100000D03*
D13*
X91350000Y-80650000D03*
D10*
X91550000Y-92800000D03*
D12*
X91960000Y-55590000D03*
X91160000Y-55590000D03*
X91160000Y-56290000D03*
X91960000Y-56290000D03*
D10*
X81100000Y-101700000D03*
D14*
X57450000Y-71550000D03*
X58050000Y-71550000D03*
X58650000Y-71550000D03*
X58350000Y-71800000D03*
X57450000Y-72050000D03*
X58050000Y-72050000D03*
X58650000Y-72050000D03*
X57750000Y-72300000D03*
X58350000Y-72300000D03*
X57450000Y-72550000D03*
X58050000Y-72550000D03*
X58650000Y-72550000D03*
X57750000Y-72800000D03*
X58350000Y-72800000D03*
X57450000Y-73050000D03*
X58050000Y-73050000D03*
X58650000Y-73050000D03*
D10*
X81100000Y-110600000D03*
X68050000Y-92800000D03*
D12*
X91960000Y-73390000D03*
X91160000Y-73390000D03*
X91160000Y-74090000D03*
X91960000Y-74090000D03*
D10*
X68050000Y-75000000D03*
D13*
X56100000Y-62850000D03*
D14*
X57450000Y-89350000D03*
X58050000Y-89350000D03*
X58650000Y-89350000D03*
X58350000Y-89600000D03*
X57450000Y-89850000D03*
X58050000Y-89850000D03*
X58650000Y-89850000D03*
X57750000Y-90100000D03*
X58350000Y-90100000D03*
X57450000Y-90350000D03*
X58050000Y-90350000D03*
X58650000Y-90350000D03*
X57750000Y-90600000D03*
X58350000Y-90600000D03*
X57450000Y-90850000D03*
X58050000Y-90850000D03*
X58650000Y-90850000D03*
D12*
X91960000Y-46690000D03*
X91160000Y-46690000D03*
X91160000Y-47390000D03*
X91960000Y-47390000D03*
D14*
X69200000Y-107150000D03*
X69800000Y-107150000D03*
X70400000Y-107150000D03*
X70100000Y-107400000D03*
X69200000Y-107650000D03*
X69800000Y-107650000D03*
X70400000Y-107650000D03*
X69500000Y-107900000D03*
X70100000Y-107900000D03*
X69200000Y-108150000D03*
X69800000Y-108150000D03*
X70400000Y-108150000D03*
X69500000Y-108400000D03*
X70100000Y-108400000D03*
X69200000Y-108650000D03*
X69800000Y-108650000D03*
X70400000Y-108650000D03*
D12*
X56710000Y-100090000D03*
X55910000Y-100090000D03*
X55910000Y-100790000D03*
X56710000Y-100790000D03*
X91960000Y-82290000D03*
X91160000Y-82290000D03*
X91160000Y-82990000D03*
X91960000Y-82990000D03*
D10*
X79800000Y-92800000D03*
D14*
X69200000Y-89350000D03*
X69800000Y-89350000D03*
X70400000Y-89350000D03*
X70100000Y-89600000D03*
X69200000Y-89850000D03*
X69800000Y-89850000D03*
X70400000Y-89850000D03*
X69500000Y-90100000D03*
X70100000Y-90100000D03*
X69200000Y-90350000D03*
X69800000Y-90350000D03*
X70400000Y-90350000D03*
X69500000Y-90600000D03*
X70100000Y-90600000D03*
X69200000Y-90850000D03*
X69800000Y-90850000D03*
X70400000Y-90850000D03*
D11*
X58700000Y-56050000D03*
X58700000Y-57010000D03*
D14*
X69200000Y-44850000D03*
X69800000Y-44850000D03*
X70400000Y-44850000D03*
X70100000Y-45100000D03*
X69200000Y-45350000D03*
X69800000Y-45350000D03*
X70400000Y-45350000D03*
X69500000Y-45600000D03*
X70100000Y-45600000D03*
X69200000Y-45850000D03*
X69800000Y-45850000D03*
X70400000Y-45850000D03*
X69500000Y-46100000D03*
X70100000Y-46100000D03*
X69200000Y-46350000D03*
X69800000Y-46350000D03*
X70400000Y-46350000D03*
D12*
X80210000Y-64490000D03*
X79410000Y-64490000D03*
X79410000Y-65190000D03*
X80210000Y-65190000D03*
D14*
X57450000Y-53750000D03*
X58050000Y-53750000D03*
X58650000Y-53750000D03*
X58350000Y-54000000D03*
X57450000Y-54250000D03*
X58050000Y-54250000D03*
X58650000Y-54250000D03*
X57750000Y-54500000D03*
X58350000Y-54500000D03*
X57450000Y-54750000D03*
X58050000Y-54750000D03*
X58650000Y-54750000D03*
X57750000Y-55000000D03*
X58350000Y-55000000D03*
X57450000Y-55250000D03*
X58050000Y-55250000D03*
X58650000Y-55250000D03*
D12*
X68460000Y-55590000D03*
X67660000Y-55590000D03*
X67660000Y-56290000D03*
X68460000Y-56290000D03*
D10*
X92850000Y-110600000D03*
D13*
X56100000Y-98450000D03*
D14*
X69200000Y-80450000D03*
X69800000Y-80450000D03*
X70400000Y-80450000D03*
X70100000Y-80700000D03*
X69200000Y-80950000D03*
X69800000Y-80950000D03*
X70400000Y-80950000D03*
X69500000Y-81200000D03*
X70100000Y-81200000D03*
X69200000Y-81450000D03*
X69800000Y-81450000D03*
X70400000Y-81450000D03*
X69500000Y-81700000D03*
X70100000Y-81700000D03*
X69200000Y-81950000D03*
X69800000Y-81950000D03*
X70400000Y-81950000D03*
X80950000Y-98250000D03*
X81550000Y-98250000D03*
X82150000Y-98250000D03*
X81850000Y-98500000D03*
X80950000Y-98750000D03*
X81550000Y-98750000D03*
X82150000Y-98750000D03*
X81250000Y-99000000D03*
X81850000Y-99000000D03*
X80950000Y-99250000D03*
X81550000Y-99250000D03*
X82150000Y-99250000D03*
X81250000Y-99500000D03*
X81850000Y-99500000D03*
X80950000Y-99750000D03*
X81550000Y-99750000D03*
X82150000Y-99750000D03*
D12*
X91960000Y-108990000D03*
X91160000Y-108990000D03*
X91160000Y-109690000D03*
X91960000Y-109690000D03*
D11*
X82200000Y-73850000D03*
X82200000Y-74810000D03*
D12*
X68460000Y-46690000D03*
X67660000Y-46690000D03*
X67660000Y-47390000D03*
X68460000Y-47390000D03*
D11*
X93950000Y-82750000D03*
X93950000Y-83710000D03*
D12*
X80210000Y-55590000D03*
X79410000Y-55590000D03*
X79410000Y-56290000D03*
X80210000Y-56290000D03*
X91960000Y-64490000D03*
X91160000Y-64490000D03*
X91160000Y-65190000D03*
X91960000Y-65190000D03*
D13*
X56100000Y-45050000D03*
D12*
X68460000Y-108990000D03*
X67660000Y-108990000D03*
X67660000Y-109690000D03*
X68460000Y-109690000D03*
D14*
X69200000Y-62650000D03*
X69800000Y-62650000D03*
X70400000Y-62650000D03*
X70100000Y-62900000D03*
X69200000Y-63150000D03*
X69800000Y-63150000D03*
X70400000Y-63150000D03*
X69500000Y-63400000D03*
X70100000Y-63400000D03*
X69200000Y-63650000D03*
X69800000Y-63650000D03*
X70400000Y-63650000D03*
X69500000Y-63900000D03*
X70100000Y-63900000D03*
X69200000Y-64150000D03*
X69800000Y-64150000D03*
X70400000Y-64150000D03*
D13*
X79600000Y-80650000D03*
D10*
X56300000Y-57200000D03*
D11*
X58700000Y-109450000D03*
X58700000Y-110410000D03*
X70450000Y-91650000D03*
X70450000Y-92610000D03*
D10*
X79800000Y-75000000D03*
D12*
X68460000Y-91190000D03*
X67660000Y-91190000D03*
X67660000Y-91890000D03*
X68460000Y-91890000D03*
X91960000Y-91190000D03*
X91160000Y-91190000D03*
X91160000Y-91890000D03*
X91960000Y-91890000D03*
D10*
X79800000Y-110600000D03*
D12*
X80210000Y-100090000D03*
X79410000Y-100090000D03*
X79410000Y-100790000D03*
X80210000Y-100790000D03*
D14*
X69200000Y-71550000D03*
X69800000Y-71550000D03*
X70400000Y-71550000D03*
X70100000Y-71800000D03*
X69200000Y-72050000D03*
X69800000Y-72050000D03*
X70400000Y-72050000D03*
X69500000Y-72300000D03*
X70100000Y-72300000D03*
X69200000Y-72550000D03*
X69800000Y-72550000D03*
X70400000Y-72550000D03*
X69500000Y-72800000D03*
X70100000Y-72800000D03*
X69200000Y-73050000D03*
X69800000Y-73050000D03*
X70400000Y-73050000D03*
X92700000Y-107150000D03*
X93300000Y-107150000D03*
X93900000Y-107150000D03*
X93600000Y-107400000D03*
X92700000Y-107650000D03*
X93300000Y-107650000D03*
X93900000Y-107650000D03*
X93000000Y-107900000D03*
X93600000Y-107900000D03*
X92700000Y-108150000D03*
X93300000Y-108150000D03*
X93900000Y-108150000D03*
X93000000Y-108400000D03*
X93600000Y-108400000D03*
X92700000Y-108650000D03*
X93300000Y-108650000D03*
X93900000Y-108650000D03*
X92700000Y-71550000D03*
X93300000Y-71550000D03*
X93900000Y-71550000D03*
X93600000Y-71800000D03*
X92700000Y-72050000D03*
X93300000Y-72050000D03*
X93900000Y-72050000D03*
X93000000Y-72300000D03*
X93600000Y-72300000D03*
X92700000Y-72550000D03*
X93300000Y-72550000D03*
X93900000Y-72550000D03*
X93000000Y-72800000D03*
X93600000Y-72800000D03*
X92700000Y-73050000D03*
X93300000Y-73050000D03*
X93900000Y-73050000D03*
X92700000Y-80450000D03*
X93300000Y-80450000D03*
X93900000Y-80450000D03*
X93600000Y-80700000D03*
X92700000Y-80950000D03*
X93300000Y-80950000D03*
X93900000Y-80950000D03*
X93000000Y-81200000D03*
X93600000Y-81200000D03*
X92700000Y-81450000D03*
X93300000Y-81450000D03*
X93900000Y-81450000D03*
X93000000Y-81700000D03*
X93600000Y-81700000D03*
X92700000Y-81950000D03*
X93300000Y-81950000D03*
X93900000Y-81950000D03*
D10*
X92850000Y-101700000D03*
X57600000Y-75000000D03*
D13*
X79600000Y-107350000D03*
X67850000Y-71750000D03*
X79600000Y-45050000D03*
D14*
X80950000Y-62650000D03*
X81550000Y-62650000D03*
X82150000Y-62650000D03*
X81850000Y-62900000D03*
X80950000Y-63150000D03*
X81550000Y-63150000D03*
X82150000Y-63150000D03*
X81250000Y-63400000D03*
X81850000Y-63400000D03*
X80950000Y-63650000D03*
X81550000Y-63650000D03*
X82150000Y-63650000D03*
X81250000Y-63900000D03*
X81850000Y-63900000D03*
X80950000Y-64150000D03*
X81550000Y-64150000D03*
X82150000Y-64150000D03*
D11*
X82200000Y-100550000D03*
X82200000Y-101510000D03*
X93950000Y-56050000D03*
X93950000Y-57010000D03*
X70450000Y-73850000D03*
X70450000Y-74810000D03*
D13*
X79600000Y-62850000D03*
D10*
X91550000Y-48300000D03*
X92850000Y-48300000D03*
X69350000Y-101700000D03*
D11*
X70450000Y-47150000D03*
X70450000Y-48110000D03*
X93950000Y-47150000D03*
X93950000Y-48110000D03*
D10*
X57600000Y-101700000D03*
X68050000Y-101700000D03*
D13*
X56100000Y-71750000D03*
D11*
X82200000Y-47150000D03*
X82200000Y-48110000D03*
D10*
X69350000Y-75000000D03*
X79800000Y-48300000D03*
D14*
X57450000Y-44850000D03*
X58050000Y-44850000D03*
X58650000Y-44850000D03*
X58350000Y-45100000D03*
X57450000Y-45350000D03*
X58050000Y-45350000D03*
X58650000Y-45350000D03*
X57750000Y-45600000D03*
X58350000Y-45600000D03*
X57450000Y-45850000D03*
X58050000Y-45850000D03*
X58650000Y-45850000D03*
X57750000Y-46100000D03*
X58350000Y-46100000D03*
X57450000Y-46350000D03*
X58050000Y-46350000D03*
X58650000Y-46350000D03*
D13*
X67850000Y-89550000D03*
D10*
X91550000Y-66100000D03*
D13*
X67850000Y-107350000D03*
D11*
X93950000Y-64950000D03*
X93950000Y-65910000D03*
D12*
X56710000Y-82290000D03*
X55910000Y-82290000D03*
X55910000Y-82990000D03*
X56710000Y-82990000D03*
D11*
X93950000Y-109450000D03*
X93950000Y-110410000D03*
D13*
X79600000Y-89550000D03*
D12*
X68460000Y-73390000D03*
X67660000Y-73390000D03*
X67660000Y-74090000D03*
X68460000Y-74090000D03*
D10*
X79800000Y-101700000D03*
X92850000Y-83900000D03*
D11*
X58700000Y-47150000D03*
X58700000Y-48110000D03*
D13*
X91350000Y-45050000D03*
D10*
X68050000Y-66100000D03*
D11*
X93950000Y-100550000D03*
X93950000Y-101510000D03*
D13*
X56100000Y-107350000D03*
D12*
X80210000Y-73390000D03*
X79410000Y-73390000D03*
X79410000Y-74090000D03*
X80210000Y-74090000D03*
D10*
X91550000Y-75000000D03*
D12*
X56710000Y-91190000D03*
X55910000Y-91190000D03*
X55910000Y-91890000D03*
X56710000Y-91890000D03*
D10*
X79800000Y-83900000D03*
X81100000Y-57200000D03*
X57600000Y-48300000D03*
X57600000Y-110600000D03*
X56300000Y-83900000D03*
X56300000Y-75000000D03*
D11*
X93950000Y-91650000D03*
X93950000Y-92610000D03*
D12*
X80210000Y-91190000D03*
X79410000Y-91190000D03*
X79410000Y-91890000D03*
X80210000Y-91890000D03*
D14*
X57450000Y-80450000D03*
X58050000Y-80450000D03*
X58650000Y-80450000D03*
X58350000Y-80700000D03*
X57450000Y-80950000D03*
X58050000Y-80950000D03*
X58650000Y-80950000D03*
X57750000Y-81200000D03*
X58350000Y-81200000D03*
X57450000Y-81450000D03*
X58050000Y-81450000D03*
X58650000Y-81450000D03*
X57750000Y-81700000D03*
X58350000Y-81700000D03*
X57450000Y-81950000D03*
X58050000Y-81950000D03*
X58650000Y-81950000D03*
D12*
X80210000Y-108990000D03*
X79410000Y-108990000D03*
X79410000Y-109690000D03*
X80210000Y-109690000D03*
D13*
X79600000Y-98450000D03*
D10*
X69350000Y-110600000D03*
X57600000Y-66100000D03*
D13*
X91350000Y-71750000D03*
D10*
X56300000Y-48300000D03*
M02*
