G04 #@! TF.GenerationSoftware,KiCad,Pcbnew,7.0.7-7.0.7~ubuntu22.04.1*
G04 #@! TF.CreationDate,2024-03-29T17:55:08+00:00*
G04 #@! TF.ProjectId,receiver6_rep,72656365-6976-4657-9236-5f7265702e6b,rev?*
G04 #@! TF.SameCoordinates,Original*
G04 #@! TF.FileFunction,Paste,Bot*
G04 #@! TF.FilePolarity,Positive*
%FSLAX46Y46*%
G04 Gerber Fmt 4.6, Leading zero omitted, Abs format (unit mm)*
G04 Created by KiCad (PCBNEW 7.0.7-7.0.7~ubuntu22.04.1) date 2024-03-29 17:55:08*
%MOMM*%
%LPD*%
G01*
G04 APERTURE LIST*
G04 Aperture macros list*
%AMRoundRect*
0 Rectangle with rounded corners*
0 $1 Rounding radius*
0 $2 $3 $4 $5 $6 $7 $8 $9 X,Y pos of 4 corners*
0 Add a 4 corners polygon primitive as box body*
4,1,4,$2,$3,$4,$5,$6,$7,$8,$9,$2,$3,0*
0 Add four circle primitives for the rounded corners*
1,1,$1+$1,$2,$3*
1,1,$1+$1,$4,$5*
1,1,$1+$1,$6,$7*
1,1,$1+$1,$8,$9*
0 Add four rect primitives between the rounded corners*
20,1,$1+$1,$2,$3,$4,$5,0*
20,1,$1+$1,$4,$5,$6,$7,0*
20,1,$1+$1,$6,$7,$8,$9,0*
20,1,$1+$1,$8,$9,$2,$3,0*%
G04 Aperture macros list end*
%ADD10R,1.400000X1.400000*%
%ADD11RoundRect,0.162500X1.012500X-0.162500X1.012500X0.162500X-1.012500X0.162500X-1.012500X-0.162500X0*%
G04 APERTURE END LIST*
D10*
X81500000Y-82700000D03*
X81500000Y-80500000D03*
X58000000Y-109400000D03*
X58000000Y-107200000D03*
D11*
X68700000Y-84000000D03*
X80450000Y-84000000D03*
D10*
X93250000Y-82700000D03*
X93250000Y-80500000D03*
D11*
X92200000Y-110700000D03*
D10*
X69750000Y-91600000D03*
X69750000Y-89400000D03*
X81500000Y-64900000D03*
X81500000Y-62700000D03*
X93250000Y-56000000D03*
X93250000Y-53800000D03*
D11*
X92200000Y-48400000D03*
X92200000Y-57300000D03*
D10*
X93250000Y-109400000D03*
X93250000Y-107200000D03*
X93250000Y-73800000D03*
X93250000Y-71600000D03*
X58000000Y-82700000D03*
X58000000Y-80500000D03*
X81500000Y-73800000D03*
X81500000Y-71600000D03*
D11*
X92200000Y-84000000D03*
X92200000Y-101800000D03*
X56950000Y-110700000D03*
X68700000Y-66200000D03*
X56950000Y-101800000D03*
X80450000Y-66200000D03*
D10*
X93250000Y-100500000D03*
X93250000Y-98300000D03*
D11*
X80450000Y-110700000D03*
D10*
X58000000Y-91600000D03*
X58000000Y-89400000D03*
X69750000Y-82700000D03*
X69750000Y-80500000D03*
X58000000Y-100500000D03*
X58000000Y-98300000D03*
D11*
X68700000Y-75100000D03*
X68700000Y-48400000D03*
X56950000Y-92900000D03*
D10*
X69750000Y-47100000D03*
X69750000Y-44900000D03*
X69750000Y-56000000D03*
X69750000Y-53800000D03*
D11*
X80450000Y-75100000D03*
D10*
X58000000Y-56000000D03*
X58000000Y-53800000D03*
X69750000Y-64900000D03*
X69750000Y-62700000D03*
X81500000Y-109400000D03*
X81500000Y-107200000D03*
X81500000Y-47100000D03*
X81500000Y-44900000D03*
D11*
X92200000Y-75100000D03*
D10*
X58000000Y-47100000D03*
X58000000Y-44900000D03*
D11*
X80450000Y-48400000D03*
X80450000Y-57300000D03*
X80450000Y-92900000D03*
X68700000Y-57300000D03*
X56950000Y-84000000D03*
D10*
X93250000Y-91600000D03*
X93250000Y-89400000D03*
X93250000Y-47100000D03*
X93250000Y-44900000D03*
D11*
X92200000Y-66200000D03*
D10*
X81500000Y-91600000D03*
X81500000Y-89400000D03*
D11*
X80450000Y-101800000D03*
D10*
X69750000Y-109400000D03*
X69750000Y-107200000D03*
D11*
X68700000Y-101800000D03*
D10*
X93250000Y-64900000D03*
X93250000Y-62700000D03*
D11*
X56950000Y-66200000D03*
D10*
X81500000Y-100500000D03*
X81500000Y-98300000D03*
D11*
X56950000Y-75100000D03*
D10*
X69750000Y-73800000D03*
X69750000Y-71600000D03*
D11*
X56950000Y-48400000D03*
D10*
X58000000Y-64900000D03*
X58000000Y-62700000D03*
X81500000Y-56000000D03*
X81500000Y-53800000D03*
D11*
X56950000Y-57300000D03*
D10*
X69750000Y-100500000D03*
X69750000Y-98300000D03*
D11*
X68700000Y-110700000D03*
X92200000Y-92900000D03*
X68700000Y-92900000D03*
D10*
X58000000Y-73800000D03*
X58000000Y-71600000D03*
M02*
