G04 #@! TF.GenerationSoftware,KiCad,Pcbnew,7.0.7-7.0.7~ubuntu22.04.1*
G04 #@! TF.CreationDate,2024-03-29T17:55:08+00:00*
G04 #@! TF.ProjectId,receiver6_rep,72656365-6976-4657-9236-5f7265702e6b,rev?*
G04 #@! TF.SameCoordinates,Original*
G04 #@! TF.FileFunction,Legend,Top*
G04 #@! TF.FilePolarity,Positive*
%FSLAX46Y46*%
G04 Gerber Fmt 4.6, Leading zero omitted, Abs format (unit mm)*
G04 Created by KiCad (PCBNEW 7.0.7-7.0.7~ubuntu22.04.1) date 2024-03-29 17:55:08*
%MOMM*%
%LPD*%
G01*
G04 APERTURE LIST*
G04 Aperture macros list*
%AMRoundRect*
0 Rectangle with rounded corners*
0 $1 Rounding radius*
0 $2 $3 $4 $5 $6 $7 $8 $9 X,Y pos of 4 corners*
0 Add a 4 corners polygon primitive as box body*
4,1,4,$2,$3,$4,$5,$6,$7,$8,$9,$2,$3,0*
0 Add four circle primitives for the rounded corners*
1,1,$1+$1,$2,$3*
1,1,$1+$1,$4,$5*
1,1,$1+$1,$6,$7*
1,1,$1+$1,$8,$9*
0 Add four rect primitives between the rounded corners*
20,1,$1+$1,$2,$3,$4,$5,0*
20,1,$1+$1,$4,$5,$6,$7,0*
20,1,$1+$1,$6,$7,$8,$9,0*
20,1,$1+$1,$8,$9,$2,$3,0*%
G04 Aperture macros list end*
%ADD10C,0.150000*%
%ADD11C,0.125000*%
%ADD12C,0.120000*%
%ADD13R,4.000000X0.700000*%
%ADD14RoundRect,0.162500X0.362500X-0.162500X0.362500X0.162500X-0.362500X0.162500X-0.362500X-0.162500X0*%
%ADD15RoundRect,0.140000X-0.170000X0.140000X-0.170000X-0.140000X0.170000X-0.140000X0.170000X0.140000X0*%
%ADD16R,0.500000X0.400000*%
%ADD17RoundRect,0.250000X-0.250000X-0.750000X0.250000X-0.750000X0.250000X0.750000X-0.250000X0.750000X0*%
%ADD18C,0.227000*%
G04 APERTURE END LIST*
D10*
X67195000Y-48600000D02*
X71205000Y-48600000D01*
X82960000Y-43900000D02*
X82960000Y-48600000D01*
X94710000Y-88400000D02*
X94710000Y-93100000D01*
X71210000Y-61700000D02*
X71210000Y-66400000D01*
X78950000Y-61700000D02*
X82960000Y-61700000D01*
X78945000Y-57500000D02*
X82955000Y-57500000D01*
X90700000Y-61700000D02*
X94710000Y-61700000D01*
X55450000Y-57500000D02*
X55450000Y-52800000D01*
X94710000Y-52800000D02*
X94710000Y-57500000D01*
X78950000Y-79500000D02*
X82960000Y-79500000D01*
X71210000Y-79500000D02*
X71210000Y-84200000D01*
X82960000Y-88400000D02*
X82960000Y-93100000D01*
X59460000Y-79500000D02*
X59460000Y-84200000D01*
X90695000Y-110900000D02*
X94705000Y-110900000D01*
X55450000Y-102000000D02*
X55450000Y-97300000D01*
X55450000Y-43900000D02*
X59460000Y-43900000D01*
X55445000Y-110900000D02*
X59455000Y-110900000D01*
X55445000Y-84200000D02*
X59455000Y-84200000D01*
X59460000Y-88400000D02*
X59460000Y-93100000D01*
X67200000Y-61700000D02*
X71210000Y-61700000D01*
X90695000Y-75300000D02*
X94705000Y-75300000D01*
X82960000Y-97300000D02*
X82960000Y-102000000D01*
X67200000Y-52800000D02*
X71210000Y-52800000D01*
X55450000Y-52800000D02*
X59460000Y-52800000D01*
X59460000Y-43900000D02*
X59460000Y-48600000D01*
X90700000Y-84200000D02*
X90700000Y-79500000D01*
X67200000Y-66400000D02*
X67200000Y-61700000D01*
X67200000Y-84200000D02*
X67200000Y-79500000D01*
X90695000Y-66400000D02*
X94705000Y-66400000D01*
X55450000Y-93100000D02*
X55450000Y-88400000D01*
X71210000Y-43900000D02*
X71210000Y-48600000D01*
X90695000Y-84200000D02*
X94705000Y-84200000D01*
X55445000Y-93100000D02*
X59455000Y-93100000D01*
X78950000Y-110900000D02*
X78950000Y-106200000D01*
X94710000Y-70600000D02*
X94710000Y-75300000D01*
X55450000Y-79500000D02*
X59460000Y-79500000D01*
X78945000Y-48600000D02*
X82955000Y-48600000D01*
X90700000Y-79500000D02*
X94710000Y-79500000D01*
X59460000Y-52800000D02*
X59460000Y-57500000D01*
X90695000Y-93100000D02*
X94705000Y-93100000D01*
X78950000Y-106200000D02*
X82960000Y-106200000D01*
X90700000Y-75300000D02*
X90700000Y-70600000D01*
X55450000Y-48600000D02*
X55450000Y-43900000D01*
X71210000Y-52800000D02*
X71210000Y-57500000D01*
X90700000Y-110900000D02*
X90700000Y-106200000D01*
X55450000Y-61700000D02*
X59460000Y-61700000D01*
X78945000Y-93100000D02*
X82955000Y-93100000D01*
X55445000Y-102000000D02*
X59455000Y-102000000D01*
X82960000Y-106200000D02*
X82960000Y-110900000D01*
X78950000Y-70600000D02*
X82960000Y-70600000D01*
X55450000Y-84200000D02*
X55450000Y-79500000D01*
X67195000Y-84200000D02*
X71205000Y-84200000D01*
X90700000Y-93100000D02*
X90700000Y-88400000D01*
X67200000Y-88400000D02*
X71210000Y-88400000D01*
X90700000Y-43900000D02*
X94710000Y-43900000D01*
X78945000Y-75300000D02*
X82955000Y-75300000D01*
X59460000Y-106200000D02*
X59460000Y-110900000D01*
X55445000Y-75300000D02*
X59455000Y-75300000D01*
X90700000Y-102000000D02*
X90700000Y-97300000D01*
X55450000Y-88400000D02*
X59460000Y-88400000D01*
X90700000Y-48600000D02*
X90700000Y-43900000D01*
X90695000Y-48600000D02*
X94705000Y-48600000D01*
X55445000Y-57500000D02*
X59455000Y-57500000D01*
X78950000Y-52800000D02*
X82960000Y-52800000D01*
X78950000Y-66400000D02*
X78950000Y-61700000D01*
X55450000Y-110900000D02*
X55450000Y-106200000D01*
X67195000Y-102000000D02*
X71205000Y-102000000D01*
X90700000Y-70600000D02*
X94710000Y-70600000D01*
X82960000Y-79500000D02*
X82960000Y-84200000D01*
X67200000Y-48600000D02*
X67200000Y-43900000D01*
X78950000Y-84200000D02*
X78950000Y-79500000D01*
X55445000Y-66400000D02*
X59455000Y-66400000D01*
X78950000Y-48600000D02*
X78950000Y-43900000D01*
X78945000Y-102000000D02*
X82955000Y-102000000D01*
X94710000Y-79500000D02*
X94710000Y-84200000D01*
X67200000Y-75300000D02*
X67200000Y-70600000D01*
X59460000Y-97300000D02*
X59460000Y-102000000D01*
X82960000Y-52800000D02*
X82960000Y-57500000D01*
X90700000Y-57500000D02*
X90700000Y-52800000D01*
X67200000Y-43900000D02*
X71210000Y-43900000D01*
X55450000Y-97300000D02*
X59460000Y-97300000D01*
X78950000Y-88400000D02*
X82960000Y-88400000D01*
X55445000Y-48600000D02*
X59455000Y-48600000D01*
X67200000Y-102000000D02*
X67200000Y-97300000D01*
X71210000Y-97300000D02*
X71210000Y-102000000D01*
X78950000Y-43900000D02*
X82960000Y-43900000D01*
X59460000Y-61700000D02*
X59460000Y-66400000D01*
X94710000Y-97300000D02*
X94710000Y-102000000D01*
X71210000Y-88400000D02*
X71210000Y-93100000D01*
X90700000Y-106200000D02*
X94710000Y-106200000D01*
X78950000Y-75300000D02*
X78950000Y-70600000D01*
X67200000Y-93100000D02*
X67200000Y-88400000D01*
X90695000Y-102000000D02*
X94705000Y-102000000D01*
X55450000Y-66400000D02*
X55450000Y-61700000D01*
X94710000Y-61700000D02*
X94710000Y-66400000D01*
X90700000Y-52800000D02*
X94710000Y-52800000D01*
X67195000Y-75300000D02*
X71205000Y-75300000D01*
X67200000Y-70600000D02*
X71210000Y-70600000D01*
X67195000Y-93100000D02*
X71205000Y-93100000D01*
X78945000Y-110900000D02*
X82955000Y-110900000D01*
X78950000Y-57500000D02*
X78950000Y-52800000D01*
X67200000Y-110900000D02*
X67200000Y-106200000D01*
X90700000Y-66400000D02*
X90700000Y-61700000D01*
X67195000Y-110900000D02*
X71205000Y-110900000D01*
X78950000Y-97300000D02*
X82960000Y-97300000D01*
X67200000Y-106200000D02*
X71210000Y-106200000D01*
X67195000Y-66400000D02*
X71205000Y-66400000D01*
X78945000Y-84200000D02*
X82955000Y-84200000D01*
X71210000Y-106200000D02*
X71210000Y-110900000D01*
X67200000Y-79500000D02*
X71210000Y-79500000D01*
X67200000Y-97300000D02*
X71210000Y-97300000D01*
X55450000Y-106200000D02*
X59460000Y-106200000D01*
X90700000Y-97300000D02*
X94710000Y-97300000D01*
X78945000Y-66400000D02*
X82955000Y-66400000D01*
X71210000Y-70600000D02*
X71210000Y-75300000D01*
X94710000Y-43900000D02*
X94710000Y-48600000D01*
X82960000Y-61700000D02*
X82960000Y-66400000D01*
X90700000Y-88400000D02*
X94710000Y-88400000D01*
X94710000Y-106200000D02*
X94710000Y-110900000D01*
X82960000Y-70600000D02*
X82960000Y-75300000D01*
X55450000Y-70600000D02*
X59460000Y-70600000D01*
X78950000Y-102000000D02*
X78950000Y-97300000D01*
X78950000Y-93100000D02*
X78950000Y-88400000D01*
X67195000Y-57500000D02*
X71205000Y-57500000D01*
X59460000Y-70600000D02*
X59460000Y-75300000D01*
X90695000Y-57500000D02*
X94705000Y-57500000D01*
X67200000Y-57500000D02*
X67200000Y-52800000D01*
X55450000Y-75300000D02*
X55450000Y-70600000D01*
D11*
X80351283Y-99734690D02*
X80375093Y-99758500D01*
X80375093Y-99758500D02*
X80351283Y-99782309D01*
X80351283Y-99782309D02*
X80327474Y-99758500D01*
X80327474Y-99758500D02*
X80351283Y-99734690D01*
X80351283Y-99734690D02*
X80351283Y-99782309D01*
X69651283Y-47041833D02*
X70032236Y-47041833D01*
X69841759Y-47232309D02*
X69841759Y-46851357D01*
X57901283Y-73741833D02*
X58282236Y-73741833D01*
X58091759Y-73932309D02*
X58091759Y-73551357D01*
X81401283Y-109341833D02*
X81782236Y-109341833D01*
X81591759Y-109532309D02*
X81591759Y-109151357D01*
X81401283Y-91541833D02*
X81782236Y-91541833D01*
X81591759Y-91732309D02*
X81591759Y-91351357D01*
X69651283Y-82641833D02*
X70032236Y-82641833D01*
X69841759Y-82832309D02*
X69841759Y-82451357D01*
X93151283Y-82641833D02*
X93532236Y-82641833D01*
X93341759Y-82832309D02*
X93341759Y-82451357D01*
X56851283Y-64134690D02*
X56875093Y-64158500D01*
X56875093Y-64158500D02*
X56851283Y-64182309D01*
X56851283Y-64182309D02*
X56827474Y-64158500D01*
X56827474Y-64158500D02*
X56851283Y-64134690D01*
X56851283Y-64134690D02*
X56851283Y-64182309D01*
X80351283Y-90834690D02*
X80375093Y-90858500D01*
X80375093Y-90858500D02*
X80351283Y-90882309D01*
X80351283Y-90882309D02*
X80327474Y-90858500D01*
X80327474Y-90858500D02*
X80351283Y-90834690D01*
X80351283Y-90834690D02*
X80351283Y-90882309D01*
X69651283Y-55941833D02*
X70032236Y-55941833D01*
X69841759Y-56132309D02*
X69841759Y-55751357D01*
X54477474Y-89489452D02*
X54715569Y-89489452D01*
X54429855Y-89632309D02*
X54596521Y-89132309D01*
X54596521Y-89132309D02*
X54763188Y-89632309D01*
X55191759Y-89632309D02*
X54906045Y-89632309D01*
X55048902Y-89632309D02*
X55048902Y-89132309D01*
X55048902Y-89132309D02*
X55001283Y-89203738D01*
X55001283Y-89203738D02*
X54953664Y-89251357D01*
X54953664Y-89251357D02*
X54906045Y-89275166D01*
X68601283Y-90834690D02*
X68625093Y-90858500D01*
X68625093Y-90858500D02*
X68601283Y-90882309D01*
X68601283Y-90882309D02*
X68577474Y-90858500D01*
X68577474Y-90858500D02*
X68601283Y-90834690D01*
X68601283Y-90834690D02*
X68601283Y-90882309D01*
X81401283Y-73741833D02*
X81782236Y-73741833D01*
X81591759Y-73932309D02*
X81591759Y-73551357D01*
X66227474Y-80589452D02*
X66465569Y-80589452D01*
X66179855Y-80732309D02*
X66346521Y-80232309D01*
X66346521Y-80232309D02*
X66513188Y-80732309D01*
X66941759Y-80732309D02*
X66656045Y-80732309D01*
X66798902Y-80732309D02*
X66798902Y-80232309D01*
X66798902Y-80232309D02*
X66751283Y-80303738D01*
X66751283Y-80303738D02*
X66703664Y-80351357D01*
X66703664Y-80351357D02*
X66656045Y-80375166D01*
X54477474Y-62789452D02*
X54715569Y-62789452D01*
X54429855Y-62932309D02*
X54596521Y-62432309D01*
X54596521Y-62432309D02*
X54763188Y-62932309D01*
X55191759Y-62932309D02*
X54906045Y-62932309D01*
X55048902Y-62932309D02*
X55048902Y-62432309D01*
X55048902Y-62432309D02*
X55001283Y-62503738D01*
X55001283Y-62503738D02*
X54953664Y-62551357D01*
X54953664Y-62551357D02*
X54906045Y-62575166D01*
X54477474Y-71689452D02*
X54715569Y-71689452D01*
X54429855Y-71832309D02*
X54596521Y-71332309D01*
X54596521Y-71332309D02*
X54763188Y-71832309D01*
X55191759Y-71832309D02*
X54906045Y-71832309D01*
X55048902Y-71832309D02*
X55048902Y-71332309D01*
X55048902Y-71332309D02*
X55001283Y-71403738D01*
X55001283Y-71403738D02*
X54953664Y-71451357D01*
X54953664Y-71451357D02*
X54906045Y-71475166D01*
X80351283Y-73034690D02*
X80375093Y-73058500D01*
X80375093Y-73058500D02*
X80351283Y-73082309D01*
X80351283Y-73082309D02*
X80327474Y-73058500D01*
X80327474Y-73058500D02*
X80351283Y-73034690D01*
X80351283Y-73034690D02*
X80351283Y-73082309D01*
X77977474Y-62789452D02*
X78215569Y-62789452D01*
X77929855Y-62932309D02*
X78096521Y-62432309D01*
X78096521Y-62432309D02*
X78263188Y-62932309D01*
X78691759Y-62932309D02*
X78406045Y-62932309D01*
X78548902Y-62932309D02*
X78548902Y-62432309D01*
X78548902Y-62432309D02*
X78501283Y-62503738D01*
X78501283Y-62503738D02*
X78453664Y-62551357D01*
X78453664Y-62551357D02*
X78406045Y-62575166D01*
X89727474Y-98389452D02*
X89965569Y-98389452D01*
X89679855Y-98532309D02*
X89846521Y-98032309D01*
X89846521Y-98032309D02*
X90013188Y-98532309D01*
X90441759Y-98532309D02*
X90156045Y-98532309D01*
X90298902Y-98532309D02*
X90298902Y-98032309D01*
X90298902Y-98032309D02*
X90251283Y-98103738D01*
X90251283Y-98103738D02*
X90203664Y-98151357D01*
X90203664Y-98151357D02*
X90156045Y-98175166D01*
X56851283Y-108634690D02*
X56875093Y-108658500D01*
X56875093Y-108658500D02*
X56851283Y-108682309D01*
X56851283Y-108682309D02*
X56827474Y-108658500D01*
X56827474Y-108658500D02*
X56851283Y-108634690D01*
X56851283Y-108634690D02*
X56851283Y-108682309D01*
X66227474Y-98389452D02*
X66465569Y-98389452D01*
X66179855Y-98532309D02*
X66346521Y-98032309D01*
X66346521Y-98032309D02*
X66513188Y-98532309D01*
X66941759Y-98532309D02*
X66656045Y-98532309D01*
X66798902Y-98532309D02*
X66798902Y-98032309D01*
X66798902Y-98032309D02*
X66751283Y-98103738D01*
X66751283Y-98103738D02*
X66703664Y-98151357D01*
X66703664Y-98151357D02*
X66656045Y-98175166D01*
X68601283Y-73034690D02*
X68625093Y-73058500D01*
X68625093Y-73058500D02*
X68601283Y-73082309D01*
X68601283Y-73082309D02*
X68577474Y-73058500D01*
X68577474Y-73058500D02*
X68601283Y-73034690D01*
X68601283Y-73034690D02*
X68601283Y-73082309D01*
X54477474Y-44989452D02*
X54715569Y-44989452D01*
X54429855Y-45132309D02*
X54596521Y-44632309D01*
X54596521Y-44632309D02*
X54763188Y-45132309D01*
X55191759Y-45132309D02*
X54906045Y-45132309D01*
X55048902Y-45132309D02*
X55048902Y-44632309D01*
X55048902Y-44632309D02*
X55001283Y-44703738D01*
X55001283Y-44703738D02*
X54953664Y-44751357D01*
X54953664Y-44751357D02*
X54906045Y-44775166D01*
X68601283Y-108634690D02*
X68625093Y-108658500D01*
X68625093Y-108658500D02*
X68601283Y-108682309D01*
X68601283Y-108682309D02*
X68577474Y-108658500D01*
X68577474Y-108658500D02*
X68601283Y-108634690D01*
X68601283Y-108634690D02*
X68601283Y-108682309D01*
X89727474Y-44989452D02*
X89965569Y-44989452D01*
X89679855Y-45132309D02*
X89846521Y-44632309D01*
X89846521Y-44632309D02*
X90013188Y-45132309D01*
X90441759Y-45132309D02*
X90156045Y-45132309D01*
X90298902Y-45132309D02*
X90298902Y-44632309D01*
X90298902Y-44632309D02*
X90251283Y-44703738D01*
X90251283Y-44703738D02*
X90203664Y-44751357D01*
X90203664Y-44751357D02*
X90156045Y-44775166D01*
X68601283Y-99734690D02*
X68625093Y-99758500D01*
X68625093Y-99758500D02*
X68601283Y-99782309D01*
X68601283Y-99782309D02*
X68577474Y-99758500D01*
X68577474Y-99758500D02*
X68601283Y-99734690D01*
X68601283Y-99734690D02*
X68601283Y-99782309D01*
X93151283Y-91541833D02*
X93532236Y-91541833D01*
X93341759Y-91732309D02*
X93341759Y-91351357D01*
X92101283Y-55234690D02*
X92125093Y-55258500D01*
X92125093Y-55258500D02*
X92101283Y-55282309D01*
X92101283Y-55282309D02*
X92077474Y-55258500D01*
X92077474Y-55258500D02*
X92101283Y-55234690D01*
X92101283Y-55234690D02*
X92101283Y-55282309D01*
X80351283Y-64134690D02*
X80375093Y-64158500D01*
X80375093Y-64158500D02*
X80351283Y-64182309D01*
X80351283Y-64182309D02*
X80327474Y-64158500D01*
X80327474Y-64158500D02*
X80351283Y-64134690D01*
X80351283Y-64134690D02*
X80351283Y-64182309D01*
X56851283Y-46334690D02*
X56875093Y-46358500D01*
X56875093Y-46358500D02*
X56851283Y-46382309D01*
X56851283Y-46382309D02*
X56827474Y-46358500D01*
X56827474Y-46358500D02*
X56851283Y-46334690D01*
X56851283Y-46334690D02*
X56851283Y-46382309D01*
X68601283Y-64134690D02*
X68625093Y-64158500D01*
X68625093Y-64158500D02*
X68601283Y-64182309D01*
X68601283Y-64182309D02*
X68577474Y-64158500D01*
X68577474Y-64158500D02*
X68601283Y-64134690D01*
X68601283Y-64134690D02*
X68601283Y-64182309D01*
X66227474Y-89489452D02*
X66465569Y-89489452D01*
X66179855Y-89632309D02*
X66346521Y-89132309D01*
X66346521Y-89132309D02*
X66513188Y-89632309D01*
X66941759Y-89632309D02*
X66656045Y-89632309D01*
X66798902Y-89632309D02*
X66798902Y-89132309D01*
X66798902Y-89132309D02*
X66751283Y-89203738D01*
X66751283Y-89203738D02*
X66703664Y-89251357D01*
X66703664Y-89251357D02*
X66656045Y-89275166D01*
X92101283Y-108634690D02*
X92125093Y-108658500D01*
X92125093Y-108658500D02*
X92101283Y-108682309D01*
X92101283Y-108682309D02*
X92077474Y-108658500D01*
X92077474Y-108658500D02*
X92101283Y-108634690D01*
X92101283Y-108634690D02*
X92101283Y-108682309D01*
X93151283Y-64841833D02*
X93532236Y-64841833D01*
X93341759Y-65032309D02*
X93341759Y-64651357D01*
X56851283Y-55234690D02*
X56875093Y-55258500D01*
X56875093Y-55258500D02*
X56851283Y-55282309D01*
X56851283Y-55282309D02*
X56827474Y-55258500D01*
X56827474Y-55258500D02*
X56851283Y-55234690D01*
X56851283Y-55234690D02*
X56851283Y-55282309D01*
X92101283Y-64134690D02*
X92125093Y-64158500D01*
X92125093Y-64158500D02*
X92101283Y-64182309D01*
X92101283Y-64182309D02*
X92077474Y-64158500D01*
X92077474Y-64158500D02*
X92101283Y-64134690D01*
X92101283Y-64134690D02*
X92101283Y-64182309D01*
X80351283Y-108634690D02*
X80375093Y-108658500D01*
X80375093Y-108658500D02*
X80351283Y-108682309D01*
X80351283Y-108682309D02*
X80327474Y-108658500D01*
X80327474Y-108658500D02*
X80351283Y-108634690D01*
X80351283Y-108634690D02*
X80351283Y-108682309D01*
X69651283Y-91541833D02*
X70032236Y-91541833D01*
X69841759Y-91732309D02*
X69841759Y-91351357D01*
X56851283Y-81934690D02*
X56875093Y-81958500D01*
X56875093Y-81958500D02*
X56851283Y-81982309D01*
X56851283Y-81982309D02*
X56827474Y-81958500D01*
X56827474Y-81958500D02*
X56851283Y-81934690D01*
X56851283Y-81934690D02*
X56851283Y-81982309D01*
X89727474Y-53889452D02*
X89965569Y-53889452D01*
X89679855Y-54032309D02*
X89846521Y-53532309D01*
X89846521Y-53532309D02*
X90013188Y-54032309D01*
X90441759Y-54032309D02*
X90156045Y-54032309D01*
X90298902Y-54032309D02*
X90298902Y-53532309D01*
X90298902Y-53532309D02*
X90251283Y-53603738D01*
X90251283Y-53603738D02*
X90203664Y-53651357D01*
X90203664Y-53651357D02*
X90156045Y-53675166D01*
X89727474Y-71689452D02*
X89965569Y-71689452D01*
X89679855Y-71832309D02*
X89846521Y-71332309D01*
X89846521Y-71332309D02*
X90013188Y-71832309D01*
X90441759Y-71832309D02*
X90156045Y-71832309D01*
X90298902Y-71832309D02*
X90298902Y-71332309D01*
X90298902Y-71332309D02*
X90251283Y-71403738D01*
X90251283Y-71403738D02*
X90203664Y-71451357D01*
X90203664Y-71451357D02*
X90156045Y-71475166D01*
X77977474Y-71689452D02*
X78215569Y-71689452D01*
X77929855Y-71832309D02*
X78096521Y-71332309D01*
X78096521Y-71332309D02*
X78263188Y-71832309D01*
X78691759Y-71832309D02*
X78406045Y-71832309D01*
X78548902Y-71832309D02*
X78548902Y-71332309D01*
X78548902Y-71332309D02*
X78501283Y-71403738D01*
X78501283Y-71403738D02*
X78453664Y-71451357D01*
X78453664Y-71451357D02*
X78406045Y-71475166D01*
X93151283Y-73741833D02*
X93532236Y-73741833D01*
X93341759Y-73932309D02*
X93341759Y-73551357D01*
X77977474Y-44989452D02*
X78215569Y-44989452D01*
X77929855Y-45132309D02*
X78096521Y-44632309D01*
X78096521Y-44632309D02*
X78263188Y-45132309D01*
X78691759Y-45132309D02*
X78406045Y-45132309D01*
X78548902Y-45132309D02*
X78548902Y-44632309D01*
X78548902Y-44632309D02*
X78501283Y-44703738D01*
X78501283Y-44703738D02*
X78453664Y-44751357D01*
X78453664Y-44751357D02*
X78406045Y-44775166D01*
X68601283Y-55234690D02*
X68625093Y-55258500D01*
X68625093Y-55258500D02*
X68601283Y-55282309D01*
X68601283Y-55282309D02*
X68577474Y-55258500D01*
X68577474Y-55258500D02*
X68601283Y-55234690D01*
X68601283Y-55234690D02*
X68601283Y-55282309D01*
X92101283Y-90834690D02*
X92125093Y-90858500D01*
X92125093Y-90858500D02*
X92101283Y-90882309D01*
X92101283Y-90882309D02*
X92077474Y-90858500D01*
X92077474Y-90858500D02*
X92101283Y-90834690D01*
X92101283Y-90834690D02*
X92101283Y-90882309D01*
X69651283Y-64841833D02*
X70032236Y-64841833D01*
X69841759Y-65032309D02*
X69841759Y-64651357D01*
X69651283Y-73741833D02*
X70032236Y-73741833D01*
X69841759Y-73932309D02*
X69841759Y-73551357D01*
X81401283Y-82641833D02*
X81782236Y-82641833D01*
X81591759Y-82832309D02*
X81591759Y-82451357D01*
X57901283Y-64841833D02*
X58282236Y-64841833D01*
X58091759Y-65032309D02*
X58091759Y-64651357D01*
X89727474Y-62789452D02*
X89965569Y-62789452D01*
X89679855Y-62932309D02*
X89846521Y-62432309D01*
X89846521Y-62432309D02*
X90013188Y-62932309D01*
X90441759Y-62932309D02*
X90156045Y-62932309D01*
X90298902Y-62932309D02*
X90298902Y-62432309D01*
X90298902Y-62432309D02*
X90251283Y-62503738D01*
X90251283Y-62503738D02*
X90203664Y-62551357D01*
X90203664Y-62551357D02*
X90156045Y-62575166D01*
X93151283Y-109341833D02*
X93532236Y-109341833D01*
X93341759Y-109532309D02*
X93341759Y-109151357D01*
X81401283Y-55941833D02*
X81782236Y-55941833D01*
X81591759Y-56132309D02*
X81591759Y-55751357D01*
X80351283Y-46334690D02*
X80375093Y-46358500D01*
X80375093Y-46358500D02*
X80351283Y-46382309D01*
X80351283Y-46382309D02*
X80327474Y-46358500D01*
X80327474Y-46358500D02*
X80351283Y-46334690D01*
X80351283Y-46334690D02*
X80351283Y-46382309D01*
X81401283Y-64841833D02*
X81782236Y-64841833D01*
X81591759Y-65032309D02*
X81591759Y-64651357D01*
X57901283Y-82641833D02*
X58282236Y-82641833D01*
X58091759Y-82832309D02*
X58091759Y-82451357D01*
X77977474Y-107289452D02*
X78215569Y-107289452D01*
X77929855Y-107432309D02*
X78096521Y-106932309D01*
X78096521Y-106932309D02*
X78263188Y-107432309D01*
X78691759Y-107432309D02*
X78406045Y-107432309D01*
X78548902Y-107432309D02*
X78548902Y-106932309D01*
X78548902Y-106932309D02*
X78501283Y-107003738D01*
X78501283Y-107003738D02*
X78453664Y-107051357D01*
X78453664Y-107051357D02*
X78406045Y-107075166D01*
X54477474Y-107289452D02*
X54715569Y-107289452D01*
X54429855Y-107432309D02*
X54596521Y-106932309D01*
X54596521Y-106932309D02*
X54763188Y-107432309D01*
X55191759Y-107432309D02*
X54906045Y-107432309D01*
X55048902Y-107432309D02*
X55048902Y-106932309D01*
X55048902Y-106932309D02*
X55001283Y-107003738D01*
X55001283Y-107003738D02*
X54953664Y-107051357D01*
X54953664Y-107051357D02*
X54906045Y-107075166D01*
X77977474Y-80589452D02*
X78215569Y-80589452D01*
X77929855Y-80732309D02*
X78096521Y-80232309D01*
X78096521Y-80232309D02*
X78263188Y-80732309D01*
X78691759Y-80732309D02*
X78406045Y-80732309D01*
X78548902Y-80732309D02*
X78548902Y-80232309D01*
X78548902Y-80232309D02*
X78501283Y-80303738D01*
X78501283Y-80303738D02*
X78453664Y-80351357D01*
X78453664Y-80351357D02*
X78406045Y-80375166D01*
X57901283Y-109341833D02*
X58282236Y-109341833D01*
X58091759Y-109532309D02*
X58091759Y-109151357D01*
X66227474Y-62789452D02*
X66465569Y-62789452D01*
X66179855Y-62932309D02*
X66346521Y-62432309D01*
X66346521Y-62432309D02*
X66513188Y-62932309D01*
X66941759Y-62932309D02*
X66656045Y-62932309D01*
X66798902Y-62932309D02*
X66798902Y-62432309D01*
X66798902Y-62432309D02*
X66751283Y-62503738D01*
X66751283Y-62503738D02*
X66703664Y-62551357D01*
X66703664Y-62551357D02*
X66656045Y-62575166D01*
X57901283Y-91541833D02*
X58282236Y-91541833D01*
X58091759Y-91732309D02*
X58091759Y-91351357D01*
X68601283Y-46334690D02*
X68625093Y-46358500D01*
X68625093Y-46358500D02*
X68601283Y-46382309D01*
X68601283Y-46382309D02*
X68577474Y-46358500D01*
X68577474Y-46358500D02*
X68601283Y-46334690D01*
X68601283Y-46334690D02*
X68601283Y-46382309D01*
X69651283Y-100441833D02*
X70032236Y-100441833D01*
X69841759Y-100632309D02*
X69841759Y-100251357D01*
X66227474Y-44989452D02*
X66465569Y-44989452D01*
X66179855Y-45132309D02*
X66346521Y-44632309D01*
X66346521Y-44632309D02*
X66513188Y-45132309D01*
X66941759Y-45132309D02*
X66656045Y-45132309D01*
X66798902Y-45132309D02*
X66798902Y-44632309D01*
X66798902Y-44632309D02*
X66751283Y-44703738D01*
X66751283Y-44703738D02*
X66703664Y-44751357D01*
X66703664Y-44751357D02*
X66656045Y-44775166D01*
X56851283Y-73034690D02*
X56875093Y-73058500D01*
X56875093Y-73058500D02*
X56851283Y-73082309D01*
X56851283Y-73082309D02*
X56827474Y-73058500D01*
X56827474Y-73058500D02*
X56851283Y-73034690D01*
X56851283Y-73034690D02*
X56851283Y-73082309D01*
X92101283Y-99734690D02*
X92125093Y-99758500D01*
X92125093Y-99758500D02*
X92101283Y-99782309D01*
X92101283Y-99782309D02*
X92077474Y-99758500D01*
X92077474Y-99758500D02*
X92101283Y-99734690D01*
X92101283Y-99734690D02*
X92101283Y-99782309D01*
X93151283Y-55941833D02*
X93532236Y-55941833D01*
X93341759Y-56132309D02*
X93341759Y-55751357D01*
X54477474Y-98389452D02*
X54715569Y-98389452D01*
X54429855Y-98532309D02*
X54596521Y-98032309D01*
X54596521Y-98032309D02*
X54763188Y-98532309D01*
X55191759Y-98532309D02*
X54906045Y-98532309D01*
X55048902Y-98532309D02*
X55048902Y-98032309D01*
X55048902Y-98032309D02*
X55001283Y-98103738D01*
X55001283Y-98103738D02*
X54953664Y-98151357D01*
X54953664Y-98151357D02*
X54906045Y-98175166D01*
X89727474Y-89489452D02*
X89965569Y-89489452D01*
X89679855Y-89632309D02*
X89846521Y-89132309D01*
X89846521Y-89132309D02*
X90013188Y-89632309D01*
X90441759Y-89632309D02*
X90156045Y-89632309D01*
X90298902Y-89632309D02*
X90298902Y-89132309D01*
X90298902Y-89132309D02*
X90251283Y-89203738D01*
X90251283Y-89203738D02*
X90203664Y-89251357D01*
X90203664Y-89251357D02*
X90156045Y-89275166D01*
X89727474Y-80589452D02*
X89965569Y-80589452D01*
X89679855Y-80732309D02*
X89846521Y-80232309D01*
X89846521Y-80232309D02*
X90013188Y-80732309D01*
X90441759Y-80732309D02*
X90156045Y-80732309D01*
X90298902Y-80732309D02*
X90298902Y-80232309D01*
X90298902Y-80232309D02*
X90251283Y-80303738D01*
X90251283Y-80303738D02*
X90203664Y-80351357D01*
X90203664Y-80351357D02*
X90156045Y-80375166D01*
X80351283Y-81934690D02*
X80375093Y-81958500D01*
X80375093Y-81958500D02*
X80351283Y-81982309D01*
X80351283Y-81982309D02*
X80327474Y-81958500D01*
X80327474Y-81958500D02*
X80351283Y-81934690D01*
X80351283Y-81934690D02*
X80351283Y-81982309D01*
X77977474Y-53889452D02*
X78215569Y-53889452D01*
X77929855Y-54032309D02*
X78096521Y-53532309D01*
X78096521Y-53532309D02*
X78263188Y-54032309D01*
X78691759Y-54032309D02*
X78406045Y-54032309D01*
X78548902Y-54032309D02*
X78548902Y-53532309D01*
X78548902Y-53532309D02*
X78501283Y-53603738D01*
X78501283Y-53603738D02*
X78453664Y-53651357D01*
X78453664Y-53651357D02*
X78406045Y-53675166D01*
X57901283Y-55941833D02*
X58282236Y-55941833D01*
X58091759Y-56132309D02*
X58091759Y-55751357D01*
X54477474Y-80589452D02*
X54715569Y-80589452D01*
X54429855Y-80732309D02*
X54596521Y-80232309D01*
X54596521Y-80232309D02*
X54763188Y-80732309D01*
X55191759Y-80732309D02*
X54906045Y-80732309D01*
X55048902Y-80732309D02*
X55048902Y-80232309D01*
X55048902Y-80232309D02*
X55001283Y-80303738D01*
X55001283Y-80303738D02*
X54953664Y-80351357D01*
X54953664Y-80351357D02*
X54906045Y-80375166D01*
X57901283Y-100441833D02*
X58282236Y-100441833D01*
X58091759Y-100632309D02*
X58091759Y-100251357D01*
X68601283Y-81934690D02*
X68625093Y-81958500D01*
X68625093Y-81958500D02*
X68601283Y-81982309D01*
X68601283Y-81982309D02*
X68577474Y-81958500D01*
X68577474Y-81958500D02*
X68601283Y-81934690D01*
X68601283Y-81934690D02*
X68601283Y-81982309D01*
X93151283Y-100441833D02*
X93532236Y-100441833D01*
X93341759Y-100632309D02*
X93341759Y-100251357D01*
X81401283Y-100441833D02*
X81782236Y-100441833D01*
X81591759Y-100632309D02*
X81591759Y-100251357D01*
X66227474Y-71689452D02*
X66465569Y-71689452D01*
X66179855Y-71832309D02*
X66346521Y-71332309D01*
X66346521Y-71332309D02*
X66513188Y-71832309D01*
X66941759Y-71832309D02*
X66656045Y-71832309D01*
X66798902Y-71832309D02*
X66798902Y-71332309D01*
X66798902Y-71332309D02*
X66751283Y-71403738D01*
X66751283Y-71403738D02*
X66703664Y-71451357D01*
X66703664Y-71451357D02*
X66656045Y-71475166D01*
X77977474Y-98389452D02*
X78215569Y-98389452D01*
X77929855Y-98532309D02*
X78096521Y-98032309D01*
X78096521Y-98032309D02*
X78263188Y-98532309D01*
X78691759Y-98532309D02*
X78406045Y-98532309D01*
X78548902Y-98532309D02*
X78548902Y-98032309D01*
X78548902Y-98032309D02*
X78501283Y-98103738D01*
X78501283Y-98103738D02*
X78453664Y-98151357D01*
X78453664Y-98151357D02*
X78406045Y-98175166D01*
X57901283Y-47041833D02*
X58282236Y-47041833D01*
X58091759Y-47232309D02*
X58091759Y-46851357D01*
X56851283Y-99734690D02*
X56875093Y-99758500D01*
X56875093Y-99758500D02*
X56851283Y-99782309D01*
X56851283Y-99782309D02*
X56827474Y-99758500D01*
X56827474Y-99758500D02*
X56851283Y-99734690D01*
X56851283Y-99734690D02*
X56851283Y-99782309D01*
X66227474Y-107289452D02*
X66465569Y-107289452D01*
X66179855Y-107432309D02*
X66346521Y-106932309D01*
X66346521Y-106932309D02*
X66513188Y-107432309D01*
X66941759Y-107432309D02*
X66656045Y-107432309D01*
X66798902Y-107432309D02*
X66798902Y-106932309D01*
X66798902Y-106932309D02*
X66751283Y-107003738D01*
X66751283Y-107003738D02*
X66703664Y-107051357D01*
X66703664Y-107051357D02*
X66656045Y-107075166D01*
X80351283Y-55234690D02*
X80375093Y-55258500D01*
X80375093Y-55258500D02*
X80351283Y-55282309D01*
X80351283Y-55282309D02*
X80327474Y-55258500D01*
X80327474Y-55258500D02*
X80351283Y-55234690D01*
X80351283Y-55234690D02*
X80351283Y-55282309D01*
X69651283Y-109341833D02*
X70032236Y-109341833D01*
X69841759Y-109532309D02*
X69841759Y-109151357D01*
X92101283Y-81934690D02*
X92125093Y-81958500D01*
X92125093Y-81958500D02*
X92101283Y-81982309D01*
X92101283Y-81982309D02*
X92077474Y-81958500D01*
X92077474Y-81958500D02*
X92101283Y-81934690D01*
X92101283Y-81934690D02*
X92101283Y-81982309D01*
X92101283Y-46334690D02*
X92125093Y-46358500D01*
X92125093Y-46358500D02*
X92101283Y-46382309D01*
X92101283Y-46382309D02*
X92077474Y-46358500D01*
X92077474Y-46358500D02*
X92101283Y-46334690D01*
X92101283Y-46334690D02*
X92101283Y-46382309D01*
X56851283Y-90834690D02*
X56875093Y-90858500D01*
X56875093Y-90858500D02*
X56851283Y-90882309D01*
X56851283Y-90882309D02*
X56827474Y-90858500D01*
X56827474Y-90858500D02*
X56851283Y-90834690D01*
X56851283Y-90834690D02*
X56851283Y-90882309D01*
X89727474Y-107289452D02*
X89965569Y-107289452D01*
X89679855Y-107432309D02*
X89846521Y-106932309D01*
X89846521Y-106932309D02*
X90013188Y-107432309D01*
X90441759Y-107432309D02*
X90156045Y-107432309D01*
X90298902Y-107432309D02*
X90298902Y-106932309D01*
X90298902Y-106932309D02*
X90251283Y-107003738D01*
X90251283Y-107003738D02*
X90203664Y-107051357D01*
X90203664Y-107051357D02*
X90156045Y-107075166D01*
X81401283Y-47041833D02*
X81782236Y-47041833D01*
X81591759Y-47232309D02*
X81591759Y-46851357D01*
X92101283Y-73034690D02*
X92125093Y-73058500D01*
X92125093Y-73058500D02*
X92101283Y-73082309D01*
X92101283Y-73082309D02*
X92077474Y-73058500D01*
X92077474Y-73058500D02*
X92101283Y-73034690D01*
X92101283Y-73034690D02*
X92101283Y-73082309D01*
X93151283Y-47041833D02*
X93532236Y-47041833D01*
X93341759Y-47232309D02*
X93341759Y-46851357D01*
X77977474Y-89489452D02*
X78215569Y-89489452D01*
X77929855Y-89632309D02*
X78096521Y-89132309D01*
X78096521Y-89132309D02*
X78263188Y-89632309D01*
X78691759Y-89632309D02*
X78406045Y-89632309D01*
X78548902Y-89632309D02*
X78548902Y-89132309D01*
X78548902Y-89132309D02*
X78501283Y-89203738D01*
X78501283Y-89203738D02*
X78453664Y-89251357D01*
X78453664Y-89251357D02*
X78406045Y-89275166D01*
X54477474Y-53889452D02*
X54715569Y-53889452D01*
X54429855Y-54032309D02*
X54596521Y-53532309D01*
X54596521Y-53532309D02*
X54763188Y-54032309D01*
X55191759Y-54032309D02*
X54906045Y-54032309D01*
X55048902Y-54032309D02*
X55048902Y-53532309D01*
X55048902Y-53532309D02*
X55001283Y-53603738D01*
X55001283Y-53603738D02*
X54953664Y-53651357D01*
X54953664Y-53651357D02*
X54906045Y-53675166D01*
X66227474Y-53889452D02*
X66465569Y-53889452D01*
X66179855Y-54032309D02*
X66346521Y-53532309D01*
X66346521Y-53532309D02*
X66513188Y-54032309D01*
X66941759Y-54032309D02*
X66656045Y-54032309D01*
X66798902Y-54032309D02*
X66798902Y-53532309D01*
X66798902Y-53532309D02*
X66751283Y-53603738D01*
X66751283Y-53603738D02*
X66703664Y-53651357D01*
X66703664Y-53651357D02*
X66656045Y-53675166D01*
D12*
X59060000Y-100922164D02*
X59060000Y-101137836D01*
X58340000Y-100922164D02*
X58340000Y-101137836D01*
X92475600Y-53528900D02*
X92475600Y-55561100D01*
X92475600Y-55561100D02*
X94169400Y-55561100D01*
X94169400Y-53528900D02*
X92475600Y-53528900D01*
X94169400Y-55561100D02*
X94169400Y-53528900D01*
X92329363Y-53325700D02*
G75*
G03*
X92329363Y-53325700I-107763J0D01*
G01*
X80725600Y-80228900D02*
X80725600Y-82261100D01*
X80725600Y-82261100D02*
X82419400Y-82261100D01*
X82419400Y-80228900D02*
X80725600Y-80228900D01*
X82419400Y-82261100D02*
X82419400Y-80228900D01*
X80579363Y-80025700D02*
G75*
G03*
X80579363Y-80025700I-107763J0D01*
G01*
X80725600Y-89128900D02*
X80725600Y-91161100D01*
X80725600Y-91161100D02*
X82419400Y-91161100D01*
X82419400Y-89128900D02*
X80725600Y-89128900D01*
X82419400Y-91161100D02*
X82419400Y-89128900D01*
X80579363Y-88925700D02*
G75*
G03*
X80579363Y-88925700I-107763J0D01*
G01*
X80725600Y-53528900D02*
X80725600Y-55561100D01*
X80725600Y-55561100D02*
X82419400Y-55561100D01*
X82419400Y-53528900D02*
X80725600Y-53528900D01*
X82419400Y-55561100D02*
X82419400Y-53528900D01*
X80579363Y-53325700D02*
G75*
G03*
X80579363Y-53325700I-107763J0D01*
G01*
X92475600Y-44628900D02*
X92475600Y-46661100D01*
X92475600Y-46661100D02*
X94169400Y-46661100D01*
X94169400Y-44628900D02*
X92475600Y-44628900D01*
X94169400Y-46661100D02*
X94169400Y-44628900D01*
X92329363Y-44425700D02*
G75*
G03*
X92329363Y-44425700I-107763J0D01*
G01*
X57225600Y-106928900D02*
X57225600Y-108961100D01*
X57225600Y-108961100D02*
X58919400Y-108961100D01*
X58919400Y-106928900D02*
X57225600Y-106928900D01*
X58919400Y-108961100D02*
X58919400Y-106928900D01*
X57079363Y-106725700D02*
G75*
G03*
X57079363Y-106725700I-107763J0D01*
G01*
X68975600Y-98028900D02*
X68975600Y-100061100D01*
X68975600Y-100061100D02*
X70669400Y-100061100D01*
X70669400Y-98028900D02*
X68975600Y-98028900D01*
X70669400Y-100061100D02*
X70669400Y-98028900D01*
X68829363Y-97825700D02*
G75*
G03*
X68829363Y-97825700I-107763J0D01*
G01*
X80725600Y-106928900D02*
X80725600Y-108961100D01*
X80725600Y-108961100D02*
X82419400Y-108961100D01*
X82419400Y-106928900D02*
X80725600Y-106928900D01*
X82419400Y-108961100D02*
X82419400Y-106928900D01*
X80579363Y-106725700D02*
G75*
G03*
X80579363Y-106725700I-107763J0D01*
G01*
X70810000Y-56422164D02*
X70810000Y-56637836D01*
X70090000Y-56422164D02*
X70090000Y-56637836D01*
X92475600Y-98028900D02*
X92475600Y-100061100D01*
X92475600Y-100061100D02*
X94169400Y-100061100D01*
X94169400Y-98028900D02*
X92475600Y-98028900D01*
X94169400Y-100061100D02*
X94169400Y-98028900D01*
X92329363Y-97825700D02*
G75*
G03*
X92329363Y-97825700I-107763J0D01*
G01*
X57225600Y-98028900D02*
X57225600Y-100061100D01*
X57225600Y-100061100D02*
X58919400Y-100061100D01*
X58919400Y-98028900D02*
X57225600Y-98028900D01*
X58919400Y-100061100D02*
X58919400Y-98028900D01*
X57079363Y-97825700D02*
G75*
G03*
X57079363Y-97825700I-107763J0D01*
G01*
X82560000Y-109822164D02*
X82560000Y-110037836D01*
X81840000Y-109822164D02*
X81840000Y-110037836D01*
X82560000Y-92022164D02*
X82560000Y-92237836D01*
X81840000Y-92022164D02*
X81840000Y-92237836D01*
X80725600Y-71328900D02*
X80725600Y-73361100D01*
X80725600Y-73361100D02*
X82419400Y-73361100D01*
X82419400Y-71328900D02*
X80725600Y-71328900D01*
X82419400Y-73361100D02*
X82419400Y-71328900D01*
X80579363Y-71125700D02*
G75*
G03*
X80579363Y-71125700I-107763J0D01*
G01*
X68975600Y-53528900D02*
X68975600Y-55561100D01*
X68975600Y-55561100D02*
X70669400Y-55561100D01*
X70669400Y-53528900D02*
X68975600Y-53528900D01*
X70669400Y-55561100D02*
X70669400Y-53528900D01*
X68829363Y-53325700D02*
G75*
G03*
X68829363Y-53325700I-107763J0D01*
G01*
X82560000Y-65322164D02*
X82560000Y-65537836D01*
X81840000Y-65322164D02*
X81840000Y-65537836D01*
X70810000Y-100922164D02*
X70810000Y-101137836D01*
X70090000Y-100922164D02*
X70090000Y-101137836D01*
X57225600Y-62428900D02*
X57225600Y-64461100D01*
X57225600Y-64461100D02*
X58919400Y-64461100D01*
X58919400Y-62428900D02*
X57225600Y-62428900D01*
X58919400Y-64461100D02*
X58919400Y-62428900D01*
X57079363Y-62225700D02*
G75*
G03*
X57079363Y-62225700I-107763J0D01*
G01*
X59060000Y-92022164D02*
X59060000Y-92237836D01*
X58340000Y-92022164D02*
X58340000Y-92237836D01*
X80725600Y-44628900D02*
X80725600Y-46661100D01*
X80725600Y-46661100D02*
X82419400Y-46661100D01*
X82419400Y-44628900D02*
X80725600Y-44628900D01*
X82419400Y-46661100D02*
X82419400Y-44628900D01*
X80579363Y-44425700D02*
G75*
G03*
X80579363Y-44425700I-107763J0D01*
G01*
X70810000Y-65322164D02*
X70810000Y-65537836D01*
X70090000Y-65322164D02*
X70090000Y-65537836D01*
X82560000Y-56422164D02*
X82560000Y-56637836D01*
X81840000Y-56422164D02*
X81840000Y-56637836D01*
X82560000Y-83122164D02*
X82560000Y-83337836D01*
X81840000Y-83122164D02*
X81840000Y-83337836D01*
X59060000Y-83122164D02*
X59060000Y-83337836D01*
X58340000Y-83122164D02*
X58340000Y-83337836D01*
X92475600Y-89128900D02*
X92475600Y-91161100D01*
X92475600Y-91161100D02*
X94169400Y-91161100D01*
X94169400Y-89128900D02*
X92475600Y-89128900D01*
X94169400Y-91161100D02*
X94169400Y-89128900D01*
X92329363Y-88925700D02*
G75*
G03*
X92329363Y-88925700I-107763J0D01*
G01*
X59060000Y-65322164D02*
X59060000Y-65537836D01*
X58340000Y-65322164D02*
X58340000Y-65537836D01*
X94310000Y-74222164D02*
X94310000Y-74437836D01*
X93590000Y-74222164D02*
X93590000Y-74437836D01*
X70810000Y-109822164D02*
X70810000Y-110037836D01*
X70090000Y-109822164D02*
X70090000Y-110037836D01*
X92475600Y-62428900D02*
X92475600Y-64461100D01*
X92475600Y-64461100D02*
X94169400Y-64461100D01*
X94169400Y-62428900D02*
X92475600Y-62428900D01*
X94169400Y-64461100D02*
X94169400Y-62428900D01*
X92329363Y-62225700D02*
G75*
G03*
X92329363Y-62225700I-107763J0D01*
G01*
X59060000Y-74222164D02*
X59060000Y-74437836D01*
X58340000Y-74222164D02*
X58340000Y-74437836D01*
X70810000Y-83122164D02*
X70810000Y-83337836D01*
X70090000Y-83122164D02*
X70090000Y-83337836D01*
X57225600Y-71328900D02*
X57225600Y-73361100D01*
X57225600Y-73361100D02*
X58919400Y-73361100D01*
X58919400Y-71328900D02*
X57225600Y-71328900D01*
X58919400Y-73361100D02*
X58919400Y-71328900D01*
X57079363Y-71125700D02*
G75*
G03*
X57079363Y-71125700I-107763J0D01*
G01*
X57225600Y-89128900D02*
X57225600Y-91161100D01*
X57225600Y-91161100D02*
X58919400Y-91161100D01*
X58919400Y-89128900D02*
X57225600Y-89128900D01*
X58919400Y-91161100D02*
X58919400Y-89128900D01*
X57079363Y-88925700D02*
G75*
G03*
X57079363Y-88925700I-107763J0D01*
G01*
X68975600Y-106928900D02*
X68975600Y-108961100D01*
X68975600Y-108961100D02*
X70669400Y-108961100D01*
X70669400Y-106928900D02*
X68975600Y-106928900D01*
X70669400Y-108961100D02*
X70669400Y-106928900D01*
X68829363Y-106725700D02*
G75*
G03*
X68829363Y-106725700I-107763J0D01*
G01*
X68975600Y-89128900D02*
X68975600Y-91161100D01*
X68975600Y-91161100D02*
X70669400Y-91161100D01*
X70669400Y-89128900D02*
X68975600Y-89128900D01*
X70669400Y-91161100D02*
X70669400Y-89128900D01*
X68829363Y-88925700D02*
G75*
G03*
X68829363Y-88925700I-107763J0D01*
G01*
X59060000Y-56422164D02*
X59060000Y-56637836D01*
X58340000Y-56422164D02*
X58340000Y-56637836D01*
X68975600Y-44628900D02*
X68975600Y-46661100D01*
X68975600Y-46661100D02*
X70669400Y-46661100D01*
X70669400Y-44628900D02*
X68975600Y-44628900D01*
X70669400Y-46661100D02*
X70669400Y-44628900D01*
X68829363Y-44425700D02*
G75*
G03*
X68829363Y-44425700I-107763J0D01*
G01*
X57225600Y-53528900D02*
X57225600Y-55561100D01*
X57225600Y-55561100D02*
X58919400Y-55561100D01*
X58919400Y-53528900D02*
X57225600Y-53528900D01*
X58919400Y-55561100D02*
X58919400Y-53528900D01*
X57079363Y-53325700D02*
G75*
G03*
X57079363Y-53325700I-107763J0D01*
G01*
X68975600Y-80228900D02*
X68975600Y-82261100D01*
X68975600Y-82261100D02*
X70669400Y-82261100D01*
X70669400Y-80228900D02*
X68975600Y-80228900D01*
X70669400Y-82261100D02*
X70669400Y-80228900D01*
X68829363Y-80025700D02*
G75*
G03*
X68829363Y-80025700I-107763J0D01*
G01*
X80725600Y-98028900D02*
X80725600Y-100061100D01*
X80725600Y-100061100D02*
X82419400Y-100061100D01*
X82419400Y-98028900D02*
X80725600Y-98028900D01*
X82419400Y-100061100D02*
X82419400Y-98028900D01*
X80579363Y-97825700D02*
G75*
G03*
X80579363Y-97825700I-107763J0D01*
G01*
X82560000Y-74222164D02*
X82560000Y-74437836D01*
X81840000Y-74222164D02*
X81840000Y-74437836D01*
X94310000Y-83122164D02*
X94310000Y-83337836D01*
X93590000Y-83122164D02*
X93590000Y-83337836D01*
X68975600Y-62428900D02*
X68975600Y-64461100D01*
X68975600Y-64461100D02*
X70669400Y-64461100D01*
X70669400Y-62428900D02*
X68975600Y-62428900D01*
X70669400Y-64461100D02*
X70669400Y-62428900D01*
X68829363Y-62225700D02*
G75*
G03*
X68829363Y-62225700I-107763J0D01*
G01*
X59060000Y-109822164D02*
X59060000Y-110037836D01*
X58340000Y-109822164D02*
X58340000Y-110037836D01*
X70810000Y-92022164D02*
X70810000Y-92237836D01*
X70090000Y-92022164D02*
X70090000Y-92237836D01*
X68975600Y-71328900D02*
X68975600Y-73361100D01*
X68975600Y-73361100D02*
X70669400Y-73361100D01*
X70669400Y-71328900D02*
X68975600Y-71328900D01*
X70669400Y-73361100D02*
X70669400Y-71328900D01*
X68829363Y-71125700D02*
G75*
G03*
X68829363Y-71125700I-107763J0D01*
G01*
X92475600Y-106928900D02*
X92475600Y-108961100D01*
X92475600Y-108961100D02*
X94169400Y-108961100D01*
X94169400Y-106928900D02*
X92475600Y-106928900D01*
X94169400Y-108961100D02*
X94169400Y-106928900D01*
X92329363Y-106725700D02*
G75*
G03*
X92329363Y-106725700I-107763J0D01*
G01*
X92475600Y-71328900D02*
X92475600Y-73361100D01*
X92475600Y-73361100D02*
X94169400Y-73361100D01*
X94169400Y-71328900D02*
X92475600Y-71328900D01*
X94169400Y-73361100D02*
X94169400Y-71328900D01*
X92329363Y-71125700D02*
G75*
G03*
X92329363Y-71125700I-107763J0D01*
G01*
X92475600Y-80228900D02*
X92475600Y-82261100D01*
X92475600Y-82261100D02*
X94169400Y-82261100D01*
X94169400Y-80228900D02*
X92475600Y-80228900D01*
X94169400Y-82261100D02*
X94169400Y-80228900D01*
X92329363Y-80025700D02*
G75*
G03*
X92329363Y-80025700I-107763J0D01*
G01*
X80725600Y-62428900D02*
X80725600Y-64461100D01*
X80725600Y-64461100D02*
X82419400Y-64461100D01*
X82419400Y-62428900D02*
X80725600Y-62428900D01*
X82419400Y-64461100D02*
X82419400Y-62428900D01*
X80579363Y-62225700D02*
G75*
G03*
X80579363Y-62225700I-107763J0D01*
G01*
X82560000Y-100922164D02*
X82560000Y-101137836D01*
X81840000Y-100922164D02*
X81840000Y-101137836D01*
X94310000Y-56422164D02*
X94310000Y-56637836D01*
X93590000Y-56422164D02*
X93590000Y-56637836D01*
X70810000Y-74222164D02*
X70810000Y-74437836D01*
X70090000Y-74222164D02*
X70090000Y-74437836D01*
X70810000Y-47522164D02*
X70810000Y-47737836D01*
X70090000Y-47522164D02*
X70090000Y-47737836D01*
X94310000Y-47522164D02*
X94310000Y-47737836D01*
X93590000Y-47522164D02*
X93590000Y-47737836D01*
X82560000Y-47522164D02*
X82560000Y-47737836D01*
X81840000Y-47522164D02*
X81840000Y-47737836D01*
X57225600Y-44628900D02*
X57225600Y-46661100D01*
X57225600Y-46661100D02*
X58919400Y-46661100D01*
X58919400Y-44628900D02*
X57225600Y-44628900D01*
X58919400Y-46661100D02*
X58919400Y-44628900D01*
X57079363Y-44425700D02*
G75*
G03*
X57079363Y-44425700I-107763J0D01*
G01*
X94310000Y-65322164D02*
X94310000Y-65537836D01*
X93590000Y-65322164D02*
X93590000Y-65537836D01*
X94310000Y-109822164D02*
X94310000Y-110037836D01*
X93590000Y-109822164D02*
X93590000Y-110037836D01*
X59060000Y-47522164D02*
X59060000Y-47737836D01*
X58340000Y-47522164D02*
X58340000Y-47737836D01*
X94310000Y-100922164D02*
X94310000Y-101137836D01*
X93590000Y-100922164D02*
X93590000Y-101137836D01*
X94310000Y-92022164D02*
X94310000Y-92237836D01*
X93590000Y-92022164D02*
X93590000Y-92237836D01*
X57225600Y-80228900D02*
X57225600Y-82261100D01*
X57225600Y-82261100D02*
X58919400Y-82261100D01*
X58919400Y-80228900D02*
X57225600Y-80228900D01*
X58919400Y-82261100D02*
X58919400Y-80228900D01*
X57079363Y-80025700D02*
G75*
G03*
X57079363Y-80025700I-107763J0D01*
G01*
%LPC*%
D13*
X63600000Y-77950000D03*
X63600000Y-78950000D03*
X63600000Y-79950000D03*
X63600000Y-80950000D03*
X63600000Y-81950000D03*
X63600000Y-82950000D03*
X63600000Y-83950000D03*
X63600000Y-84950000D03*
X98850000Y-51250000D03*
X98850000Y-52250000D03*
X98850000Y-53250000D03*
X98850000Y-54250000D03*
X98850000Y-55250000D03*
X98850000Y-56250000D03*
X98850000Y-57250000D03*
X98850000Y-58250000D03*
D14*
X81100000Y-92800000D03*
D15*
X58700000Y-100550000D03*
X58700000Y-101510000D03*
D13*
X87100000Y-51250000D03*
X87100000Y-52250000D03*
X87100000Y-53250000D03*
X87100000Y-54250000D03*
X87100000Y-55250000D03*
X87100000Y-56250000D03*
X87100000Y-57250000D03*
X87100000Y-58250000D03*
D16*
X91960000Y-100090000D03*
X91160000Y-100090000D03*
X91160000Y-100790000D03*
X91960000Y-100790000D03*
D17*
X91350000Y-107350000D03*
D18*
X92700000Y-53750000D03*
X93300000Y-53750000D03*
X93900000Y-53750000D03*
X93600000Y-54000000D03*
X92700000Y-54250000D03*
X93300000Y-54250000D03*
X93900000Y-54250000D03*
X93000000Y-54500000D03*
X93600000Y-54500000D03*
X92700000Y-54750000D03*
X93300000Y-54750000D03*
X93900000Y-54750000D03*
X93000000Y-55000000D03*
X93600000Y-55000000D03*
X92700000Y-55250000D03*
X93300000Y-55250000D03*
X93900000Y-55250000D03*
X80950000Y-80450000D03*
X81550000Y-80450000D03*
X82150000Y-80450000D03*
X81850000Y-80700000D03*
X80950000Y-80950000D03*
X81550000Y-80950000D03*
X82150000Y-80950000D03*
X81250000Y-81200000D03*
X81850000Y-81200000D03*
X80950000Y-81450000D03*
X81550000Y-81450000D03*
X82150000Y-81450000D03*
X81250000Y-81700000D03*
X81850000Y-81700000D03*
X80950000Y-81950000D03*
X81550000Y-81950000D03*
X82150000Y-81950000D03*
D17*
X91350000Y-98450000D03*
D13*
X87100000Y-77950000D03*
X87100000Y-78950000D03*
X87100000Y-79950000D03*
X87100000Y-80950000D03*
X87100000Y-81950000D03*
X87100000Y-82950000D03*
X87100000Y-83950000D03*
X87100000Y-84950000D03*
D14*
X69350000Y-83900000D03*
X91550000Y-110600000D03*
X69350000Y-92800000D03*
X92850000Y-92800000D03*
D17*
X67850000Y-98450000D03*
X56100000Y-53950000D03*
D18*
X80950000Y-89350000D03*
X81550000Y-89350000D03*
X82150000Y-89350000D03*
X81850000Y-89600000D03*
X80950000Y-89850000D03*
X81550000Y-89850000D03*
X82150000Y-89850000D03*
X81250000Y-90100000D03*
X81850000Y-90100000D03*
X80950000Y-90350000D03*
X81550000Y-90350000D03*
X82150000Y-90350000D03*
X81250000Y-90600000D03*
X81850000Y-90600000D03*
X80950000Y-90850000D03*
X81550000Y-90850000D03*
X82150000Y-90850000D03*
D14*
X57600000Y-83900000D03*
X68050000Y-110600000D03*
D16*
X68460000Y-82290000D03*
X67660000Y-82290000D03*
X67660000Y-82990000D03*
X68460000Y-82990000D03*
X80210000Y-46690000D03*
X79410000Y-46690000D03*
X79410000Y-47390000D03*
X80210000Y-47390000D03*
D17*
X67850000Y-53950000D03*
D18*
X80950000Y-53750000D03*
X81550000Y-53750000D03*
X82150000Y-53750000D03*
X81850000Y-54000000D03*
X80950000Y-54250000D03*
X81550000Y-54250000D03*
X82150000Y-54250000D03*
X81250000Y-54500000D03*
X81850000Y-54500000D03*
X80950000Y-54750000D03*
X81550000Y-54750000D03*
X82150000Y-54750000D03*
X81250000Y-55000000D03*
X81850000Y-55000000D03*
X80950000Y-55250000D03*
X81550000Y-55250000D03*
X82150000Y-55250000D03*
X92700000Y-44850000D03*
X93300000Y-44850000D03*
X93900000Y-44850000D03*
X93600000Y-45100000D03*
X92700000Y-45350000D03*
X93300000Y-45350000D03*
X93900000Y-45350000D03*
X93000000Y-45600000D03*
X93600000Y-45600000D03*
X92700000Y-45850000D03*
X93300000Y-45850000D03*
X93900000Y-45850000D03*
X93000000Y-46100000D03*
X93600000Y-46100000D03*
X92700000Y-46350000D03*
X93300000Y-46350000D03*
X93900000Y-46350000D03*
D17*
X91350000Y-62850000D03*
D14*
X81100000Y-75000000D03*
D18*
X57450000Y-107150000D03*
X58050000Y-107150000D03*
X58650000Y-107150000D03*
X58350000Y-107400000D03*
X57450000Y-107650000D03*
X58050000Y-107650000D03*
X58650000Y-107650000D03*
X57750000Y-107900000D03*
X58350000Y-107900000D03*
X57450000Y-108150000D03*
X58050000Y-108150000D03*
X58650000Y-108150000D03*
X57750000Y-108400000D03*
X58350000Y-108400000D03*
X57450000Y-108650000D03*
X58050000Y-108650000D03*
X58650000Y-108650000D03*
D14*
X79800000Y-57200000D03*
D18*
X69200000Y-98250000D03*
X69800000Y-98250000D03*
X70400000Y-98250000D03*
X70100000Y-98500000D03*
X69200000Y-98750000D03*
X69800000Y-98750000D03*
X70400000Y-98750000D03*
X69500000Y-99000000D03*
X70100000Y-99000000D03*
X69200000Y-99250000D03*
X69800000Y-99250000D03*
X70400000Y-99250000D03*
X69500000Y-99500000D03*
X70100000Y-99500000D03*
X69200000Y-99750000D03*
X69800000Y-99750000D03*
X70400000Y-99750000D03*
D13*
X63600000Y-51250000D03*
X63600000Y-52250000D03*
X63600000Y-53250000D03*
X63600000Y-54250000D03*
X63600000Y-55250000D03*
X63600000Y-56250000D03*
X63600000Y-57250000D03*
X63600000Y-58250000D03*
D17*
X56100000Y-80650000D03*
D13*
X63600000Y-42350000D03*
X63600000Y-43350000D03*
X63600000Y-44350000D03*
X63600000Y-45350000D03*
X63600000Y-46350000D03*
X63600000Y-47350000D03*
X63600000Y-48350000D03*
X63600000Y-49350000D03*
D14*
X81100000Y-66100000D03*
X56300000Y-66100000D03*
D18*
X80950000Y-107150000D03*
X81550000Y-107150000D03*
X82150000Y-107150000D03*
X81850000Y-107400000D03*
X80950000Y-107650000D03*
X81550000Y-107650000D03*
X82150000Y-107650000D03*
X81250000Y-107900000D03*
X81850000Y-107900000D03*
X80950000Y-108150000D03*
X81550000Y-108150000D03*
X82150000Y-108150000D03*
X81250000Y-108400000D03*
X81850000Y-108400000D03*
X80950000Y-108650000D03*
X81550000Y-108650000D03*
X82150000Y-108650000D03*
D14*
X69350000Y-57200000D03*
X57600000Y-92800000D03*
D15*
X70450000Y-56050000D03*
X70450000Y-57010000D03*
D14*
X68050000Y-83900000D03*
D16*
X56710000Y-46690000D03*
X55910000Y-46690000D03*
X55910000Y-47390000D03*
X56710000Y-47390000D03*
D14*
X56300000Y-101700000D03*
D18*
X92700000Y-98250000D03*
X93300000Y-98250000D03*
X93900000Y-98250000D03*
X93600000Y-98500000D03*
X92700000Y-98750000D03*
X93300000Y-98750000D03*
X93900000Y-98750000D03*
X93000000Y-99000000D03*
X93600000Y-99000000D03*
X92700000Y-99250000D03*
X93300000Y-99250000D03*
X93900000Y-99250000D03*
X93000000Y-99500000D03*
X93600000Y-99500000D03*
X92700000Y-99750000D03*
X93300000Y-99750000D03*
X93900000Y-99750000D03*
D16*
X56710000Y-64490000D03*
X55910000Y-64490000D03*
X55910000Y-65190000D03*
X56710000Y-65190000D03*
D18*
X57450000Y-98250000D03*
X58050000Y-98250000D03*
X58650000Y-98250000D03*
X58350000Y-98500000D03*
X57450000Y-98750000D03*
X58050000Y-98750000D03*
X58650000Y-98750000D03*
X57750000Y-99000000D03*
X58350000Y-99000000D03*
X57450000Y-99250000D03*
X58050000Y-99250000D03*
X58650000Y-99250000D03*
X57750000Y-99500000D03*
X58350000Y-99500000D03*
X57450000Y-99750000D03*
X58050000Y-99750000D03*
X58650000Y-99750000D03*
D15*
X82200000Y-109450000D03*
X82200000Y-110410000D03*
X82200000Y-91650000D03*
X82200000Y-92610000D03*
D17*
X67850000Y-45050000D03*
D14*
X91550000Y-83900000D03*
D17*
X79600000Y-71750000D03*
D18*
X80950000Y-71550000D03*
X81550000Y-71550000D03*
X82150000Y-71550000D03*
X81850000Y-71800000D03*
X80950000Y-72050000D03*
X81550000Y-72050000D03*
X82150000Y-72050000D03*
X81250000Y-72300000D03*
X81850000Y-72300000D03*
X80950000Y-72550000D03*
X81550000Y-72550000D03*
X82150000Y-72550000D03*
X81250000Y-72800000D03*
X81850000Y-72800000D03*
X80950000Y-73050000D03*
X81550000Y-73050000D03*
X82150000Y-73050000D03*
X69200000Y-53750000D03*
X69800000Y-53750000D03*
X70400000Y-53750000D03*
X70100000Y-54000000D03*
X69200000Y-54250000D03*
X69800000Y-54250000D03*
X70400000Y-54250000D03*
X69500000Y-54500000D03*
X70100000Y-54500000D03*
X69200000Y-54750000D03*
X69800000Y-54750000D03*
X70400000Y-54750000D03*
X69500000Y-55000000D03*
X70100000Y-55000000D03*
X69200000Y-55250000D03*
X69800000Y-55250000D03*
X70400000Y-55250000D03*
D13*
X75350000Y-95750000D03*
X75350000Y-96750000D03*
X75350000Y-97750000D03*
X75350000Y-98750000D03*
X75350000Y-99750000D03*
X75350000Y-100750000D03*
X75350000Y-101750000D03*
X75350000Y-102750000D03*
D14*
X68050000Y-48300000D03*
D17*
X67850000Y-62850000D03*
D15*
X82200000Y-64950000D03*
X82200000Y-65910000D03*
D14*
X81100000Y-48300000D03*
D16*
X80210000Y-82290000D03*
X79410000Y-82290000D03*
X79410000Y-82990000D03*
X80210000Y-82990000D03*
D14*
X91550000Y-57200000D03*
D13*
X98850000Y-104650000D03*
X98850000Y-105650000D03*
X98850000Y-106650000D03*
X98850000Y-107650000D03*
X98850000Y-108650000D03*
X98850000Y-109650000D03*
X98850000Y-110650000D03*
X98850000Y-111650000D03*
D16*
X68460000Y-100090000D03*
X67660000Y-100090000D03*
X67660000Y-100790000D03*
X68460000Y-100790000D03*
D14*
X56300000Y-92800000D03*
D17*
X56100000Y-89550000D03*
D14*
X79800000Y-66100000D03*
D16*
X68460000Y-64490000D03*
X67660000Y-64490000D03*
X67660000Y-65190000D03*
X68460000Y-65190000D03*
D17*
X91350000Y-53950000D03*
D14*
X92850000Y-75000000D03*
D16*
X56710000Y-108990000D03*
X55910000Y-108990000D03*
X55910000Y-109690000D03*
X56710000Y-109690000D03*
D15*
X70450000Y-100550000D03*
X70450000Y-101510000D03*
D18*
X57450000Y-62650000D03*
X58050000Y-62650000D03*
X58650000Y-62650000D03*
X58350000Y-62900000D03*
X57450000Y-63150000D03*
X58050000Y-63150000D03*
X58650000Y-63150000D03*
X57750000Y-63400000D03*
X58350000Y-63400000D03*
X57450000Y-63650000D03*
X58050000Y-63650000D03*
X58650000Y-63650000D03*
X57750000Y-63900000D03*
X58350000Y-63900000D03*
X57450000Y-64150000D03*
X58050000Y-64150000D03*
X58650000Y-64150000D03*
D15*
X58700000Y-91650000D03*
X58700000Y-92610000D03*
D16*
X56710000Y-55590000D03*
X55910000Y-55590000D03*
X55910000Y-56290000D03*
X56710000Y-56290000D03*
D14*
X92850000Y-66100000D03*
D18*
X80950000Y-44850000D03*
X81550000Y-44850000D03*
X82150000Y-44850000D03*
X81850000Y-45100000D03*
X80950000Y-45350000D03*
X81550000Y-45350000D03*
X82150000Y-45350000D03*
X81250000Y-45600000D03*
X81850000Y-45600000D03*
X80950000Y-45850000D03*
X81550000Y-45850000D03*
X82150000Y-45850000D03*
X81250000Y-46100000D03*
X81850000Y-46100000D03*
X80950000Y-46350000D03*
X81550000Y-46350000D03*
X82150000Y-46350000D03*
D14*
X57600000Y-57200000D03*
D15*
X70450000Y-64950000D03*
X70450000Y-65910000D03*
D13*
X87100000Y-42350000D03*
X87100000Y-43350000D03*
X87100000Y-44350000D03*
X87100000Y-45350000D03*
X87100000Y-46350000D03*
X87100000Y-47350000D03*
X87100000Y-48350000D03*
X87100000Y-49350000D03*
D14*
X68050000Y-57200000D03*
X81100000Y-83900000D03*
D15*
X82200000Y-56050000D03*
X82200000Y-57010000D03*
X82200000Y-82750000D03*
X82200000Y-83710000D03*
X58700000Y-82750000D03*
X58700000Y-83710000D03*
D14*
X91550000Y-101700000D03*
D13*
X63600000Y-104650000D03*
X63600000Y-105650000D03*
X63600000Y-106650000D03*
X63600000Y-107650000D03*
X63600000Y-108650000D03*
X63600000Y-109650000D03*
X63600000Y-110650000D03*
X63600000Y-111650000D03*
D18*
X92700000Y-89350000D03*
X93300000Y-89350000D03*
X93900000Y-89350000D03*
X93600000Y-89600000D03*
X92700000Y-89850000D03*
X93300000Y-89850000D03*
X93900000Y-89850000D03*
X93000000Y-90100000D03*
X93600000Y-90100000D03*
X92700000Y-90350000D03*
X93300000Y-90350000D03*
X93900000Y-90350000D03*
X93000000Y-90600000D03*
X93600000Y-90600000D03*
X92700000Y-90850000D03*
X93300000Y-90850000D03*
X93900000Y-90850000D03*
D13*
X75350000Y-77950000D03*
X75350000Y-78950000D03*
X75350000Y-79950000D03*
X75350000Y-80950000D03*
X75350000Y-81950000D03*
X75350000Y-82950000D03*
X75350000Y-83950000D03*
X75350000Y-84950000D03*
D15*
X58700000Y-64950000D03*
X58700000Y-65910000D03*
X93950000Y-73850000D03*
X93950000Y-74810000D03*
X70450000Y-109450000D03*
X70450000Y-110410000D03*
D16*
X56710000Y-73390000D03*
X55910000Y-73390000D03*
X55910000Y-74090000D03*
X56710000Y-74090000D03*
D18*
X92700000Y-62650000D03*
X93300000Y-62650000D03*
X93900000Y-62650000D03*
X93600000Y-62900000D03*
X92700000Y-63150000D03*
X93300000Y-63150000D03*
X93900000Y-63150000D03*
X93000000Y-63400000D03*
X93600000Y-63400000D03*
X92700000Y-63650000D03*
X93300000Y-63650000D03*
X93900000Y-63650000D03*
X93000000Y-63900000D03*
X93600000Y-63900000D03*
X92700000Y-64150000D03*
X93300000Y-64150000D03*
X93900000Y-64150000D03*
D15*
X58700000Y-73850000D03*
X58700000Y-74810000D03*
D17*
X91350000Y-89550000D03*
X79600000Y-53950000D03*
X67850000Y-80650000D03*
D14*
X56300000Y-110600000D03*
D13*
X63600000Y-95750000D03*
X63600000Y-96750000D03*
X63600000Y-97750000D03*
X63600000Y-98750000D03*
X63600000Y-99750000D03*
X63600000Y-100750000D03*
X63600000Y-101750000D03*
X63600000Y-102750000D03*
D14*
X69350000Y-48300000D03*
X92850000Y-57200000D03*
D15*
X70450000Y-82750000D03*
X70450000Y-83710000D03*
D14*
X69350000Y-66100000D03*
D17*
X91350000Y-80650000D03*
D14*
X91550000Y-92800000D03*
D13*
X75350000Y-86850000D03*
X75350000Y-87850000D03*
X75350000Y-88850000D03*
X75350000Y-89850000D03*
X75350000Y-90850000D03*
X75350000Y-91850000D03*
X75350000Y-92850000D03*
X75350000Y-93850000D03*
X87100000Y-86850000D03*
X87100000Y-87850000D03*
X87100000Y-88850000D03*
X87100000Y-89850000D03*
X87100000Y-90850000D03*
X87100000Y-91850000D03*
X87100000Y-92850000D03*
X87100000Y-93850000D03*
D16*
X91960000Y-55590000D03*
X91160000Y-55590000D03*
X91160000Y-56290000D03*
X91960000Y-56290000D03*
D13*
X87100000Y-69050000D03*
X87100000Y-70050000D03*
X87100000Y-71050000D03*
X87100000Y-72050000D03*
X87100000Y-73050000D03*
X87100000Y-74050000D03*
X87100000Y-75050000D03*
X87100000Y-76050000D03*
D14*
X81100000Y-101700000D03*
D13*
X63600000Y-86850000D03*
X63600000Y-87850000D03*
X63600000Y-88850000D03*
X63600000Y-89850000D03*
X63600000Y-90850000D03*
X63600000Y-91850000D03*
X63600000Y-92850000D03*
X63600000Y-93850000D03*
D18*
X57450000Y-71550000D03*
X58050000Y-71550000D03*
X58650000Y-71550000D03*
X58350000Y-71800000D03*
X57450000Y-72050000D03*
X58050000Y-72050000D03*
X58650000Y-72050000D03*
X57750000Y-72300000D03*
X58350000Y-72300000D03*
X57450000Y-72550000D03*
X58050000Y-72550000D03*
X58650000Y-72550000D03*
X57750000Y-72800000D03*
X58350000Y-72800000D03*
X57450000Y-73050000D03*
X58050000Y-73050000D03*
X58650000Y-73050000D03*
D14*
X81100000Y-110600000D03*
X68050000Y-92800000D03*
D16*
X91960000Y-73390000D03*
X91160000Y-73390000D03*
X91160000Y-74090000D03*
X91960000Y-74090000D03*
D13*
X98850000Y-95750000D03*
X98850000Y-96750000D03*
X98850000Y-97750000D03*
X98850000Y-98750000D03*
X98850000Y-99750000D03*
X98850000Y-100750000D03*
X98850000Y-101750000D03*
X98850000Y-102750000D03*
D14*
X68050000Y-75000000D03*
D17*
X56100000Y-62850000D03*
D18*
X57450000Y-89350000D03*
X58050000Y-89350000D03*
X58650000Y-89350000D03*
X58350000Y-89600000D03*
X57450000Y-89850000D03*
X58050000Y-89850000D03*
X58650000Y-89850000D03*
X57750000Y-90100000D03*
X58350000Y-90100000D03*
X57450000Y-90350000D03*
X58050000Y-90350000D03*
X58650000Y-90350000D03*
X57750000Y-90600000D03*
X58350000Y-90600000D03*
X57450000Y-90850000D03*
X58050000Y-90850000D03*
X58650000Y-90850000D03*
D13*
X75350000Y-60150000D03*
X75350000Y-61150000D03*
X75350000Y-62150000D03*
X75350000Y-63150000D03*
X75350000Y-64150000D03*
X75350000Y-65150000D03*
X75350000Y-66150000D03*
X75350000Y-67150000D03*
D16*
X91960000Y-46690000D03*
X91160000Y-46690000D03*
X91160000Y-47390000D03*
X91960000Y-47390000D03*
D18*
X69200000Y-107150000D03*
X69800000Y-107150000D03*
X70400000Y-107150000D03*
X70100000Y-107400000D03*
X69200000Y-107650000D03*
X69800000Y-107650000D03*
X70400000Y-107650000D03*
X69500000Y-107900000D03*
X70100000Y-107900000D03*
X69200000Y-108150000D03*
X69800000Y-108150000D03*
X70400000Y-108150000D03*
X69500000Y-108400000D03*
X70100000Y-108400000D03*
X69200000Y-108650000D03*
X69800000Y-108650000D03*
X70400000Y-108650000D03*
D16*
X56710000Y-100090000D03*
X55910000Y-100090000D03*
X55910000Y-100790000D03*
X56710000Y-100790000D03*
X91960000Y-82290000D03*
X91160000Y-82290000D03*
X91160000Y-82990000D03*
X91960000Y-82990000D03*
D14*
X79800000Y-92800000D03*
D18*
X69200000Y-89350000D03*
X69800000Y-89350000D03*
X70400000Y-89350000D03*
X70100000Y-89600000D03*
X69200000Y-89850000D03*
X69800000Y-89850000D03*
X70400000Y-89850000D03*
X69500000Y-90100000D03*
X70100000Y-90100000D03*
X69200000Y-90350000D03*
X69800000Y-90350000D03*
X70400000Y-90350000D03*
X69500000Y-90600000D03*
X70100000Y-90600000D03*
X69200000Y-90850000D03*
X69800000Y-90850000D03*
X70400000Y-90850000D03*
D15*
X58700000Y-56050000D03*
X58700000Y-57010000D03*
D18*
X69200000Y-44850000D03*
X69800000Y-44850000D03*
X70400000Y-44850000D03*
X70100000Y-45100000D03*
X69200000Y-45350000D03*
X69800000Y-45350000D03*
X70400000Y-45350000D03*
X69500000Y-45600000D03*
X70100000Y-45600000D03*
X69200000Y-45850000D03*
X69800000Y-45850000D03*
X70400000Y-45850000D03*
X69500000Y-46100000D03*
X70100000Y-46100000D03*
X69200000Y-46350000D03*
X69800000Y-46350000D03*
X70400000Y-46350000D03*
D16*
X80210000Y-64490000D03*
X79410000Y-64490000D03*
X79410000Y-65190000D03*
X80210000Y-65190000D03*
D18*
X57450000Y-53750000D03*
X58050000Y-53750000D03*
X58650000Y-53750000D03*
X58350000Y-54000000D03*
X57450000Y-54250000D03*
X58050000Y-54250000D03*
X58650000Y-54250000D03*
X57750000Y-54500000D03*
X58350000Y-54500000D03*
X57450000Y-54750000D03*
X58050000Y-54750000D03*
X58650000Y-54750000D03*
X57750000Y-55000000D03*
X58350000Y-55000000D03*
X57450000Y-55250000D03*
X58050000Y-55250000D03*
X58650000Y-55250000D03*
D16*
X68460000Y-55590000D03*
X67660000Y-55590000D03*
X67660000Y-56290000D03*
X68460000Y-56290000D03*
D13*
X75350000Y-69050000D03*
X75350000Y-70050000D03*
X75350000Y-71050000D03*
X75350000Y-72050000D03*
X75350000Y-73050000D03*
X75350000Y-74050000D03*
X75350000Y-75050000D03*
X75350000Y-76050000D03*
D14*
X92850000Y-110600000D03*
D17*
X56100000Y-98450000D03*
D18*
X69200000Y-80450000D03*
X69800000Y-80450000D03*
X70400000Y-80450000D03*
X70100000Y-80700000D03*
X69200000Y-80950000D03*
X69800000Y-80950000D03*
X70400000Y-80950000D03*
X69500000Y-81200000D03*
X70100000Y-81200000D03*
X69200000Y-81450000D03*
X69800000Y-81450000D03*
X70400000Y-81450000D03*
X69500000Y-81700000D03*
X70100000Y-81700000D03*
X69200000Y-81950000D03*
X69800000Y-81950000D03*
X70400000Y-81950000D03*
X80950000Y-98250000D03*
X81550000Y-98250000D03*
X82150000Y-98250000D03*
X81850000Y-98500000D03*
X80950000Y-98750000D03*
X81550000Y-98750000D03*
X82150000Y-98750000D03*
X81250000Y-99000000D03*
X81850000Y-99000000D03*
X80950000Y-99250000D03*
X81550000Y-99250000D03*
X82150000Y-99250000D03*
X81250000Y-99500000D03*
X81850000Y-99500000D03*
X80950000Y-99750000D03*
X81550000Y-99750000D03*
X82150000Y-99750000D03*
D16*
X91960000Y-108990000D03*
X91160000Y-108990000D03*
X91160000Y-109690000D03*
X91960000Y-109690000D03*
D15*
X82200000Y-73850000D03*
X82200000Y-74810000D03*
D16*
X68460000Y-46690000D03*
X67660000Y-46690000D03*
X67660000Y-47390000D03*
X68460000Y-47390000D03*
D13*
X98850000Y-86850000D03*
X98850000Y-87850000D03*
X98850000Y-88850000D03*
X98850000Y-89850000D03*
X98850000Y-90850000D03*
X98850000Y-91850000D03*
X98850000Y-92850000D03*
X98850000Y-93850000D03*
D15*
X93950000Y-82750000D03*
X93950000Y-83710000D03*
D16*
X80210000Y-55590000D03*
X79410000Y-55590000D03*
X79410000Y-56290000D03*
X80210000Y-56290000D03*
D13*
X87100000Y-104650000D03*
X87100000Y-105650000D03*
X87100000Y-106650000D03*
X87100000Y-107650000D03*
X87100000Y-108650000D03*
X87100000Y-109650000D03*
X87100000Y-110650000D03*
X87100000Y-111650000D03*
D16*
X91960000Y-64490000D03*
X91160000Y-64490000D03*
X91160000Y-65190000D03*
X91960000Y-65190000D03*
D17*
X56100000Y-45050000D03*
D16*
X68460000Y-108990000D03*
X67660000Y-108990000D03*
X67660000Y-109690000D03*
X68460000Y-109690000D03*
D18*
X69200000Y-62650000D03*
X69800000Y-62650000D03*
X70400000Y-62650000D03*
X70100000Y-62900000D03*
X69200000Y-63150000D03*
X69800000Y-63150000D03*
X70400000Y-63150000D03*
X69500000Y-63400000D03*
X70100000Y-63400000D03*
X69200000Y-63650000D03*
X69800000Y-63650000D03*
X70400000Y-63650000D03*
X69500000Y-63900000D03*
X70100000Y-63900000D03*
X69200000Y-64150000D03*
X69800000Y-64150000D03*
X70400000Y-64150000D03*
D17*
X79600000Y-80650000D03*
D14*
X56300000Y-57200000D03*
D15*
X58700000Y-109450000D03*
X58700000Y-110410000D03*
X70450000Y-91650000D03*
X70450000Y-92610000D03*
D14*
X79800000Y-75000000D03*
D16*
X68460000Y-91190000D03*
X67660000Y-91190000D03*
X67660000Y-91890000D03*
X68460000Y-91890000D03*
X91960000Y-91190000D03*
X91160000Y-91190000D03*
X91160000Y-91890000D03*
X91960000Y-91890000D03*
D14*
X79800000Y-110600000D03*
D13*
X75350000Y-42350000D03*
X75350000Y-43350000D03*
X75350000Y-44350000D03*
X75350000Y-45350000D03*
X75350000Y-46350000D03*
X75350000Y-47350000D03*
X75350000Y-48350000D03*
X75350000Y-49350000D03*
D16*
X80210000Y-100090000D03*
X79410000Y-100090000D03*
X79410000Y-100790000D03*
X80210000Y-100790000D03*
D13*
X98850000Y-42350000D03*
X98850000Y-43350000D03*
X98850000Y-44350000D03*
X98850000Y-45350000D03*
X98850000Y-46350000D03*
X98850000Y-47350000D03*
X98850000Y-48350000D03*
X98850000Y-49350000D03*
D18*
X69200000Y-71550000D03*
X69800000Y-71550000D03*
X70400000Y-71550000D03*
X70100000Y-71800000D03*
X69200000Y-72050000D03*
X69800000Y-72050000D03*
X70400000Y-72050000D03*
X69500000Y-72300000D03*
X70100000Y-72300000D03*
X69200000Y-72550000D03*
X69800000Y-72550000D03*
X70400000Y-72550000D03*
X69500000Y-72800000D03*
X70100000Y-72800000D03*
X69200000Y-73050000D03*
X69800000Y-73050000D03*
X70400000Y-73050000D03*
X92700000Y-107150000D03*
X93300000Y-107150000D03*
X93900000Y-107150000D03*
X93600000Y-107400000D03*
X92700000Y-107650000D03*
X93300000Y-107650000D03*
X93900000Y-107650000D03*
X93000000Y-107900000D03*
X93600000Y-107900000D03*
X92700000Y-108150000D03*
X93300000Y-108150000D03*
X93900000Y-108150000D03*
X93000000Y-108400000D03*
X93600000Y-108400000D03*
X92700000Y-108650000D03*
X93300000Y-108650000D03*
X93900000Y-108650000D03*
X92700000Y-71550000D03*
X93300000Y-71550000D03*
X93900000Y-71550000D03*
X93600000Y-71800000D03*
X92700000Y-72050000D03*
X93300000Y-72050000D03*
X93900000Y-72050000D03*
X93000000Y-72300000D03*
X93600000Y-72300000D03*
X92700000Y-72550000D03*
X93300000Y-72550000D03*
X93900000Y-72550000D03*
X93000000Y-72800000D03*
X93600000Y-72800000D03*
X92700000Y-73050000D03*
X93300000Y-73050000D03*
X93900000Y-73050000D03*
X92700000Y-80450000D03*
X93300000Y-80450000D03*
X93900000Y-80450000D03*
X93600000Y-80700000D03*
X92700000Y-80950000D03*
X93300000Y-80950000D03*
X93900000Y-80950000D03*
X93000000Y-81200000D03*
X93600000Y-81200000D03*
X92700000Y-81450000D03*
X93300000Y-81450000D03*
X93900000Y-81450000D03*
X93000000Y-81700000D03*
X93600000Y-81700000D03*
X92700000Y-81950000D03*
X93300000Y-81950000D03*
X93900000Y-81950000D03*
D14*
X92850000Y-101700000D03*
X57600000Y-75000000D03*
D17*
X79600000Y-107350000D03*
D13*
X87100000Y-95750000D03*
X87100000Y-96750000D03*
X87100000Y-97750000D03*
X87100000Y-98750000D03*
X87100000Y-99750000D03*
X87100000Y-100750000D03*
X87100000Y-101750000D03*
X87100000Y-102750000D03*
D17*
X67850000Y-71750000D03*
X79600000Y-45050000D03*
D18*
X80950000Y-62650000D03*
X81550000Y-62650000D03*
X82150000Y-62650000D03*
X81850000Y-62900000D03*
X80950000Y-63150000D03*
X81550000Y-63150000D03*
X82150000Y-63150000D03*
X81250000Y-63400000D03*
X81850000Y-63400000D03*
X80950000Y-63650000D03*
X81550000Y-63650000D03*
X82150000Y-63650000D03*
X81250000Y-63900000D03*
X81850000Y-63900000D03*
X80950000Y-64150000D03*
X81550000Y-64150000D03*
X82150000Y-64150000D03*
D15*
X82200000Y-100550000D03*
X82200000Y-101510000D03*
X93950000Y-56050000D03*
X93950000Y-57010000D03*
X70450000Y-73850000D03*
X70450000Y-74810000D03*
D17*
X79600000Y-62850000D03*
D13*
X63600000Y-60150000D03*
X63600000Y-61150000D03*
X63600000Y-62150000D03*
X63600000Y-63150000D03*
X63600000Y-64150000D03*
X63600000Y-65150000D03*
X63600000Y-66150000D03*
X63600000Y-67150000D03*
D14*
X91550000Y-48300000D03*
X92850000Y-48300000D03*
X69350000Y-101700000D03*
D15*
X70450000Y-47150000D03*
X70450000Y-48110000D03*
X93950000Y-47150000D03*
X93950000Y-48110000D03*
D13*
X98850000Y-69050000D03*
X98850000Y-70050000D03*
X98850000Y-71050000D03*
X98850000Y-72050000D03*
X98850000Y-73050000D03*
X98850000Y-74050000D03*
X98850000Y-75050000D03*
X98850000Y-76050000D03*
D14*
X57600000Y-101700000D03*
X68050000Y-101700000D03*
D17*
X56100000Y-71750000D03*
D15*
X82200000Y-47150000D03*
X82200000Y-48110000D03*
D14*
X69350000Y-75000000D03*
D13*
X75350000Y-104650000D03*
X75350000Y-105650000D03*
X75350000Y-106650000D03*
X75350000Y-107650000D03*
X75350000Y-108650000D03*
X75350000Y-109650000D03*
X75350000Y-110650000D03*
X75350000Y-111650000D03*
D14*
X79800000Y-48300000D03*
D18*
X57450000Y-44850000D03*
X58050000Y-44850000D03*
X58650000Y-44850000D03*
X58350000Y-45100000D03*
X57450000Y-45350000D03*
X58050000Y-45350000D03*
X58650000Y-45350000D03*
X57750000Y-45600000D03*
X58350000Y-45600000D03*
X57450000Y-45850000D03*
X58050000Y-45850000D03*
X58650000Y-45850000D03*
X57750000Y-46100000D03*
X58350000Y-46100000D03*
X57450000Y-46350000D03*
X58050000Y-46350000D03*
X58650000Y-46350000D03*
D13*
X98850000Y-77950000D03*
X98850000Y-78950000D03*
X98850000Y-79950000D03*
X98850000Y-80950000D03*
X98850000Y-81950000D03*
X98850000Y-82950000D03*
X98850000Y-83950000D03*
X98850000Y-84950000D03*
D17*
X67850000Y-89550000D03*
D14*
X91550000Y-66100000D03*
D17*
X67850000Y-107350000D03*
D15*
X93950000Y-64950000D03*
X93950000Y-65910000D03*
D16*
X56710000Y-82290000D03*
X55910000Y-82290000D03*
X55910000Y-82990000D03*
X56710000Y-82990000D03*
D15*
X93950000Y-109450000D03*
X93950000Y-110410000D03*
D17*
X79600000Y-89550000D03*
D16*
X68460000Y-73390000D03*
X67660000Y-73390000D03*
X67660000Y-74090000D03*
X68460000Y-74090000D03*
D14*
X79800000Y-101700000D03*
X92850000Y-83900000D03*
D15*
X58700000Y-47150000D03*
X58700000Y-48110000D03*
D17*
X91350000Y-45050000D03*
D13*
X75350000Y-51250000D03*
X75350000Y-52250000D03*
X75350000Y-53250000D03*
X75350000Y-54250000D03*
X75350000Y-55250000D03*
X75350000Y-56250000D03*
X75350000Y-57250000D03*
X75350000Y-58250000D03*
D14*
X68050000Y-66100000D03*
D13*
X87100000Y-60150000D03*
X87100000Y-61150000D03*
X87100000Y-62150000D03*
X87100000Y-63150000D03*
X87100000Y-64150000D03*
X87100000Y-65150000D03*
X87100000Y-66150000D03*
X87100000Y-67150000D03*
D15*
X93950000Y-100550000D03*
X93950000Y-101510000D03*
D17*
X56100000Y-107350000D03*
D16*
X80210000Y-73390000D03*
X79410000Y-73390000D03*
X79410000Y-74090000D03*
X80210000Y-74090000D03*
D14*
X91550000Y-75000000D03*
D13*
X98850000Y-60150000D03*
X98850000Y-61150000D03*
X98850000Y-62150000D03*
X98850000Y-63150000D03*
X98850000Y-64150000D03*
X98850000Y-65150000D03*
X98850000Y-66150000D03*
X98850000Y-67150000D03*
D16*
X56710000Y-91190000D03*
X55910000Y-91190000D03*
X55910000Y-91890000D03*
X56710000Y-91890000D03*
D14*
X79800000Y-83900000D03*
X81100000Y-57200000D03*
X57600000Y-48300000D03*
X57600000Y-110600000D03*
X56300000Y-83900000D03*
X56300000Y-75000000D03*
D15*
X93950000Y-91650000D03*
X93950000Y-92610000D03*
D16*
X80210000Y-91190000D03*
X79410000Y-91190000D03*
X79410000Y-91890000D03*
X80210000Y-91890000D03*
D18*
X57450000Y-80450000D03*
X58050000Y-80450000D03*
X58650000Y-80450000D03*
X58350000Y-80700000D03*
X57450000Y-80950000D03*
X58050000Y-80950000D03*
X58650000Y-80950000D03*
X57750000Y-81200000D03*
X58350000Y-81200000D03*
X57450000Y-81450000D03*
X58050000Y-81450000D03*
X58650000Y-81450000D03*
X57750000Y-81700000D03*
X58350000Y-81700000D03*
X57450000Y-81950000D03*
X58050000Y-81950000D03*
X58650000Y-81950000D03*
D13*
X63600000Y-69050000D03*
X63600000Y-70050000D03*
X63600000Y-71050000D03*
X63600000Y-72050000D03*
X63600000Y-73050000D03*
X63600000Y-74050000D03*
X63600000Y-75050000D03*
X63600000Y-76050000D03*
D16*
X80210000Y-108990000D03*
X79410000Y-108990000D03*
X79410000Y-109690000D03*
X80210000Y-109690000D03*
D17*
X79600000Y-98450000D03*
D14*
X69350000Y-110600000D03*
X57600000Y-66100000D03*
D17*
X91350000Y-71750000D03*
D14*
X56300000Y-48300000D03*
%LPD*%
M02*
