M48
; DRILL file {KiCad 7.0.7-7.0.7~ubuntu22.04.1} date Fri 29 Mar 2024 17:56:03 GMT
; FORMAT={-:-/ absolute / metric / decimal}
; #@! TF.CreationDate,2024-03-29T17:56:03+00:00
; #@! TF.GenerationSoftware,Kicad,Pcbnew,7.0.7-7.0.7~ubuntu22.04.1
; #@! TF.FileFunction,Plated,1,2,PTH
FMAT,2
METRIC
; #@! TA.AperFunction,Plated,PTH,ViaDrill
T1C0.200
%
G90
G05
T1
X57.0Y-44.15
X57.0Y-53.05
X57.0Y-61.95
X57.0Y-70.85
X57.0Y-79.75
X57.0Y-88.65
X57.0Y-97.55
X57.0Y-106.45
X59.0Y-46.55
X59.0Y-55.45
X59.0Y-64.35
X59.0Y-73.25
X59.0Y-82.15
X59.0Y-91.05
X59.0Y-99.95
X59.0Y-108.85
X60.05Y-47.85
X60.05Y-56.75
X60.05Y-65.65
X60.05Y-74.55
X60.05Y-83.45
X60.05Y-92.35
X60.05Y-101.25
X60.05Y-110.15
X68.75Y-44.15
X68.75Y-53.05
X68.75Y-61.95
X68.75Y-70.85
X68.75Y-79.75
X68.75Y-88.65
X68.75Y-97.55
X68.75Y-106.45
X70.75Y-46.55
X70.75Y-55.45
X70.75Y-64.35
X70.75Y-73.25
X70.75Y-82.15
X70.75Y-91.05
X70.75Y-99.95
X70.75Y-108.85
X71.8Y-47.85
X71.8Y-56.75
X71.8Y-65.65
X71.8Y-74.55
X71.8Y-83.45
X71.8Y-92.35
X71.8Y-101.25
X71.8Y-110.15
X80.5Y-44.15
X80.5Y-53.05
X80.5Y-61.95
X80.5Y-70.85
X80.5Y-79.75
X80.5Y-88.65
X80.5Y-97.55
X80.5Y-106.45
X82.5Y-46.55
X82.5Y-55.45
X82.5Y-64.35
X82.5Y-73.25
X82.5Y-82.15
X82.5Y-91.05
X82.5Y-99.95
X82.5Y-108.85
X83.55Y-47.85
X83.55Y-56.75
X83.55Y-65.65
X83.55Y-74.55
X83.55Y-83.45
X83.55Y-92.35
X83.55Y-101.25
X83.55Y-110.15
X92.25Y-44.15
X92.25Y-53.05
X92.25Y-61.95
X92.25Y-70.85
X92.25Y-79.75
X92.25Y-88.65
X92.25Y-97.55
X92.25Y-106.45
X94.25Y-46.55
X94.25Y-55.45
X94.25Y-64.35
X94.25Y-73.25
X94.25Y-82.15
X94.25Y-91.05
X94.25Y-99.95
X94.25Y-108.85
X95.3Y-47.85
X95.3Y-56.75
X95.3Y-65.65
X95.3Y-74.55
X95.3Y-83.45
X95.3Y-92.35
X95.3Y-101.25
X95.3Y-110.15
T0
M30
