G04 #@! TF.GenerationSoftware,KiCad,Pcbnew,8.0.1*
G04 #@! TF.CreationDate,2025-05-19T13:24:42+01:00*
G04 #@! TF.ProjectId,receiver6,72656365-6976-4657-9236-2e6b69636164,rev?*
G04 #@! TF.SameCoordinates,Original*
G04 #@! TF.FileFunction,Soldermask,Top*
G04 #@! TF.FilePolarity,Negative*
%FSLAX46Y46*%
G04 Gerber Fmt 4.6, Leading zero omitted, Abs format (unit mm)*
G04 Created by KiCad (PCBNEW 8.0.1) date 2025-05-19 13:24:42*
%MOMM*%
%LPD*%
G01*
G04 APERTURE LIST*
G04 APERTURE END LIST*
G36*
X153639034Y-93505764D02*
G01*
X153666404Y-93524052D01*
X153733596Y-93524052D01*
X153760966Y-93505764D01*
X153800000Y-93498000D01*
X155200000Y-93498000D01*
X155239034Y-93505764D01*
X155272125Y-93527875D01*
X155294236Y-93560966D01*
X155302000Y-93600000D01*
X155302000Y-94800000D01*
X155294236Y-94839034D01*
X155272125Y-94872125D01*
X155239034Y-94894236D01*
X155200000Y-94902000D01*
X153800000Y-94902000D01*
X153760966Y-94894236D01*
X153733595Y-94875947D01*
X153666405Y-94875947D01*
X153639034Y-94894236D01*
X153600000Y-94902000D01*
X152200000Y-94902000D01*
X152160966Y-94894236D01*
X152127875Y-94872125D01*
X152105764Y-94839034D01*
X152098000Y-94800000D01*
X152098000Y-93600000D01*
X152105764Y-93560966D01*
X152127875Y-93527875D01*
X152160966Y-93505764D01*
X152200000Y-93498000D01*
X153600000Y-93498000D01*
X153639034Y-93505764D01*
G37*
G36*
X160969517Y-86602882D02*
G01*
X160986062Y-86613938D01*
X160997118Y-86630483D01*
X161001000Y-86650000D01*
X161001000Y-87350000D01*
X160997118Y-87369517D01*
X160986062Y-87386062D01*
X160969517Y-87397118D01*
X160963359Y-87398342D01*
X160911213Y-87433187D01*
X160911213Y-87566813D01*
X160963360Y-87601657D01*
X160969517Y-87602882D01*
X160986062Y-87613938D01*
X160997118Y-87630483D01*
X161001000Y-87650000D01*
X161001000Y-88350000D01*
X160997118Y-88369517D01*
X160986062Y-88386062D01*
X160969517Y-88397118D01*
X160963359Y-88398342D01*
X160911213Y-88433187D01*
X160911213Y-88566813D01*
X160963360Y-88601657D01*
X160969517Y-88602882D01*
X160986062Y-88613938D01*
X160997118Y-88630483D01*
X161001000Y-88650000D01*
X161001000Y-89350000D01*
X160997118Y-89369517D01*
X160986062Y-89386062D01*
X160969517Y-89397118D01*
X160963359Y-89398342D01*
X160911213Y-89433187D01*
X160911213Y-89566813D01*
X160963360Y-89601657D01*
X160969517Y-89602882D01*
X160986062Y-89613938D01*
X160997118Y-89630483D01*
X161001000Y-89650000D01*
X161001000Y-90350000D01*
X160997118Y-90369517D01*
X160986062Y-90386062D01*
X160969517Y-90397118D01*
X160963359Y-90398342D01*
X160911213Y-90433187D01*
X160911213Y-90566813D01*
X160963360Y-90601657D01*
X160969517Y-90602882D01*
X160986062Y-90613938D01*
X160997118Y-90630483D01*
X161001000Y-90650000D01*
X161001000Y-91350000D01*
X160997118Y-91369517D01*
X160986062Y-91386062D01*
X160969517Y-91397118D01*
X160963359Y-91398342D01*
X160911213Y-91433187D01*
X160911213Y-91566813D01*
X160963360Y-91601657D01*
X160969517Y-91602882D01*
X160986062Y-91613938D01*
X160997118Y-91630483D01*
X161001000Y-91650000D01*
X161001000Y-92350000D01*
X160997118Y-92369517D01*
X160986062Y-92386062D01*
X160969517Y-92397118D01*
X160963359Y-92398342D01*
X160911213Y-92433187D01*
X160911213Y-92566813D01*
X160963360Y-92601657D01*
X160969517Y-92602882D01*
X160986062Y-92613938D01*
X160997118Y-92630483D01*
X161001000Y-92650000D01*
X161001000Y-93350000D01*
X160997118Y-93369517D01*
X160986062Y-93386062D01*
X160969517Y-93397118D01*
X160963359Y-93398342D01*
X160911213Y-93433187D01*
X160911213Y-93566813D01*
X160963360Y-93601657D01*
X160969517Y-93602882D01*
X160986062Y-93613938D01*
X160997118Y-93630483D01*
X161001000Y-93650000D01*
X161001000Y-94350000D01*
X160997118Y-94369517D01*
X160986062Y-94386062D01*
X160969517Y-94397118D01*
X160950000Y-94401000D01*
X156950000Y-94401000D01*
X156930483Y-94397118D01*
X156913938Y-94386062D01*
X156902882Y-94369517D01*
X156899000Y-94350000D01*
X156899000Y-93650000D01*
X156902882Y-93630483D01*
X156913938Y-93613938D01*
X156930483Y-93602882D01*
X156936636Y-93601657D01*
X156988786Y-93566812D01*
X156988786Y-93433188D01*
X156936638Y-93398342D01*
X156930483Y-93397118D01*
X156913938Y-93386062D01*
X156902882Y-93369517D01*
X156899000Y-93350000D01*
X156899000Y-92650000D01*
X156902882Y-92630483D01*
X156913938Y-92613938D01*
X156930483Y-92602882D01*
X156936636Y-92601657D01*
X156988786Y-92566812D01*
X156988786Y-92433188D01*
X156936638Y-92398342D01*
X156930483Y-92397118D01*
X156913938Y-92386062D01*
X156902882Y-92369517D01*
X156899000Y-92350000D01*
X156899000Y-91650000D01*
X156902882Y-91630483D01*
X156913938Y-91613938D01*
X156930483Y-91602882D01*
X156936636Y-91601657D01*
X156988786Y-91566812D01*
X156988786Y-91433188D01*
X156936638Y-91398342D01*
X156930483Y-91397118D01*
X156913938Y-91386062D01*
X156902882Y-91369517D01*
X156899000Y-91350000D01*
X156899000Y-90650000D01*
X156902882Y-90630483D01*
X156913938Y-90613938D01*
X156930483Y-90602882D01*
X156936636Y-90601657D01*
X156988786Y-90566812D01*
X156988786Y-90433188D01*
X156936638Y-90398342D01*
X156930483Y-90397118D01*
X156913938Y-90386062D01*
X156902882Y-90369517D01*
X156899000Y-90350000D01*
X156899000Y-89650000D01*
X156902882Y-89630483D01*
X156913938Y-89613938D01*
X156930483Y-89602882D01*
X156936636Y-89601657D01*
X156988786Y-89566812D01*
X156988786Y-89433188D01*
X156936638Y-89398342D01*
X156930483Y-89397118D01*
X156913938Y-89386062D01*
X156902882Y-89369517D01*
X156899000Y-89350000D01*
X156899000Y-88650000D01*
X156902882Y-88630483D01*
X156913938Y-88613938D01*
X156930483Y-88602882D01*
X156936636Y-88601657D01*
X156988786Y-88566812D01*
X156988786Y-88433188D01*
X156936638Y-88398342D01*
X156930483Y-88397118D01*
X156913938Y-88386062D01*
X156902882Y-88369517D01*
X156899000Y-88350000D01*
X156899000Y-87650000D01*
X156902882Y-87630483D01*
X156913938Y-87613938D01*
X156930483Y-87602882D01*
X156936636Y-87601657D01*
X156988786Y-87566812D01*
X156988786Y-87433188D01*
X156936638Y-87398342D01*
X156930483Y-87397118D01*
X156913938Y-87386062D01*
X156902882Y-87369517D01*
X156899000Y-87350000D01*
X156899000Y-86650000D01*
X156902882Y-86630483D01*
X156913938Y-86613938D01*
X156930483Y-86602882D01*
X156950000Y-86599000D01*
X160950000Y-86599000D01*
X160969517Y-86602882D01*
G37*
G36*
X154236038Y-92432190D02*
G01*
X154266399Y-92436187D01*
X154274036Y-92439748D01*
X154293093Y-92443539D01*
X154318332Y-92460404D01*
X154328444Y-92465119D01*
X154334596Y-92471271D01*
X154355057Y-92484943D01*
X154368728Y-92505403D01*
X154374880Y-92511555D01*
X154379594Y-92521664D01*
X154396461Y-92546907D01*
X154400251Y-92565965D01*
X154403812Y-92573600D01*
X154407807Y-92603950D01*
X154411000Y-92620000D01*
X154411000Y-92900000D01*
X154407806Y-92916052D01*
X154403812Y-92946399D01*
X154400252Y-92954032D01*
X154396461Y-92973093D01*
X154379592Y-92998337D01*
X154374880Y-93008444D01*
X154368730Y-93014593D01*
X154355057Y-93035057D01*
X154334593Y-93048730D01*
X154328444Y-93054880D01*
X154318337Y-93059592D01*
X154293093Y-93076461D01*
X154274032Y-93080252D01*
X154266399Y-93083812D01*
X154236051Y-93087807D01*
X154220000Y-93091000D01*
X153880000Y-93091000D01*
X153863948Y-93087807D01*
X153833600Y-93083812D01*
X153825965Y-93080251D01*
X153806907Y-93076461D01*
X153781664Y-93059594D01*
X153771555Y-93054880D01*
X153765403Y-93048728D01*
X153744943Y-93035057D01*
X153731271Y-93014596D01*
X153725119Y-93008444D01*
X153720404Y-92998332D01*
X153703539Y-92973093D01*
X153699748Y-92954036D01*
X153696187Y-92946399D01*
X153692189Y-92916037D01*
X153689000Y-92900000D01*
X153689000Y-92620000D01*
X153692189Y-92603963D01*
X153696187Y-92573600D01*
X153699748Y-92565961D01*
X153703539Y-92546907D01*
X153720402Y-92521669D01*
X153725119Y-92511555D01*
X153731273Y-92505400D01*
X153744943Y-92484943D01*
X153765400Y-92471273D01*
X153771555Y-92465119D01*
X153781669Y-92460402D01*
X153806907Y-92443539D01*
X153825961Y-92439748D01*
X153833600Y-92436187D01*
X153863964Y-92432189D01*
X153880000Y-92429000D01*
X154220000Y-92429000D01*
X154236038Y-92432190D01*
G37*
G36*
X151529517Y-91092882D02*
G01*
X151546062Y-91103938D01*
X151557118Y-91120483D01*
X151558342Y-91126638D01*
X151593188Y-91178786D01*
X151726812Y-91178786D01*
X151761657Y-91126636D01*
X151762882Y-91120483D01*
X151773938Y-91103938D01*
X151790483Y-91092882D01*
X151810000Y-91089000D01*
X152310000Y-91089000D01*
X152329517Y-91092882D01*
X152346062Y-91103938D01*
X152357118Y-91120483D01*
X152361000Y-91140000D01*
X152361000Y-91540000D01*
X152357118Y-91559517D01*
X152346062Y-91576062D01*
X152329517Y-91587118D01*
X152323359Y-91588342D01*
X152271213Y-91623187D01*
X152271213Y-91756813D01*
X152323360Y-91791657D01*
X152329517Y-91792882D01*
X152346062Y-91803938D01*
X152357118Y-91820483D01*
X152361000Y-91840000D01*
X152361000Y-92240000D01*
X152357118Y-92259517D01*
X152346062Y-92276062D01*
X152329517Y-92287118D01*
X152310000Y-92291000D01*
X151810000Y-92291000D01*
X151790483Y-92287118D01*
X151773938Y-92276062D01*
X151762882Y-92259517D01*
X151761657Y-92253360D01*
X151726813Y-92201213D01*
X151593187Y-92201213D01*
X151558342Y-92253359D01*
X151557118Y-92259517D01*
X151546062Y-92276062D01*
X151529517Y-92287118D01*
X151510000Y-92291000D01*
X151010000Y-92291000D01*
X150990483Y-92287118D01*
X150973938Y-92276062D01*
X150962882Y-92259517D01*
X150959000Y-92240000D01*
X150959000Y-91840000D01*
X150962882Y-91820483D01*
X150973938Y-91803938D01*
X150990483Y-91792882D01*
X150996636Y-91791657D01*
X151048785Y-91756813D01*
X151471213Y-91756813D01*
X151523360Y-91791657D01*
X151529517Y-91792882D01*
X151546062Y-91803938D01*
X151557118Y-91820483D01*
X151558342Y-91826638D01*
X151593188Y-91878786D01*
X151726812Y-91878786D01*
X151761658Y-91826634D01*
X151762882Y-91820483D01*
X151773938Y-91803938D01*
X151790483Y-91792882D01*
X151796634Y-91791658D01*
X151848786Y-91756812D01*
X151848786Y-91623188D01*
X151796638Y-91588342D01*
X151790483Y-91587118D01*
X151773938Y-91576062D01*
X151762882Y-91559517D01*
X151761657Y-91553360D01*
X151726813Y-91501213D01*
X151593187Y-91501213D01*
X151558342Y-91553359D01*
X151557118Y-91559517D01*
X151546062Y-91576062D01*
X151529517Y-91587118D01*
X151523359Y-91588342D01*
X151471213Y-91623187D01*
X151471213Y-91756813D01*
X151048785Y-91756813D01*
X151048786Y-91756812D01*
X151048786Y-91623188D01*
X150996638Y-91588342D01*
X150990483Y-91587118D01*
X150973938Y-91576062D01*
X150962882Y-91559517D01*
X150959000Y-91540000D01*
X150959000Y-91140000D01*
X150962882Y-91120483D01*
X150973938Y-91103938D01*
X150990483Y-91092882D01*
X151010000Y-91089000D01*
X151510000Y-91089000D01*
X151529517Y-91092882D01*
G37*
G36*
X154236038Y-91472190D02*
G01*
X154266399Y-91476187D01*
X154274036Y-91479748D01*
X154293093Y-91483539D01*
X154318332Y-91500404D01*
X154328444Y-91505119D01*
X154334596Y-91511271D01*
X154355057Y-91524943D01*
X154368728Y-91545403D01*
X154374880Y-91551555D01*
X154379594Y-91561664D01*
X154396461Y-91586907D01*
X154400251Y-91605965D01*
X154403812Y-91613600D01*
X154407807Y-91643950D01*
X154411000Y-91660000D01*
X154411000Y-91940000D01*
X154407806Y-91956052D01*
X154403812Y-91986399D01*
X154400252Y-91994032D01*
X154396461Y-92013093D01*
X154379592Y-92038337D01*
X154374880Y-92048444D01*
X154368730Y-92054593D01*
X154355057Y-92075057D01*
X154334593Y-92088730D01*
X154328444Y-92094880D01*
X154318337Y-92099592D01*
X154293093Y-92116461D01*
X154274032Y-92120252D01*
X154266399Y-92123812D01*
X154236051Y-92127807D01*
X154220000Y-92131000D01*
X153880000Y-92131000D01*
X153863948Y-92127807D01*
X153833600Y-92123812D01*
X153825965Y-92120251D01*
X153806907Y-92116461D01*
X153781664Y-92099594D01*
X153771555Y-92094880D01*
X153765403Y-92088728D01*
X153744943Y-92075057D01*
X153731271Y-92054596D01*
X153725119Y-92048444D01*
X153720404Y-92038332D01*
X153703539Y-92013093D01*
X153699748Y-91994036D01*
X153696187Y-91986399D01*
X153692189Y-91956037D01*
X153689000Y-91940000D01*
X153689000Y-91660000D01*
X153692189Y-91643963D01*
X153696187Y-91613600D01*
X153699748Y-91605961D01*
X153703539Y-91586907D01*
X153720402Y-91561669D01*
X153725119Y-91551555D01*
X153731273Y-91545400D01*
X153744943Y-91524943D01*
X153765400Y-91511273D01*
X153771555Y-91505119D01*
X153781669Y-91500402D01*
X153806907Y-91483539D01*
X153825961Y-91479748D01*
X153833600Y-91476187D01*
X153863964Y-91472189D01*
X153880000Y-91469000D01*
X154220000Y-91469000D01*
X154236038Y-91472190D01*
G37*
G36*
X154022110Y-89339898D02*
G01*
X154028231Y-89339898D01*
X154035607Y-89342582D01*
X154062951Y-89348022D01*
X154077787Y-89357935D01*
X154081284Y-89359208D01*
X154087506Y-89364429D01*
X154116319Y-89383681D01*
X154123808Y-89394889D01*
X154124538Y-89395502D01*
X154126575Y-89399031D01*
X154151978Y-89437049D01*
X154164500Y-89500000D01*
X154151978Y-89562951D01*
X154126571Y-89600974D01*
X154124538Y-89604497D01*
X154123809Y-89605107D01*
X154116319Y-89616319D01*
X154087504Y-89635572D01*
X154020600Y-89691712D01*
X154020600Y-89808288D01*
X154087508Y-89864430D01*
X154116319Y-89883681D01*
X154123808Y-89894889D01*
X154124538Y-89895502D01*
X154126575Y-89899031D01*
X154151978Y-89937049D01*
X154164500Y-90000000D01*
X154151978Y-90062951D01*
X154126571Y-90100974D01*
X154124538Y-90104497D01*
X154123809Y-90105107D01*
X154116319Y-90116319D01*
X154087504Y-90135572D01*
X154020600Y-90191712D01*
X154020600Y-90308288D01*
X154087508Y-90364430D01*
X154116319Y-90383681D01*
X154123808Y-90394889D01*
X154124538Y-90395502D01*
X154126575Y-90399031D01*
X154151978Y-90437049D01*
X154164500Y-90500000D01*
X154151978Y-90562951D01*
X154126571Y-90600974D01*
X154124538Y-90604497D01*
X154123809Y-90605107D01*
X154116319Y-90616319D01*
X154087504Y-90635572D01*
X154020600Y-90691712D01*
X154020600Y-90808288D01*
X154087508Y-90864430D01*
X154116319Y-90883681D01*
X154123808Y-90894889D01*
X154124538Y-90895502D01*
X154126575Y-90899031D01*
X154151978Y-90937049D01*
X154164500Y-91000000D01*
X154151978Y-91062951D01*
X154126571Y-91100974D01*
X154124538Y-91104497D01*
X154123809Y-91105107D01*
X154116319Y-91116319D01*
X154087500Y-91135574D01*
X154081284Y-91140791D01*
X154077790Y-91142062D01*
X154062951Y-91151978D01*
X154035607Y-91157417D01*
X154028231Y-91160102D01*
X154022110Y-91160102D01*
X154000000Y-91164500D01*
X153977890Y-91160102D01*
X153971769Y-91160102D01*
X153964392Y-91157417D01*
X153937049Y-91151978D01*
X153922210Y-91142063D01*
X153918715Y-91140791D01*
X153912494Y-91135571D01*
X153883681Y-91116319D01*
X153876191Y-91105109D01*
X153875461Y-91104497D01*
X153873421Y-91100963D01*
X153848022Y-91062951D01*
X153835500Y-91000000D01*
X153836521Y-90994863D01*
X153831889Y-90968590D01*
X153762186Y-90910102D01*
X153722110Y-90910102D01*
X153700000Y-90914500D01*
X153677890Y-90910102D01*
X153637814Y-90910102D01*
X153568111Y-90968590D01*
X153563478Y-90994862D01*
X153564500Y-91000000D01*
X153551978Y-91062951D01*
X153526571Y-91100974D01*
X153524538Y-91104497D01*
X153523809Y-91105107D01*
X153516319Y-91116319D01*
X153487500Y-91135574D01*
X153481284Y-91140791D01*
X153477790Y-91142062D01*
X153462951Y-91151978D01*
X153435607Y-91157417D01*
X153428231Y-91160102D01*
X153422110Y-91160102D01*
X153400000Y-91164500D01*
X153377890Y-91160102D01*
X153371769Y-91160102D01*
X153364392Y-91157417D01*
X153337049Y-91151978D01*
X153322210Y-91142063D01*
X153318715Y-91140791D01*
X153312494Y-91135571D01*
X153283681Y-91116319D01*
X153276191Y-91105109D01*
X153275461Y-91104497D01*
X153273421Y-91100963D01*
X153248022Y-91062951D01*
X153235500Y-91000000D01*
X153236521Y-90994863D01*
X153231889Y-90968590D01*
X153162186Y-90910102D01*
X153122110Y-90910102D01*
X153100000Y-90914500D01*
X153077890Y-90910102D01*
X153037814Y-90910102D01*
X152968111Y-90968590D01*
X152963478Y-90994862D01*
X152964500Y-91000000D01*
X152951978Y-91062951D01*
X152926571Y-91100974D01*
X152924538Y-91104497D01*
X152923809Y-91105107D01*
X152916319Y-91116319D01*
X152887500Y-91135574D01*
X152881284Y-91140791D01*
X152877790Y-91142062D01*
X152862951Y-91151978D01*
X152835607Y-91157417D01*
X152828231Y-91160102D01*
X152822110Y-91160102D01*
X152800000Y-91164500D01*
X152777890Y-91160102D01*
X152771769Y-91160102D01*
X152764392Y-91157417D01*
X152737049Y-91151978D01*
X152722210Y-91142063D01*
X152718715Y-91140791D01*
X152712494Y-91135571D01*
X152683681Y-91116319D01*
X152676191Y-91105109D01*
X152675461Y-91104497D01*
X152673421Y-91100963D01*
X152648022Y-91062951D01*
X152635500Y-91000000D01*
X152648022Y-90937049D01*
X152673419Y-90899038D01*
X152675462Y-90895501D01*
X152676193Y-90894887D01*
X152683681Y-90883681D01*
X152712486Y-90864434D01*
X152779399Y-90808288D01*
X152779399Y-90691712D01*
X152712490Y-90635568D01*
X152683681Y-90616319D01*
X152676191Y-90605110D01*
X152675462Y-90604498D01*
X152673424Y-90600968D01*
X152648022Y-90562951D01*
X152635500Y-90500000D01*
X152648022Y-90437049D01*
X152673419Y-90399038D01*
X152675462Y-90395501D01*
X152676193Y-90394887D01*
X152683681Y-90383681D01*
X152712486Y-90364434D01*
X152779399Y-90308288D01*
X152779399Y-90191712D01*
X152712490Y-90135568D01*
X152683681Y-90116319D01*
X152676191Y-90105110D01*
X152675462Y-90104498D01*
X152673424Y-90100968D01*
X152648022Y-90062951D01*
X152635500Y-90000000D01*
X152648022Y-89937049D01*
X152673419Y-89899038D01*
X152675462Y-89895501D01*
X152676193Y-89894887D01*
X152683681Y-89883681D01*
X152712486Y-89864434D01*
X152779399Y-89808288D01*
X152779399Y-89691712D01*
X152712490Y-89635568D01*
X152683681Y-89616319D01*
X152676191Y-89605110D01*
X152675462Y-89604498D01*
X152673424Y-89600968D01*
X152648022Y-89562951D01*
X152635500Y-89500000D01*
X152648022Y-89437049D01*
X152673419Y-89399038D01*
X152675462Y-89395501D01*
X152676193Y-89394887D01*
X152683681Y-89383681D01*
X152712483Y-89364435D01*
X152718714Y-89359208D01*
X152722214Y-89357933D01*
X152737049Y-89348022D01*
X152764391Y-89342583D01*
X152771769Y-89339898D01*
X152777890Y-89339898D01*
X152800000Y-89335500D01*
X152822110Y-89339898D01*
X152828231Y-89339898D01*
X152835607Y-89342582D01*
X152862951Y-89348022D01*
X152877787Y-89357935D01*
X152881284Y-89359208D01*
X152887506Y-89364429D01*
X152916319Y-89383681D01*
X152923808Y-89394889D01*
X152924538Y-89395502D01*
X152926575Y-89399031D01*
X152951978Y-89437049D01*
X152964500Y-89500000D01*
X152951978Y-89562951D01*
X152926571Y-89600974D01*
X152924538Y-89604497D01*
X152923809Y-89605107D01*
X152916319Y-89616319D01*
X152887504Y-89635572D01*
X152820600Y-89691712D01*
X152820600Y-89808288D01*
X152887508Y-89864430D01*
X152916319Y-89883681D01*
X152923808Y-89894889D01*
X152924538Y-89895502D01*
X152926575Y-89899031D01*
X152951978Y-89937049D01*
X152964500Y-90000000D01*
X152963478Y-90005137D01*
X152968111Y-90031410D01*
X153037814Y-90089898D01*
X153077890Y-90089898D01*
X153100000Y-90085500D01*
X153122110Y-90089898D01*
X153162186Y-90089898D01*
X153231889Y-90031410D01*
X153236521Y-90005136D01*
X153235500Y-90000000D01*
X153248022Y-89937049D01*
X153273419Y-89899038D01*
X153275462Y-89895501D01*
X153276193Y-89894887D01*
X153283681Y-89883681D01*
X153312486Y-89864434D01*
X153379399Y-89808288D01*
X153379399Y-89691712D01*
X153312490Y-89635568D01*
X153283681Y-89616319D01*
X153276191Y-89605110D01*
X153275462Y-89604498D01*
X153273424Y-89600968D01*
X153248022Y-89562951D01*
X153235500Y-89500000D01*
X153248022Y-89437049D01*
X153273419Y-89399038D01*
X153275462Y-89395501D01*
X153276193Y-89394887D01*
X153283681Y-89383681D01*
X153312483Y-89364435D01*
X153318714Y-89359208D01*
X153322214Y-89357933D01*
X153337049Y-89348022D01*
X153364391Y-89342583D01*
X153371769Y-89339898D01*
X153377890Y-89339898D01*
X153400000Y-89335500D01*
X153422110Y-89339898D01*
X153428231Y-89339898D01*
X153435607Y-89342582D01*
X153462951Y-89348022D01*
X153477787Y-89357935D01*
X153481284Y-89359208D01*
X153487506Y-89364429D01*
X153516319Y-89383681D01*
X153523808Y-89394889D01*
X153524538Y-89395502D01*
X153526575Y-89399031D01*
X153551978Y-89437049D01*
X153564500Y-89500000D01*
X153563478Y-89505137D01*
X153568111Y-89531410D01*
X153637814Y-89589898D01*
X153677890Y-89589898D01*
X153700000Y-89585500D01*
X153722110Y-89589898D01*
X153762186Y-89589898D01*
X153831889Y-89531410D01*
X153836521Y-89505136D01*
X153835500Y-89500000D01*
X153848022Y-89437049D01*
X153873419Y-89399038D01*
X153875462Y-89395501D01*
X153876193Y-89394887D01*
X153883681Y-89383681D01*
X153912483Y-89364435D01*
X153918714Y-89359208D01*
X153922214Y-89357933D01*
X153937049Y-89348022D01*
X153964391Y-89342583D01*
X153971769Y-89339898D01*
X153977890Y-89339898D01*
X154000000Y-89335500D01*
X154022110Y-89339898D01*
G37*
M02*
