G04 #@! TF.GenerationSoftware,KiCad,Pcbnew,8.0.1*
G04 #@! TF.CreationDate,2025-05-19T13:24:42+01:00*
G04 #@! TF.ProjectId,receiver6,72656365-6976-4657-9236-2e6b69636164,rev?*
G04 #@! TF.SameCoordinates,Original*
G04 #@! TF.FileFunction,Copper,L1,Top*
G04 #@! TF.FilePolarity,Positive*
%FSLAX46Y46*%
G04 Gerber Fmt 4.6, Leading zero omitted, Abs format (unit mm)*
G04 Created by KiCad (PCBNEW 8.0.1) date 2025-05-19 13:24:42*
%MOMM*%
%LPD*%
G01*
G04 APERTURE LIST*
G04 Aperture macros list*
%AMRoundRect*
0 Rectangle with rounded corners*
0 $1 Rounding radius*
0 $2 $3 $4 $5 $6 $7 $8 $9 X,Y pos of 4 corners*
0 Add a 4 corners polygon primitive as box body*
4,1,4,$2,$3,$4,$5,$6,$7,$8,$9,$2,$3,0*
0 Add four circle primitives for the rounded corners*
1,1,$1+$1,$2,$3*
1,1,$1+$1,$4,$5*
1,1,$1+$1,$6,$7*
1,1,$1+$1,$8,$9*
0 Add four rect primitives between the rounded corners*
20,1,$1+$1,$2,$3,$4,$5,0*
20,1,$1+$1,$4,$5,$6,$7,0*
20,1,$1+$1,$6,$7,$8,$9,0*
20,1,$1+$1,$8,$9,$2,$3,0*%
G04 Aperture macros list end*
G04 #@! TA.AperFunction,Conductor*
%ADD10C,0.200000*%
G04 #@! TD*
G04 #@! TA.AperFunction,ConnectorPad*
%ADD11R,4.000000X0.700000*%
G04 #@! TD*
G04 #@! TA.AperFunction,SMDPad,CuDef*
%ADD12R,0.500000X0.400000*%
G04 #@! TD*
G04 #@! TA.AperFunction,SMDPad,CuDef*
%ADD13C,0.227000*%
G04 #@! TD*
G04 #@! TA.AperFunction,SMDPad,CuDef*
%ADD14R,1.400000X1.200000*%
G04 #@! TD*
G04 #@! TA.AperFunction,SMDPad,CuDef*
%ADD15RoundRect,0.140000X-0.170000X0.140000X-0.170000X-0.140000X0.170000X-0.140000X0.170000X0.140000X0*%
G04 #@! TD*
G04 #@! TA.AperFunction,ViaPad*
%ADD16C,0.400000*%
G04 #@! TD*
G04 #@! TA.AperFunction,Conductor*
%ADD17C,0.070000*%
G04 #@! TD*
G04 #@! TA.AperFunction,Conductor*
%ADD18C,0.100000*%
G04 #@! TD*
G04 APERTURE END LIST*
D10*
X151592607Y-89496692D02*
G75*
G02*
X151110025Y-89010000I-7J482592D01*
G01*
D11*
X158950000Y-87000000D03*
X158950000Y-88000000D03*
X158950000Y-89000000D03*
X158950000Y-90000000D03*
X158950000Y-91000000D03*
X158950000Y-92000000D03*
X158950000Y-93000000D03*
X158950000Y-94000000D03*
D12*
X152060000Y-91340000D03*
X151260000Y-91340000D03*
X151260000Y-92040000D03*
X152060000Y-92040000D03*
D13*
X152800000Y-89500000D03*
X153400000Y-89500000D03*
X154000000Y-89500000D03*
X153700000Y-89750000D03*
X152800000Y-90000000D03*
X153400000Y-90000000D03*
X154000000Y-90000000D03*
X153100000Y-90250000D03*
X153700000Y-90250000D03*
X152800000Y-90500000D03*
X153400000Y-90500000D03*
X154000000Y-90500000D03*
X153100000Y-90750000D03*
X153700000Y-90750000D03*
X152800000Y-91000000D03*
X153400000Y-91000000D03*
X154000000Y-91000000D03*
D14*
X154500000Y-94200000D03*
X152900000Y-94200000D03*
D15*
X154050000Y-91800000D03*
X154050000Y-92760000D03*
D16*
X155880000Y-92400000D03*
X154350000Y-91200000D03*
X152350000Y-88800000D03*
D10*
X154000000Y-91000000D02*
X154000000Y-91890000D01*
X152800000Y-91000000D02*
X153740000Y-91940000D01*
X154200000Y-91200000D02*
X154000000Y-91000000D01*
X156480000Y-93000000D02*
X158950000Y-93000000D01*
X154000000Y-91890000D02*
X154050000Y-91940000D01*
D17*
X154140000Y-91850000D02*
X154050000Y-91940000D01*
D10*
X154350000Y-91200000D02*
X154200000Y-91200000D01*
X155880000Y-92400000D02*
X156480000Y-93000000D01*
X154050000Y-91940000D02*
X154050000Y-91800000D01*
X153740000Y-91940000D02*
X154050000Y-91940000D01*
X152350000Y-88800000D02*
X152330000Y-88780000D01*
X153286500Y-89886500D02*
X152913500Y-89886500D01*
X151360000Y-91340000D02*
X152060000Y-92040000D01*
D17*
X150905000Y-92345000D02*
X150905000Y-91695000D01*
X150905000Y-92345000D02*
X150605000Y-92345000D01*
X150905000Y-91695000D02*
X151260000Y-91340000D01*
D10*
X153286500Y-89886500D02*
X153286500Y-89613500D01*
X156150000Y-95170000D02*
X156150000Y-94000000D01*
X151640000Y-91160000D02*
X151640000Y-90910000D01*
X153286500Y-89613500D02*
X153400000Y-89500000D01*
X152700000Y-88800000D02*
X153400000Y-89500000D01*
D18*
X153400000Y-90000000D02*
X153400000Y-90500000D01*
D10*
X150020000Y-92930000D02*
X150020000Y-94680000D01*
D17*
X153000000Y-94100000D02*
X152900000Y-94200000D01*
X150605000Y-92345000D02*
X150020000Y-92930000D01*
D10*
X153400000Y-90000000D02*
X153286500Y-89886500D01*
X151460000Y-91340000D02*
X151640000Y-91160000D01*
D17*
X153000000Y-93810000D02*
X153000000Y-94100000D01*
D10*
X151640000Y-90910000D02*
X152550000Y-90000000D01*
X153400000Y-90500000D02*
X153350000Y-90500000D01*
X152550000Y-90000000D02*
X152800000Y-90000000D01*
D17*
X154050000Y-92760000D02*
X153000000Y-93810000D01*
D10*
X152913500Y-89886500D02*
X152800000Y-90000000D01*
D17*
X152760000Y-94200000D02*
X150905000Y-92345000D01*
D10*
X150020000Y-94680000D02*
X150800000Y-95460000D01*
X152350000Y-88800000D02*
X152700000Y-88800000D01*
X150800000Y-95460000D02*
X155860000Y-95460000D01*
X151260000Y-91340000D02*
X151460000Y-91340000D01*
X156150000Y-94000000D02*
X157700000Y-94000000D01*
X151260000Y-91340000D02*
X151360000Y-91340000D01*
X153350000Y-90500000D02*
X153100000Y-90750000D01*
X155860000Y-95460000D02*
X156150000Y-95170000D01*
D17*
X152900000Y-94200000D02*
X152760000Y-94200000D01*
D10*
X152790000Y-89500000D02*
X151595915Y-89500000D01*
X151595915Y-89500000D02*
X151592607Y-89496692D01*
X151110000Y-88980000D02*
X151110000Y-56880000D01*
D18*
X152566500Y-90733500D02*
X152566500Y-92183500D01*
X151580000Y-92360000D02*
X151260000Y-92040000D01*
X152800000Y-90500000D02*
X152566500Y-90733500D01*
X152566500Y-92183500D02*
X152390000Y-92360000D01*
X152390000Y-92360000D02*
X151580000Y-92360000D01*
D17*
X152620000Y-90250000D02*
X152400000Y-90470000D01*
X152400000Y-90470000D02*
X152400000Y-91000000D01*
X153100000Y-90250000D02*
X152620000Y-90250000D01*
X152400000Y-91000000D02*
X152060000Y-91340000D01*
X154000000Y-89500000D02*
X155500000Y-88000000D01*
D10*
X155500000Y-88000000D02*
X158950000Y-88000000D01*
D17*
X155300000Y-89000000D02*
X154300000Y-90000000D01*
D10*
X155350000Y-89000000D02*
X158950000Y-89000000D01*
D17*
X154300000Y-90000000D02*
X154000000Y-90000000D01*
X155350000Y-89000000D02*
X155300000Y-89000000D01*
D10*
X156350000Y-90000000D02*
X156400000Y-90000000D01*
X156100000Y-90250000D02*
X156350000Y-90000000D01*
X155400000Y-90250000D02*
X156100000Y-90250000D01*
X156400000Y-90000000D02*
X158950000Y-90000000D01*
D17*
X153700000Y-90250000D02*
X155400000Y-90250000D01*
D10*
X155450000Y-91000000D02*
X158950000Y-91000000D01*
D17*
X154735000Y-92735364D02*
X154735000Y-91040527D01*
X154850000Y-90500000D02*
X154000000Y-90500000D01*
X155350000Y-91000000D02*
X154850000Y-90500000D01*
X154070364Y-93770364D02*
X154070364Y-93400000D01*
X154194473Y-90500000D02*
X154000000Y-90500000D01*
X154000000Y-90500000D02*
X154200000Y-90500000D01*
X154500000Y-94200000D02*
X154070364Y-93770364D01*
X154070364Y-93400000D02*
X154735000Y-92735364D01*
X154735000Y-91040527D02*
X154247236Y-90552764D01*
X154200000Y-90500000D02*
X154247236Y-90547236D01*
X155450000Y-91000000D02*
X155350000Y-91000000D01*
X154247236Y-90547236D02*
X154247236Y-90552764D01*
X154247236Y-90552764D02*
X154194473Y-90500000D01*
X154175000Y-87925000D02*
X153700000Y-88400000D01*
X153700000Y-88400000D02*
X153700000Y-89750000D01*
D10*
X155100000Y-87000000D02*
X158950000Y-87000000D01*
X154175000Y-87925000D02*
X155100000Y-87000000D01*
M02*
