G04 #@! TF.GenerationSoftware,KiCad,Pcbnew,8.0.1*
G04 #@! TF.CreationDate,2025-05-19T13:24:42+01:00*
G04 #@! TF.ProjectId,receiver6,72656365-6976-4657-9236-2e6b69636164,rev?*
G04 #@! TF.SameCoordinates,Original*
G04 #@! TF.FileFunction,Copper,L2,Bot*
G04 #@! TF.FilePolarity,Positive*
%FSLAX46Y46*%
G04 Gerber Fmt 4.6, Leading zero omitted, Abs format (unit mm)*
G04 Created by KiCad (PCBNEW 8.0.1) date 2025-05-19 13:24:42*
%MOMM*%
%LPD*%
G01*
G04 APERTURE LIST*
G04 #@! TA.AperFunction,SMDPad,CuDef*
%ADD10R,1.400000X1.200000*%
G04 #@! TD*
G04 #@! TA.AperFunction,SMDPad,CuDef*
%ADD11R,0.900000X2.050000*%
G04 #@! TD*
G04 #@! TA.AperFunction,ViaPad*
%ADD12C,0.400000*%
G04 #@! TD*
G04 #@! TA.AperFunction,Conductor*
%ADD13C,0.200000*%
G04 #@! TD*
G04 #@! TA.AperFunction,Conductor*
%ADD14C,0.070000*%
G04 #@! TD*
G04 APERTURE END LIST*
D10*
X154500000Y-94200000D03*
D11*
X153140000Y-93760000D03*
X151640000Y-93760000D03*
D12*
X155880000Y-92400000D03*
X154350000Y-91200000D03*
X152350000Y-88800000D03*
D13*
X154350000Y-92400000D02*
X155300000Y-92400000D01*
X154350000Y-92400000D02*
X154350000Y-91200000D01*
X151640000Y-93760000D02*
X150880000Y-93000000D01*
X154500000Y-92550000D02*
X154500000Y-94200000D01*
X150880000Y-89470000D02*
X152000000Y-88350000D01*
X150880000Y-93000000D02*
X150880000Y-89470000D01*
X152000000Y-88350000D02*
X152600000Y-88350000D01*
X152600000Y-88350000D02*
X154350000Y-90100000D01*
X155300000Y-92400000D02*
X155880000Y-92400000D01*
X154350000Y-90100000D02*
X154350000Y-91200000D01*
X154350000Y-92400000D02*
X154500000Y-92550000D01*
D14*
X151500000Y-91330502D02*
X151930502Y-90900000D01*
X152350000Y-90900000D02*
X152350000Y-88800000D01*
X153140000Y-93760000D02*
X153140000Y-93090000D01*
X151930502Y-90900000D02*
X152350000Y-90900000D01*
X151500000Y-91450000D02*
X151500000Y-91330502D01*
X153140000Y-93090000D02*
X151500000Y-91450000D01*
G04 #@! TA.AperFunction,Conductor*
G36*
X152574554Y-88569685D02*
G01*
X152595196Y-88586319D01*
X154143181Y-90134304D01*
X154176666Y-90195627D01*
X154179500Y-90221985D01*
X154179500Y-90823455D01*
X154159815Y-90890494D01*
X154143181Y-90911136D01*
X154062909Y-90991407D01*
X154062904Y-90991414D01*
X154012498Y-91090341D01*
X153995131Y-91199997D01*
X153995131Y-91200002D01*
X154012498Y-91309658D01*
X154012500Y-91309661D01*
X154062905Y-91408587D01*
X154141413Y-91487095D01*
X154141414Y-91487096D01*
X154143181Y-91488862D01*
X154176666Y-91550185D01*
X154179500Y-91576544D01*
X154179500Y-91726000D01*
X154159815Y-91793039D01*
X154136167Y-91813529D01*
X154136319Y-91813681D01*
X154100000Y-91850000D01*
X154100000Y-92244483D01*
X154080315Y-92311522D01*
X154027511Y-92357277D01*
X153958353Y-92367221D01*
X153901689Y-92343749D01*
X153832093Y-92291649D01*
X153832086Y-92291645D01*
X153697379Y-92241403D01*
X153697372Y-92241401D01*
X153637844Y-92235000D01*
X153390000Y-92235000D01*
X153390000Y-93076000D01*
X153370315Y-93143039D01*
X153317511Y-93188794D01*
X153266000Y-93200000D01*
X153014000Y-93200000D01*
X152946961Y-93180315D01*
X152901206Y-93127511D01*
X152890000Y-93076000D01*
X152890000Y-92235000D01*
X152642155Y-92235000D01*
X152582627Y-92241401D01*
X152582620Y-92241403D01*
X152447913Y-92291645D01*
X152447906Y-92291649D01*
X152332812Y-92377809D01*
X152332809Y-92377812D01*
X152246649Y-92492906D01*
X152246645Y-92492913D01*
X152212735Y-92583833D01*
X152170864Y-92639767D01*
X152105400Y-92664184D01*
X152096553Y-92664500D01*
X151176966Y-92664500D01*
X151176966Y-92662316D01*
X151117969Y-92651106D01*
X151067276Y-92603023D01*
X151050500Y-92540742D01*
X151050500Y-92394000D01*
X151070185Y-92326961D01*
X151122989Y-92281206D01*
X151174500Y-92270000D01*
X151540000Y-92270000D01*
X151540000Y-91810000D01*
X151174500Y-91810000D01*
X151107461Y-91790315D01*
X151061706Y-91737511D01*
X151050500Y-91686000D01*
X151050500Y-91124000D01*
X151070185Y-91056961D01*
X151122989Y-91011206D01*
X151174500Y-91000000D01*
X151646000Y-91000000D01*
X151713039Y-91019685D01*
X151758794Y-91072489D01*
X151770000Y-91124000D01*
X151770000Y-91580000D01*
X152340000Y-91580000D01*
X152340000Y-91110000D01*
X152324000Y-91110000D01*
X152256961Y-91090315D01*
X152211206Y-91037511D01*
X152200000Y-90986000D01*
X152200000Y-88674000D01*
X152219685Y-88606961D01*
X152272489Y-88561206D01*
X152324000Y-88550000D01*
X152507515Y-88550000D01*
X152574554Y-88569685D01*
G37*
G04 #@! TD.AperFunction*
M02*
