G04 #@! TF.GenerationSoftware,KiCad,Pcbnew,9.0.7*
G04 #@! TF.CreationDate,2026-03-02T16:09:12+00:00*
G04 #@! TF.ProjectId,flatLEDtag,666c6174-4c45-4447-9461-672e6b696361,rev?*
G04 #@! TF.SameCoordinates,Original*
G04 #@! TF.FileFunction,Soldermask,Bot*
G04 #@! TF.FilePolarity,Negative*
%FSLAX46Y46*%
G04 Gerber Fmt 4.6, Leading zero omitted, Abs format (unit mm)*
G04 Created by KiCad (PCBNEW 9.0.7) date 2026-03-02 16:09:12*
%MOMM*%
%LPD*%
G01*
G04 APERTURE LIST*
G04 APERTURE END LIST*
G36*
X168589034Y-127405764D02*
G01*
X168622125Y-127427875D01*
X168644236Y-127460966D01*
X168652000Y-127500000D01*
X168652000Y-128900000D01*
X168644236Y-128939034D01*
X168622125Y-128972125D01*
X168589034Y-128994236D01*
X168550000Y-129002000D01*
X167150000Y-129002000D01*
X167110966Y-128994236D01*
X167077875Y-128972125D01*
X167055764Y-128939034D01*
X167048000Y-128900000D01*
X167048000Y-127500000D01*
X167055764Y-127460966D01*
X167077875Y-127427875D01*
X167110966Y-127405764D01*
X167150000Y-127398000D01*
X168550000Y-127398000D01*
X168589034Y-127405764D01*
G37*
G36*
X170789034Y-127405764D02*
G01*
X170822125Y-127427875D01*
X170844236Y-127460966D01*
X170852000Y-127500000D01*
X170852000Y-128900000D01*
X170844236Y-128939034D01*
X170822125Y-128972125D01*
X170789034Y-128994236D01*
X170750000Y-129002000D01*
X169350000Y-129002000D01*
X169310966Y-128994236D01*
X169277875Y-128972125D01*
X169255764Y-128939034D01*
X169248000Y-128900000D01*
X169248000Y-127500000D01*
X169255764Y-127460966D01*
X169277875Y-127427875D01*
X169310966Y-127405764D01*
X169350000Y-127398000D01*
X170750000Y-127398000D01*
X170789034Y-127405764D01*
G37*
G36*
X166319517Y-127852882D02*
G01*
X166336062Y-127863938D01*
X166347118Y-127880483D01*
X166351000Y-127900000D01*
X166351000Y-128600000D01*
X166347118Y-128619517D01*
X166336062Y-128636062D01*
X166319517Y-128647118D01*
X166300000Y-128651000D01*
X165300000Y-128651000D01*
X165280483Y-128647118D01*
X165263938Y-128636062D01*
X165252882Y-128619517D01*
X165249000Y-128600000D01*
X165249000Y-127900000D01*
X165252882Y-127880483D01*
X165263938Y-127863938D01*
X165280483Y-127852882D01*
X165300000Y-127849000D01*
X166300000Y-127849000D01*
X166319517Y-127852882D01*
G37*
M02*
