G04 #@! TF.GenerationSoftware,KiCad,Pcbnew,9.0.7*
G04 #@! TF.CreationDate,2026-03-02T16:09:12+00:00*
G04 #@! TF.ProjectId,flatLEDtag,666c6174-4c45-4447-9461-672e6b696361,rev?*
G04 #@! TF.SameCoordinates,Original*
G04 #@! TF.FileFunction,Copper,L1,Top*
G04 #@! TF.FilePolarity,Positive*
%FSLAX46Y46*%
G04 Gerber Fmt 4.6, Leading zero omitted, Abs format (unit mm)*
G04 Created by KiCad (PCBNEW 9.0.7) date 2026-03-02 16:09:12*
%MOMM*%
%LPD*%
G01*
G04 APERTURE LIST*
G04 Aperture macros list*
%AMRoundRect*
0 Rectangle with rounded corners*
0 $1 Rounding radius*
0 $2 $3 $4 $5 $6 $7 $8 $9 X,Y pos of 4 corners*
0 Add a 4 corners polygon primitive as box body*
4,1,4,$2,$3,$4,$5,$6,$7,$8,$9,$2,$3,0*
0 Add four circle primitives for the rounded corners*
1,1,$1+$1,$2,$3*
1,1,$1+$1,$4,$5*
1,1,$1+$1,$6,$7*
1,1,$1+$1,$8,$9*
0 Add four rect primitives between the rounded corners*
20,1,$1+$1,$2,$3,$4,$5,0*
20,1,$1+$1,$4,$5,$6,$7,0*
20,1,$1+$1,$6,$7,$8,$9,0*
20,1,$1+$1,$8,$9,$2,$3,0*%
G04 Aperture macros list end*
G04 #@! TA.AperFunction,EtchedComponent*
%ADD10C,0.020000*%
G04 #@! TD*
G04 #@! TA.AperFunction,ConnectorPad*
%ADD11R,4.000000X0.700000*%
G04 #@! TD*
G04 #@! TA.AperFunction,SMDPad,CuDef*
%ADD12R,1.000000X0.300000*%
G04 #@! TD*
G04 #@! TA.AperFunction,SMDPad,CuDef*
%ADD13R,0.400000X0.500000*%
G04 #@! TD*
G04 #@! TA.AperFunction,SMDPad,CuDef*
%ADD14RoundRect,0.100000X0.100000X-0.130000X0.100000X0.130000X-0.100000X0.130000X-0.100000X-0.130000X0*%
G04 #@! TD*
G04 #@! TA.AperFunction,SMDPad,CuDef*
%ADD15RoundRect,0.100000X0.130000X0.100000X-0.130000X0.100000X-0.130000X-0.100000X0.130000X-0.100000X0*%
G04 #@! TD*
G04 #@! TA.AperFunction,SMDPad,CuDef*
%ADD16RoundRect,0.010000X0.090000X-0.065000X0.090000X0.065000X-0.090000X0.065000X-0.090000X-0.065000X0*%
G04 #@! TD*
G04 #@! TA.AperFunction,SMDPad,CuDef*
%ADD17R,1.000000X0.400000*%
G04 #@! TD*
G04 #@! TA.AperFunction,SMDPad,CuDef*
%ADD18C,0.227000*%
G04 #@! TD*
G04 #@! TA.AperFunction,ViaPad*
%ADD19C,0.400000*%
G04 #@! TD*
G04 #@! TA.AperFunction,Conductor*
%ADD20C,0.070000*%
G04 #@! TD*
G04 #@! TA.AperFunction,Conductor*
%ADD21C,0.200000*%
G04 #@! TD*
G04 APERTURE END LIST*
D10*
G04 #@! TO.C,AE1*
X170245000Y-132135000D02*
X170245000Y-132135000D01*
G04 #@! TD*
D11*
G04 #@! TO.P,J1,1,Pin_1*
G04 #@! TO.N,/IR*
X175200000Y-124700000D03*
G04 #@! TO.P,J1,2,Pin_2*
G04 #@! TO.N,Net-(J1-Pin_2)*
X175200000Y-125700000D03*
G04 #@! TO.P,J1,3,Pin_3*
G04 #@! TO.N,Net-(J1-Pin_3)*
X175200000Y-126700000D03*
G04 #@! TO.P,J1,4,Pin_4*
G04 #@! TO.N,Net-(J1-Pin_4)*
X175200000Y-127700000D03*
G04 #@! TO.P,J1,5,Pin_5*
G04 #@! TO.N,Net-(J1-Pin_5)*
X175200000Y-128700000D03*
G04 #@! TO.P,J1,6,Pin_6*
G04 #@! TO.N,/LED +VE*
X175200000Y-129700000D03*
G04 #@! TO.P,J1,7,Pin_7*
G04 #@! TO.N,/+VE*
X175200000Y-130700000D03*
G04 #@! TO.P,J1,8,Pin_8*
G04 #@! TO.N,/GND*
X175200000Y-131700000D03*
G04 #@! TD*
D12*
G04 #@! TO.P,,1*
G04 #@! TO.N,/IR*
X170150000Y-126950000D03*
G04 #@! TD*
D13*
G04 #@! TO.P,Y1,1,1*
G04 #@! TO.N,Net-(U1-XTAL32Mp)*
X167600000Y-127500000D03*
G04 #@! TO.P,Y1,2,2*
G04 #@! TO.N,/GND*
X167600000Y-128300000D03*
G04 #@! TO.P,Y1,3,3*
G04 #@! TO.N,Net-(U1-XTAL32Mm)*
X168300000Y-128300000D03*
G04 #@! TO.P,Y1,4,4*
G04 #@! TO.N,/GND*
X168300000Y-127500000D03*
G04 #@! TD*
D14*
G04 #@! TO.P,C1,1*
G04 #@! TO.N,/+VE*
X166900000Y-128870000D03*
G04 #@! TO.P,C1,2*
G04 #@! TO.N,/GND*
X166900000Y-128230000D03*
G04 #@! TD*
D15*
G04 #@! TO.P,C3,1*
G04 #@! TO.N,/+VE*
X168300000Y-129050000D03*
G04 #@! TO.P,C3,2*
G04 #@! TO.N,/GND*
X167660000Y-129050000D03*
G04 #@! TD*
D16*
G04 #@! TO.P,D1,1,K*
G04 #@! TO.N,/GND*
X170900000Y-128690000D03*
G04 #@! TO.P,D1,2,A*
G04 #@! TO.N,/LED +VE*
X170900000Y-128410000D03*
G04 #@! TD*
D17*
G04 #@! TO.P,,1*
G04 #@! TO.N,/+VE*
X165800000Y-128400000D03*
G04 #@! TD*
D18*
G04 #@! TO.P,U1,A1,RFIOp*
G04 #@! TO.N,/RFIO*
X169075000Y-127425000D03*
G04 #@! TO.P,U1,A3,RFIOm*
G04 #@! TO.N,/GND*
X169675000Y-127425000D03*
G04 #@! TO.P,U1,A5,P0_4/XTAL32km*
G04 #@! TO.N,Net-(J1-Pin_2)*
X170275000Y-127425000D03*
G04 #@! TO.P,U1,B4,P0_3/XTAL32kp*
G04 #@! TO.N,/IR*
X169975000Y-127675000D03*
G04 #@! TO.P,U1,C1,GND_RF2*
G04 #@! TO.N,/GND*
X169075000Y-127925000D03*
G04 #@! TO.P,U1,C3,GND_RF1*
X169675000Y-127925000D03*
G04 #@! TO.P,U1,C5,P0_2/ADC1/SWCLK*
G04 #@! TO.N,Net-(J1-Pin_3)*
X170275000Y-127925000D03*
G04 #@! TO.P,U1,D2,XTAL32Mp*
G04 #@! TO.N,Net-(U1-XTAL32Mp)*
X169375000Y-128175000D03*
G04 #@! TO.P,U1,D4,P0_5/SWDIO*
G04 #@! TO.N,Net-(J1-Pin_4)*
X169975000Y-128175000D03*
G04 #@! TO.P,U1,E1,XTAL32Mm*
G04 #@! TO.N,Net-(U1-XTAL32Mm)*
X169075000Y-128425000D03*
G04 #@! TO.P,U1,E3,VSS*
G04 #@! TO.N,/GND*
X169675000Y-128425000D03*
G04 #@! TO.P,U1,E5,P0_1/ADC0/SWDIO*
G04 #@! TO.N,/LED +VE*
X170275000Y-128425000D03*
G04 #@! TO.P,U1,F2,GND_DCDC*
G04 #@! TO.N,/GND*
X169375000Y-128675000D03*
G04 #@! TO.P,U1,F4,P0_0/RST*
G04 #@! TO.N,Net-(J1-Pin_5)*
X169975000Y-128675000D03*
G04 #@! TO.P,U1,G1,VBAT_LOW*
G04 #@! TO.N,/+VE*
X169075000Y-128925000D03*
G04 #@! TO.P,U1,G3,LX*
G04 #@! TO.N,unconnected-(U1-LX-PadG3)*
X169675000Y-128925000D03*
G04 #@! TO.P,U1,G5,VBAT_HIGH*
G04 #@! TO.N,/+VE*
X170275000Y-128925000D03*
G04 #@! TD*
D19*
G04 #@! TO.N,/GND*
X170600000Y-129300000D03*
X171150000Y-131700000D03*
X169300000Y-127000000D03*
G04 #@! TO.N,/+VE*
X169900000Y-129350000D03*
G04 #@! TD*
D20*
G04 #@! TO.N,Net-(J1-Pin_3)*
X175200000Y-126700000D02*
X173650000Y-126700000D01*
X172450000Y-127900000D02*
X170300000Y-127900000D01*
X170300000Y-127900000D02*
X170275000Y-127925000D01*
X173650000Y-126700000D02*
X172450000Y-127900000D01*
G04 #@! TO.N,Net-(J1-Pin_4)*
X173150000Y-127700000D02*
X172675000Y-128175000D01*
X175200000Y-127700000D02*
X173150000Y-127700000D01*
X172675000Y-128175000D02*
X169975000Y-128175000D01*
G04 #@! TO.N,Net-(U1-XTAL32Mm)*
X168400000Y-128400000D02*
X169050000Y-128400000D01*
X168300000Y-128300000D02*
X168400000Y-128400000D01*
X169050000Y-128400000D02*
X169075000Y-128425000D01*
G04 #@! TO.N,Net-(U1-XTAL32Mp)*
X168606000Y-127827420D02*
X168953580Y-128175000D01*
X167956000Y-127144000D02*
X168506000Y-127144000D01*
X168606000Y-127244000D02*
X168606000Y-127827420D01*
X167600000Y-127500000D02*
X167956000Y-127144000D01*
X168953580Y-128175000D02*
X169375000Y-128175000D01*
X168506000Y-127144000D02*
G75*
G02*
X168606000Y-127244000I0J-100000D01*
G01*
G04 #@! TO.N,/GND*
X167600000Y-128990000D02*
X167660000Y-129050000D01*
D21*
X169375000Y-127625000D02*
X169475000Y-127625000D01*
D20*
X168300000Y-127500000D02*
X168300000Y-127600000D01*
D21*
X169075000Y-127925000D02*
X169375000Y-127625000D01*
D20*
X170900000Y-128690000D02*
X170900000Y-129000000D01*
D21*
X169375000Y-128675000D02*
X169425000Y-128675000D01*
D20*
X167055000Y-128230000D02*
X166900000Y-128385000D01*
D21*
X169425000Y-128675000D02*
X169675000Y-128425000D01*
D20*
X169675000Y-128425000D02*
X169675000Y-127925000D01*
X170900000Y-129000000D02*
X170600000Y-129300000D01*
D21*
X171150000Y-131700000D02*
X175200000Y-131700000D01*
D20*
X167550000Y-128300000D02*
X167480000Y-128230000D01*
D21*
X169475000Y-127625000D02*
X169675000Y-127425000D01*
X169675000Y-127925000D02*
X169475000Y-127725000D01*
D20*
X167600000Y-128300000D02*
X167975000Y-128675000D01*
X167600000Y-128300000D02*
X167600000Y-128990000D01*
D21*
X168300000Y-127600000D02*
X167600000Y-128300000D01*
D20*
X167480000Y-128230000D02*
X167055000Y-128230000D01*
X167600000Y-128300000D02*
X167550000Y-128300000D01*
D21*
X169675000Y-127375000D02*
X169300000Y-127000000D01*
X169475000Y-127725000D02*
X169475000Y-127625000D01*
X169675000Y-127425000D02*
X169675000Y-127375000D01*
D20*
X167975000Y-128675000D02*
X169375000Y-128675000D01*
D21*
G04 #@! TO.N,/+VE*
X166820000Y-128870000D02*
X166350000Y-128400000D01*
X168750000Y-129400000D02*
X168729000Y-129421000D01*
X166350000Y-128400000D02*
X165800000Y-128400000D01*
X167296000Y-129421000D02*
X166900000Y-129025000D01*
X166900000Y-128870000D02*
X166820000Y-128870000D01*
X169900000Y-129350000D02*
X169900000Y-130400000D01*
X166900000Y-129025000D02*
X166900000Y-128870000D01*
X169900000Y-129350000D02*
X169500000Y-129350000D01*
X168750000Y-129050000D02*
X168750000Y-129400000D01*
X169075000Y-128925000D02*
X168950000Y-129050000D01*
X169500000Y-129350000D02*
X169075000Y-128925000D01*
X168729000Y-129421000D02*
X167296000Y-129421000D01*
X170275000Y-128925000D02*
X170275000Y-128975000D01*
X168750000Y-129050000D02*
X168300000Y-129050000D01*
X169900000Y-130400000D02*
X170200000Y-130700000D01*
X170275000Y-128975000D02*
X169900000Y-129350000D01*
X170200000Y-130700000D02*
X175200000Y-130700000D01*
X168950000Y-129050000D02*
X168750000Y-129050000D01*
G04 #@! TO.N,/RFIO*
X152515000Y-127950000D02*
X166225736Y-127950000D01*
X167486264Y-126938000D02*
X168532644Y-126938000D01*
X168849000Y-127199000D02*
X169075000Y-127425000D01*
X168849000Y-127095672D02*
X168849000Y-127199000D01*
X152500000Y-127950000D02*
X116665000Y-127950000D01*
X168803535Y-127050207D02*
X168849000Y-127095672D01*
X166437868Y-127862132D02*
X167274132Y-127025868D01*
X166437868Y-127862132D02*
G75*
G02*
X166225736Y-127950025I-212168J212132D01*
G01*
X167274132Y-127025868D02*
G75*
G02*
X167486264Y-126937975I212168J-212132D01*
G01*
X168803535Y-127050207D02*
G75*
G03*
X168532644Y-126937970I-270935J-270893D01*
G01*
D20*
G04 #@! TO.N,/LED +VE*
X173550000Y-129700000D02*
X172800000Y-128950000D01*
X175200000Y-129700000D02*
X173550000Y-129700000D01*
X172800000Y-128550000D02*
X172660000Y-128410000D01*
X172660000Y-128410000D02*
X170900000Y-128410000D01*
X170275000Y-128425000D02*
X170875000Y-128425000D01*
X170875000Y-128425000D02*
X170900000Y-128400000D01*
X172800000Y-128950000D02*
X172800000Y-128550000D01*
G04 #@! TO.N,/IR*
X169975000Y-127225000D02*
X170250000Y-126950000D01*
X169975000Y-127675000D02*
X169975000Y-127225000D01*
X172350000Y-125350000D02*
X173000000Y-124700000D01*
X173000000Y-124700000D02*
X175200000Y-124700000D01*
X169975000Y-127675000D02*
X172350000Y-127675000D01*
X172350000Y-127675000D02*
X172350000Y-125350000D01*
G04 #@! TD*
M02*
