G04 #@! TF.GenerationSoftware,KiCad,Pcbnew,9.0.7*
G04 #@! TF.CreationDate,2026-04-13T17:32:46+01:00*
G04 #@! TF.ProjectId,flatLEDtag,666c6174-4c45-4447-9461-672e6b696361,rev?*
G04 #@! TF.SameCoordinates,Original*
G04 #@! TF.FileFunction,Soldermask,Bot*
G04 #@! TF.FilePolarity,Negative*
%FSLAX46Y46*%
G04 Gerber Fmt 4.6, Leading zero omitted, Abs format (unit mm)*
G04 Created by KiCad (PCBNEW 9.0.7) date 2026-04-13 17:32:46*
%MOMM*%
%LPD*%
G01*
G04 APERTURE LIST*
G04 APERTURE END LIST*
G36*
X166586038Y-128372190D02*
G01*
X166616399Y-128376187D01*
X166624036Y-128379748D01*
X166643093Y-128383539D01*
X166668332Y-128400404D01*
X166678444Y-128405119D01*
X166684596Y-128411271D01*
X166705057Y-128424943D01*
X166718728Y-128445403D01*
X166724880Y-128451555D01*
X166729594Y-128461664D01*
X166746461Y-128486907D01*
X166750251Y-128505965D01*
X166753812Y-128513600D01*
X166757807Y-128543950D01*
X166761000Y-128560000D01*
X166761000Y-128840000D01*
X166757806Y-128856052D01*
X166753812Y-128886399D01*
X166750252Y-128894032D01*
X166746461Y-128913093D01*
X166729592Y-128938337D01*
X166724880Y-128948444D01*
X166718730Y-128954593D01*
X166705057Y-128975057D01*
X166684593Y-128988730D01*
X166678444Y-128994880D01*
X166668337Y-128999592D01*
X166643093Y-129016461D01*
X166624032Y-129020252D01*
X166616399Y-129023812D01*
X166586051Y-129027807D01*
X166570000Y-129031000D01*
X166230000Y-129031000D01*
X166213948Y-129027807D01*
X166183600Y-129023812D01*
X166175965Y-129020251D01*
X166156907Y-129016461D01*
X166131664Y-128999594D01*
X166121555Y-128994880D01*
X166115403Y-128988728D01*
X166094943Y-128975057D01*
X166081271Y-128954596D01*
X166075119Y-128948444D01*
X166070404Y-128938332D01*
X166053539Y-128913093D01*
X166049748Y-128894036D01*
X166046187Y-128886399D01*
X166042189Y-128856037D01*
X166039000Y-128840000D01*
X166039000Y-128560000D01*
X166042189Y-128543963D01*
X166046187Y-128513600D01*
X166049748Y-128505961D01*
X166053539Y-128486907D01*
X166070402Y-128461669D01*
X166075119Y-128451555D01*
X166081273Y-128445400D01*
X166094943Y-128424943D01*
X166115400Y-128411273D01*
X166121555Y-128405119D01*
X166131669Y-128400402D01*
X166156907Y-128383539D01*
X166175961Y-128379748D01*
X166183600Y-128376187D01*
X166213964Y-128372189D01*
X166230000Y-128369000D01*
X166570000Y-128369000D01*
X166586038Y-128372190D01*
G37*
G36*
X168589034Y-127405764D02*
G01*
X168622125Y-127427875D01*
X168644236Y-127460966D01*
X168652000Y-127500000D01*
X168652000Y-128900000D01*
X168644236Y-128939034D01*
X168622125Y-128972125D01*
X168589034Y-128994236D01*
X168550000Y-129002000D01*
X167150000Y-129002000D01*
X167110966Y-128994236D01*
X167077875Y-128972125D01*
X167055764Y-128939034D01*
X167048000Y-128900000D01*
X167048000Y-127500000D01*
X167055764Y-127460966D01*
X167077875Y-127427875D01*
X167110966Y-127405764D01*
X167150000Y-127398000D01*
X168550000Y-127398000D01*
X168589034Y-127405764D01*
G37*
G36*
X170789034Y-127405764D02*
G01*
X170822125Y-127427875D01*
X170844236Y-127460966D01*
X170852000Y-127500000D01*
X170852000Y-128900000D01*
X170844236Y-128939034D01*
X170822125Y-128972125D01*
X170789034Y-128994236D01*
X170750000Y-129002000D01*
X169350000Y-129002000D01*
X169310966Y-128994236D01*
X169277875Y-128972125D01*
X169255764Y-128939034D01*
X169248000Y-128900000D01*
X169248000Y-127500000D01*
X169255764Y-127460966D01*
X169277875Y-127427875D01*
X169310966Y-127405764D01*
X169350000Y-127398000D01*
X170750000Y-127398000D01*
X170789034Y-127405764D01*
G37*
G36*
X165719517Y-127852882D02*
G01*
X165736062Y-127863938D01*
X165747118Y-127880483D01*
X165751000Y-127900000D01*
X165751000Y-128600000D01*
X165747118Y-128619517D01*
X165736062Y-128636062D01*
X165719517Y-128647118D01*
X165700000Y-128651000D01*
X164700000Y-128651000D01*
X164680483Y-128647118D01*
X164663938Y-128636062D01*
X164652882Y-128619517D01*
X164649000Y-128600000D01*
X164649000Y-127900000D01*
X164652882Y-127880483D01*
X164663938Y-127863938D01*
X164680483Y-127852882D01*
X164700000Y-127849000D01*
X165700000Y-127849000D01*
X165719517Y-127852882D01*
G37*
G36*
X166586038Y-127412190D02*
G01*
X166616399Y-127416187D01*
X166624036Y-127419748D01*
X166643093Y-127423539D01*
X166668332Y-127440404D01*
X166678444Y-127445119D01*
X166684596Y-127451271D01*
X166705057Y-127464943D01*
X166718728Y-127485403D01*
X166724880Y-127491555D01*
X166729594Y-127501664D01*
X166746461Y-127526907D01*
X166750251Y-127545965D01*
X166753812Y-127553600D01*
X166757807Y-127583950D01*
X166761000Y-127600000D01*
X166761000Y-127880000D01*
X166757806Y-127896052D01*
X166753812Y-127926399D01*
X166750252Y-127934032D01*
X166746461Y-127953093D01*
X166729592Y-127978337D01*
X166724880Y-127988444D01*
X166718730Y-127994593D01*
X166705057Y-128015057D01*
X166684593Y-128028730D01*
X166678444Y-128034880D01*
X166668337Y-128039592D01*
X166643093Y-128056461D01*
X166624032Y-128060252D01*
X166616399Y-128063812D01*
X166586051Y-128067807D01*
X166570000Y-128071000D01*
X166230000Y-128071000D01*
X166213948Y-128067807D01*
X166183600Y-128063812D01*
X166175965Y-128060251D01*
X166156907Y-128056461D01*
X166131664Y-128039594D01*
X166121555Y-128034880D01*
X166115403Y-128028728D01*
X166094943Y-128015057D01*
X166081271Y-127994596D01*
X166075119Y-127988444D01*
X166070404Y-127978332D01*
X166053539Y-127953093D01*
X166049748Y-127934036D01*
X166046187Y-127926399D01*
X166042189Y-127896037D01*
X166039000Y-127880000D01*
X166039000Y-127600000D01*
X166042189Y-127583963D01*
X166046187Y-127553600D01*
X166049748Y-127545961D01*
X166053539Y-127526907D01*
X166070402Y-127501669D01*
X166075119Y-127491555D01*
X166081273Y-127485400D01*
X166094943Y-127464943D01*
X166115400Y-127451273D01*
X166121555Y-127445119D01*
X166131669Y-127440402D01*
X166156907Y-127423539D01*
X166175961Y-127419748D01*
X166183600Y-127416187D01*
X166213964Y-127412189D01*
X166230000Y-127409000D01*
X166570000Y-127409000D01*
X166586038Y-127412190D01*
G37*
M02*
