G04 #@! TF.GenerationSoftware,KiCad,Pcbnew,9.0.7*
G04 #@! TF.CreationDate,2026-04-13T17:32:46+01:00*
G04 #@! TF.ProjectId,flatLEDtag,666c6174-4c45-4447-9461-672e6b696361,rev?*
G04 #@! TF.SameCoordinates,Original*
G04 #@! TF.FileFunction,Soldermask,Top*
G04 #@! TF.FilePolarity,Negative*
%FSLAX46Y46*%
G04 Gerber Fmt 4.6, Leading zero omitted, Abs format (unit mm)*
G04 Created by KiCad (PCBNEW 9.0.7) date 2026-04-13 17:32:46*
%MOMM*%
%LPD*%
G01*
G04 APERTURE LIST*
G04 APERTURE END LIST*
G36*
X177219517Y-124302882D02*
G01*
X177236062Y-124313938D01*
X177247118Y-124330483D01*
X177251000Y-124350000D01*
X177251000Y-125050000D01*
X177247118Y-125069517D01*
X177236062Y-125086062D01*
X177219517Y-125097118D01*
X177213359Y-125098342D01*
X177161213Y-125133187D01*
X177161213Y-125266813D01*
X177213360Y-125301657D01*
X177219517Y-125302882D01*
X177236062Y-125313938D01*
X177247118Y-125330483D01*
X177251000Y-125350000D01*
X177251000Y-126050000D01*
X177247118Y-126069517D01*
X177236062Y-126086062D01*
X177219517Y-126097118D01*
X177213359Y-126098342D01*
X177161213Y-126133187D01*
X177161213Y-126266813D01*
X177213360Y-126301657D01*
X177219517Y-126302882D01*
X177236062Y-126313938D01*
X177247118Y-126330483D01*
X177251000Y-126350000D01*
X177251000Y-127050000D01*
X177247118Y-127069517D01*
X177236062Y-127086062D01*
X177219517Y-127097118D01*
X177213359Y-127098342D01*
X177161213Y-127133187D01*
X177161213Y-127266813D01*
X177213360Y-127301657D01*
X177219517Y-127302882D01*
X177236062Y-127313938D01*
X177247118Y-127330483D01*
X177251000Y-127350000D01*
X177251000Y-128050000D01*
X177247118Y-128069517D01*
X177236062Y-128086062D01*
X177219517Y-128097118D01*
X177213359Y-128098342D01*
X177161213Y-128133187D01*
X177161213Y-128266813D01*
X177213360Y-128301657D01*
X177219517Y-128302882D01*
X177236062Y-128313938D01*
X177247118Y-128330483D01*
X177251000Y-128350000D01*
X177251000Y-129050000D01*
X177247118Y-129069517D01*
X177236062Y-129086062D01*
X177219517Y-129097118D01*
X177213359Y-129098342D01*
X177161213Y-129133187D01*
X177161213Y-129266813D01*
X177213360Y-129301657D01*
X177219517Y-129302882D01*
X177236062Y-129313938D01*
X177247118Y-129330483D01*
X177251000Y-129350000D01*
X177251000Y-130050000D01*
X177247118Y-130069517D01*
X177236062Y-130086062D01*
X177219517Y-130097118D01*
X177213359Y-130098342D01*
X177161213Y-130133187D01*
X177161213Y-130266813D01*
X177213360Y-130301657D01*
X177219517Y-130302882D01*
X177236062Y-130313938D01*
X177247118Y-130330483D01*
X177251000Y-130350000D01*
X177251000Y-131050000D01*
X177247118Y-131069517D01*
X177236062Y-131086062D01*
X177219517Y-131097118D01*
X177213359Y-131098342D01*
X177161213Y-131133187D01*
X177161213Y-131266813D01*
X177213360Y-131301657D01*
X177219517Y-131302882D01*
X177236062Y-131313938D01*
X177247118Y-131330483D01*
X177251000Y-131350000D01*
X177251000Y-132050000D01*
X177247118Y-132069517D01*
X177236062Y-132086062D01*
X177219517Y-132097118D01*
X177200000Y-132101000D01*
X173200000Y-132101000D01*
X173180483Y-132097118D01*
X173163938Y-132086062D01*
X173152882Y-132069517D01*
X173149000Y-132050000D01*
X173149000Y-131350000D01*
X173152882Y-131330483D01*
X173163938Y-131313938D01*
X173180483Y-131302882D01*
X173186636Y-131301657D01*
X173238786Y-131266812D01*
X173238786Y-131133188D01*
X173186638Y-131098342D01*
X173180483Y-131097118D01*
X173163938Y-131086062D01*
X173152882Y-131069517D01*
X173149000Y-131050000D01*
X173149000Y-130350000D01*
X173152882Y-130330483D01*
X173163938Y-130313938D01*
X173180483Y-130302882D01*
X173186636Y-130301657D01*
X173238786Y-130266812D01*
X173238786Y-130133188D01*
X173186638Y-130098342D01*
X173180483Y-130097118D01*
X173163938Y-130086062D01*
X173152882Y-130069517D01*
X173149000Y-130050000D01*
X173149000Y-129350000D01*
X173152882Y-129330483D01*
X173163938Y-129313938D01*
X173180483Y-129302882D01*
X173186636Y-129301657D01*
X173238786Y-129266812D01*
X173238786Y-129133188D01*
X173186638Y-129098342D01*
X173180483Y-129097118D01*
X173163938Y-129086062D01*
X173152882Y-129069517D01*
X173149000Y-129050000D01*
X173149000Y-128350000D01*
X173152882Y-128330483D01*
X173163938Y-128313938D01*
X173180483Y-128302882D01*
X173186636Y-128301657D01*
X173238786Y-128266812D01*
X173238786Y-128133188D01*
X173186638Y-128098342D01*
X173180483Y-128097118D01*
X173163938Y-128086062D01*
X173152882Y-128069517D01*
X173149000Y-128050000D01*
X173149000Y-127350000D01*
X173152882Y-127330483D01*
X173163938Y-127313938D01*
X173180483Y-127302882D01*
X173186636Y-127301657D01*
X173238786Y-127266812D01*
X173238786Y-127133188D01*
X173186638Y-127098342D01*
X173180483Y-127097118D01*
X173163938Y-127086062D01*
X173152882Y-127069517D01*
X173149000Y-127050000D01*
X173149000Y-126350000D01*
X173152882Y-126330483D01*
X173163938Y-126313938D01*
X173180483Y-126302882D01*
X173186636Y-126301657D01*
X173238786Y-126266812D01*
X173238786Y-126133188D01*
X173186638Y-126098342D01*
X173180483Y-126097118D01*
X173163938Y-126086062D01*
X173152882Y-126069517D01*
X173149000Y-126050000D01*
X173149000Y-125350000D01*
X173152882Y-125330483D01*
X173163938Y-125313938D01*
X173180483Y-125302882D01*
X173186636Y-125301657D01*
X173238786Y-125266812D01*
X173238786Y-125133188D01*
X173186638Y-125098342D01*
X173180483Y-125097118D01*
X173163938Y-125086062D01*
X173152882Y-125069517D01*
X173149000Y-125050000D01*
X173149000Y-124350000D01*
X173152882Y-124330483D01*
X173163938Y-124313938D01*
X173180483Y-124302882D01*
X173200000Y-124299000D01*
X177200000Y-124299000D01*
X177219517Y-124302882D01*
G37*
G36*
X170669517Y-126752882D02*
G01*
X170686062Y-126763938D01*
X170697118Y-126780483D01*
X170701000Y-126800000D01*
X170701000Y-127100000D01*
X170697118Y-127119517D01*
X170686062Y-127136062D01*
X170669517Y-127147118D01*
X170650000Y-127151000D01*
X170448229Y-127151000D01*
X170376062Y-127275998D01*
X170405972Y-127327804D01*
X170411777Y-127333609D01*
X170418006Y-127348647D01*
X170425980Y-127362459D01*
X170430108Y-127377865D01*
X170436339Y-127392908D01*
X170436339Y-127401117D01*
X170437023Y-127403670D01*
X170437023Y-127446329D01*
X170436339Y-127448881D01*
X170436339Y-127457092D01*
X170430108Y-127472135D01*
X170425981Y-127487537D01*
X170418009Y-127501344D01*
X170411777Y-127516391D01*
X170405969Y-127522198D01*
X170404650Y-127524484D01*
X170374483Y-127554651D01*
X170372197Y-127555970D01*
X170366391Y-127561777D01*
X170351347Y-127568007D01*
X170291032Y-127602831D01*
X170291032Y-127747169D01*
X170351352Y-127781993D01*
X170366391Y-127788223D01*
X170372195Y-127794027D01*
X170374483Y-127795348D01*
X170404650Y-127825515D01*
X170405970Y-127827802D01*
X170411777Y-127833609D01*
X170418007Y-127848651D01*
X170425981Y-127862462D01*
X170430108Y-127877866D01*
X170436339Y-127892908D01*
X170436339Y-127901117D01*
X170437023Y-127903670D01*
X170437023Y-127946329D01*
X170436339Y-127948881D01*
X170436339Y-127957092D01*
X170430108Y-127972135D01*
X170425981Y-127987537D01*
X170418009Y-128001344D01*
X170411777Y-128016391D01*
X170405969Y-128022198D01*
X170404650Y-128024484D01*
X170374483Y-128054651D01*
X170372197Y-128055970D01*
X170366391Y-128061777D01*
X170351347Y-128068007D01*
X170291032Y-128102831D01*
X170291032Y-128247169D01*
X170351352Y-128281993D01*
X170366391Y-128288223D01*
X170372195Y-128294027D01*
X170374483Y-128295348D01*
X170404650Y-128325515D01*
X170405970Y-128327802D01*
X170411777Y-128333609D01*
X170418007Y-128348651D01*
X170425981Y-128362462D01*
X170430108Y-128377866D01*
X170436339Y-128392908D01*
X170436339Y-128401117D01*
X170437023Y-128403670D01*
X170437023Y-128446329D01*
X170436339Y-128448881D01*
X170436339Y-128457092D01*
X170430108Y-128472135D01*
X170425981Y-128487537D01*
X170418009Y-128501344D01*
X170411777Y-128516391D01*
X170405969Y-128522198D01*
X170404650Y-128524484D01*
X170374483Y-128554651D01*
X170372197Y-128555970D01*
X170366391Y-128561777D01*
X170351347Y-128568007D01*
X170291032Y-128602831D01*
X170291032Y-128747169D01*
X170351352Y-128781993D01*
X170366391Y-128788223D01*
X170372195Y-128794027D01*
X170374483Y-128795348D01*
X170404650Y-128825515D01*
X170405970Y-128827802D01*
X170411777Y-128833609D01*
X170418007Y-128848651D01*
X170425981Y-128862462D01*
X170430108Y-128877866D01*
X170436339Y-128892908D01*
X170436339Y-128901117D01*
X170437023Y-128903670D01*
X170437023Y-128946329D01*
X170436339Y-128948881D01*
X170436339Y-128957092D01*
X170430108Y-128972135D01*
X170425981Y-128987537D01*
X170418009Y-129001344D01*
X170411777Y-129016391D01*
X170405969Y-129022198D01*
X170404650Y-129024484D01*
X170374484Y-129054650D01*
X170372198Y-129055969D01*
X170366391Y-129061777D01*
X170351344Y-129068009D01*
X170337537Y-129075981D01*
X170322134Y-129080108D01*
X170307092Y-129086339D01*
X170298883Y-129086339D01*
X170296330Y-129087023D01*
X170253670Y-129087023D01*
X170251117Y-129086339D01*
X170242908Y-129086339D01*
X170227866Y-129080108D01*
X170212462Y-129075981D01*
X170198651Y-129068007D01*
X170183609Y-129061777D01*
X170177802Y-129055970D01*
X170175515Y-129054650D01*
X170145349Y-129024484D01*
X170144028Y-129022196D01*
X170138223Y-129016391D01*
X170131993Y-129001350D01*
X170124018Y-128987537D01*
X170119890Y-128972130D01*
X170113661Y-128957092D01*
X170113661Y-128948881D01*
X170112977Y-128946329D01*
X170112977Y-128910246D01*
X170039754Y-128837023D01*
X169910246Y-128837023D01*
X169837023Y-128910246D01*
X169837023Y-128946329D01*
X169836339Y-128948881D01*
X169836339Y-128957092D01*
X169830108Y-128972135D01*
X169825981Y-128987537D01*
X169818009Y-129001344D01*
X169811777Y-129016391D01*
X169805969Y-129022198D01*
X169804650Y-129024484D01*
X169774484Y-129054650D01*
X169772198Y-129055969D01*
X169766391Y-129061777D01*
X169751344Y-129068009D01*
X169737537Y-129075981D01*
X169722134Y-129080108D01*
X169707092Y-129086339D01*
X169698883Y-129086339D01*
X169696330Y-129087023D01*
X169653670Y-129087023D01*
X169651117Y-129086339D01*
X169642908Y-129086339D01*
X169627866Y-129080108D01*
X169612462Y-129075981D01*
X169598651Y-129068007D01*
X169583609Y-129061777D01*
X169577802Y-129055970D01*
X169575515Y-129054650D01*
X169545349Y-129024484D01*
X169544028Y-129022196D01*
X169538223Y-129016391D01*
X169531993Y-129001350D01*
X169524018Y-128987537D01*
X169519890Y-128972130D01*
X169513661Y-128957092D01*
X169513661Y-128948881D01*
X169512977Y-128946329D01*
X169512977Y-128910246D01*
X169439754Y-128837023D01*
X169310246Y-128837023D01*
X169237023Y-128910246D01*
X169237023Y-128946329D01*
X169236339Y-128948881D01*
X169236339Y-128957092D01*
X169230108Y-128972135D01*
X169225981Y-128987537D01*
X169218009Y-129001344D01*
X169211777Y-129016391D01*
X169205969Y-129022198D01*
X169204650Y-129024484D01*
X169174484Y-129054650D01*
X169172198Y-129055969D01*
X169166391Y-129061777D01*
X169151344Y-129068009D01*
X169137537Y-129075981D01*
X169122134Y-129080108D01*
X169107092Y-129086339D01*
X169098883Y-129086339D01*
X169096330Y-129087023D01*
X169053670Y-129087023D01*
X169051117Y-129086339D01*
X169042908Y-129086339D01*
X169027866Y-129080108D01*
X169012462Y-129075981D01*
X168998651Y-129068007D01*
X168983609Y-129061777D01*
X168977802Y-129055970D01*
X168975515Y-129054650D01*
X168945349Y-129024484D01*
X168944028Y-129022196D01*
X168938223Y-129016391D01*
X168931993Y-129001350D01*
X168924018Y-128987537D01*
X168919889Y-128972129D01*
X168913661Y-128957092D01*
X168913661Y-128948883D01*
X168901127Y-128902106D01*
X168931999Y-128848634D01*
X168938223Y-128833609D01*
X168944023Y-128827808D01*
X168945346Y-128825518D01*
X168975518Y-128795346D01*
X168977808Y-128794023D01*
X168983609Y-128788223D01*
X168998638Y-128781997D01*
X169058967Y-128747168D01*
X169058967Y-128602832D01*
X168998643Y-128568004D01*
X168983609Y-128561777D01*
X168977805Y-128555973D01*
X168975518Y-128554653D01*
X168945349Y-128524484D01*
X168944028Y-128522196D01*
X168938223Y-128516391D01*
X168931993Y-128501350D01*
X168893207Y-128434170D01*
X168905330Y-128432170D01*
X168913661Y-128401090D01*
X168913661Y-128392908D01*
X168919877Y-128377900D01*
X168924014Y-128362468D01*
X168931995Y-128348643D01*
X168938223Y-128333609D01*
X168944026Y-128327805D01*
X168945349Y-128325515D01*
X168975518Y-128295346D01*
X168977808Y-128294023D01*
X168983609Y-128288223D01*
X168998638Y-128281997D01*
X169058967Y-128247168D01*
X169058967Y-128102832D01*
X168998643Y-128068004D01*
X168983609Y-128061777D01*
X168977805Y-128055973D01*
X168975518Y-128054653D01*
X168945347Y-128024482D01*
X168944026Y-128022194D01*
X168938223Y-128016391D01*
X168931996Y-128001357D01*
X168887910Y-127924999D01*
X168931998Y-127848637D01*
X168938223Y-127833609D01*
X168944024Y-127827807D01*
X168945347Y-127825517D01*
X168975518Y-127795346D01*
X168977808Y-127794023D01*
X168983609Y-127788223D01*
X168998638Y-127781997D01*
X169058967Y-127747168D01*
X169058967Y-127602832D01*
X168998643Y-127568004D01*
X168983609Y-127561777D01*
X168977805Y-127555973D01*
X168975518Y-127554653D01*
X168945346Y-127524481D01*
X168944025Y-127522193D01*
X168938223Y-127516391D01*
X168931995Y-127501357D01*
X168924020Y-127487542D01*
X168919891Y-127472133D01*
X168913661Y-127457092D01*
X168913661Y-127448881D01*
X168912977Y-127446329D01*
X168912977Y-127403670D01*
X168913661Y-127401117D01*
X168913661Y-127392908D01*
X168919889Y-127377871D01*
X168924018Y-127362462D01*
X168931994Y-127348645D01*
X168938223Y-127333609D01*
X168944026Y-127327805D01*
X168945349Y-127325515D01*
X168975515Y-127295349D01*
X168977805Y-127294026D01*
X168983609Y-127288223D01*
X168998645Y-127281994D01*
X169012462Y-127274018D01*
X169027871Y-127269889D01*
X169042908Y-127263661D01*
X169051117Y-127263661D01*
X169053670Y-127262977D01*
X169096330Y-127262977D01*
X169098883Y-127263661D01*
X169107092Y-127263661D01*
X169122130Y-127269889D01*
X169137537Y-127274018D01*
X169151350Y-127281993D01*
X169166391Y-127288223D01*
X169172196Y-127294028D01*
X169174484Y-127295349D01*
X169204650Y-127325515D01*
X169205970Y-127327802D01*
X169211777Y-127333609D01*
X169218007Y-127348651D01*
X169225981Y-127362462D01*
X169230108Y-127377866D01*
X169236339Y-127392908D01*
X169236339Y-127401117D01*
X169237023Y-127403670D01*
X169237023Y-127446329D01*
X169236339Y-127448881D01*
X169236339Y-127457092D01*
X169230108Y-127472135D01*
X169225981Y-127487537D01*
X169218009Y-127501344D01*
X169211777Y-127516391D01*
X169205969Y-127522198D01*
X169204650Y-127524484D01*
X169174483Y-127554651D01*
X169172197Y-127555970D01*
X169166391Y-127561777D01*
X169151347Y-127568007D01*
X169091032Y-127602831D01*
X169091032Y-127747169D01*
X169151352Y-127781993D01*
X169166391Y-127788223D01*
X169172195Y-127794027D01*
X169174483Y-127795348D01*
X169204650Y-127825515D01*
X169205970Y-127827802D01*
X169211777Y-127833609D01*
X169218007Y-127848651D01*
X169225981Y-127862462D01*
X169230108Y-127877866D01*
X169236339Y-127892908D01*
X169236339Y-127901117D01*
X169237023Y-127903670D01*
X169237023Y-127939754D01*
X169310246Y-128012977D01*
X169439754Y-128012977D01*
X169512977Y-127939754D01*
X169512977Y-127903670D01*
X169513661Y-127901117D01*
X169513661Y-127892908D01*
X169519889Y-127877871D01*
X169524018Y-127862462D01*
X169531994Y-127848645D01*
X169538223Y-127833609D01*
X169544026Y-127827805D01*
X169545349Y-127825515D01*
X169575518Y-127795346D01*
X169577808Y-127794023D01*
X169583609Y-127788223D01*
X169598638Y-127781997D01*
X169658967Y-127747168D01*
X169658967Y-127602832D01*
X169598643Y-127568004D01*
X169583609Y-127561777D01*
X169577805Y-127555973D01*
X169575518Y-127554653D01*
X169545349Y-127524484D01*
X169544028Y-127522196D01*
X169538223Y-127516391D01*
X169531993Y-127501350D01*
X169524018Y-127487537D01*
X169519890Y-127472130D01*
X169513661Y-127457092D01*
X169513661Y-127448881D01*
X169512977Y-127446329D01*
X169512977Y-127403670D01*
X169513661Y-127401117D01*
X169513661Y-127392908D01*
X169519889Y-127377871D01*
X169524018Y-127362462D01*
X169531994Y-127348645D01*
X169538223Y-127333609D01*
X169544026Y-127327805D01*
X169545349Y-127325515D01*
X169575521Y-127295343D01*
X169577811Y-127294020D01*
X169583609Y-127288223D01*
X169598613Y-127282008D01*
X169609021Y-127275998D01*
X169776062Y-127275998D01*
X169805972Y-127327804D01*
X169811777Y-127333609D01*
X169818006Y-127348647D01*
X169825980Y-127362459D01*
X169830108Y-127377865D01*
X169836339Y-127392908D01*
X169836339Y-127401117D01*
X169837023Y-127403670D01*
X169837023Y-127439754D01*
X169910246Y-127512977D01*
X170039754Y-127512977D01*
X170112977Y-127439754D01*
X170112977Y-127403670D01*
X170113661Y-127401117D01*
X170113661Y-127392908D01*
X170119890Y-127377869D01*
X170124019Y-127362460D01*
X170131995Y-127348643D01*
X170138223Y-127333609D01*
X170144025Y-127327806D01*
X170173937Y-127275996D01*
X170101769Y-127151000D01*
X169848229Y-127151000D01*
X169776062Y-127275998D01*
X169609021Y-127275998D01*
X169613482Y-127273422D01*
X169638086Y-127167883D01*
X169619152Y-127139546D01*
X169613938Y-127136062D01*
X169602882Y-127119517D01*
X169599000Y-127100000D01*
X169599000Y-126800000D01*
X169602882Y-126780483D01*
X169613938Y-126763938D01*
X169630483Y-126752882D01*
X169650000Y-126749000D01*
X170650000Y-126749000D01*
X170669517Y-126752882D01*
G37*
G36*
X166786038Y-128382190D02*
G01*
X166816399Y-128386187D01*
X166824036Y-128389748D01*
X166843093Y-128393539D01*
X166868332Y-128410404D01*
X166878444Y-128415119D01*
X166884596Y-128421271D01*
X166905057Y-128434943D01*
X166918728Y-128455403D01*
X166924880Y-128461555D01*
X166929594Y-128471664D01*
X166946461Y-128496907D01*
X166950251Y-128515965D01*
X166953812Y-128523600D01*
X166957807Y-128553950D01*
X166961000Y-128570000D01*
X166961000Y-128850000D01*
X166957806Y-128866052D01*
X166953812Y-128896399D01*
X166950252Y-128904032D01*
X166946461Y-128923093D01*
X166929592Y-128948337D01*
X166924880Y-128958444D01*
X166918730Y-128964593D01*
X166905057Y-128985057D01*
X166884593Y-128998730D01*
X166878444Y-129004880D01*
X166868337Y-129009592D01*
X166843093Y-129026461D01*
X166824032Y-129030252D01*
X166816399Y-129033812D01*
X166786051Y-129037807D01*
X166770000Y-129041000D01*
X166430000Y-129041000D01*
X166413948Y-129037807D01*
X166383600Y-129033812D01*
X166375965Y-129030251D01*
X166356907Y-129026461D01*
X166331664Y-129009594D01*
X166321555Y-129004880D01*
X166315403Y-128998728D01*
X166294943Y-128985057D01*
X166281271Y-128964596D01*
X166275119Y-128958444D01*
X166270404Y-128948332D01*
X166253539Y-128923093D01*
X166249748Y-128904036D01*
X166246187Y-128896399D01*
X166242189Y-128866037D01*
X166239000Y-128850000D01*
X166239000Y-128570000D01*
X166242189Y-128553963D01*
X166246187Y-128523600D01*
X166249748Y-128515961D01*
X166253539Y-128496907D01*
X166270402Y-128471669D01*
X166275119Y-128461555D01*
X166281273Y-128455400D01*
X166294943Y-128434943D01*
X166315400Y-128421273D01*
X166321555Y-128415119D01*
X166331669Y-128410402D01*
X166356907Y-128393539D01*
X166375961Y-128389748D01*
X166383600Y-128386187D01*
X166413964Y-128382189D01*
X166430000Y-128379000D01*
X166770000Y-128379000D01*
X166786038Y-128382190D01*
G37*
G36*
X167969517Y-127552882D02*
G01*
X167986062Y-127563938D01*
X167997118Y-127580483D01*
X167998342Y-127586638D01*
X168033188Y-127638786D01*
X168166812Y-127638786D01*
X168201657Y-127586636D01*
X168202882Y-127580483D01*
X168213938Y-127563938D01*
X168230483Y-127552882D01*
X168250000Y-127549000D01*
X168650000Y-127549000D01*
X168669517Y-127552882D01*
X168686062Y-127563938D01*
X168697118Y-127580483D01*
X168701000Y-127600000D01*
X168701000Y-127878154D01*
X168875827Y-127924998D01*
X168701000Y-127971846D01*
X168701000Y-128100000D01*
X168697118Y-128119517D01*
X168686062Y-128136062D01*
X168669517Y-128147118D01*
X168663359Y-128148342D01*
X168611213Y-128183187D01*
X168611213Y-128316813D01*
X168663361Y-128351657D01*
X168669517Y-128352882D01*
X168686062Y-128363938D01*
X168697118Y-128380483D01*
X168698342Y-128386639D01*
X168746301Y-128458416D01*
X168758835Y-128456347D01*
X168701000Y-128471843D01*
X168701000Y-128878152D01*
X168718698Y-128882894D01*
X168698342Y-128913358D01*
X168697118Y-128919517D01*
X168686062Y-128936062D01*
X168669517Y-128947118D01*
X168650000Y-128951000D01*
X168250000Y-128951000D01*
X168230483Y-128947118D01*
X168213938Y-128936062D01*
X168202882Y-128919517D01*
X168201657Y-128913360D01*
X168166813Y-128861213D01*
X168033187Y-128861213D01*
X167998342Y-128913359D01*
X167997118Y-128919517D01*
X167986062Y-128936062D01*
X167969517Y-128947118D01*
X167950000Y-128951000D01*
X167550000Y-128951000D01*
X167530483Y-128947118D01*
X167513938Y-128936062D01*
X167502882Y-128919517D01*
X167499000Y-128900000D01*
X167499000Y-128400000D01*
X167502882Y-128380483D01*
X167513938Y-128363938D01*
X167530483Y-128352882D01*
X167536636Y-128351657D01*
X167588786Y-128316812D01*
X167588786Y-128183188D01*
X167588785Y-128183187D01*
X167911213Y-128183187D01*
X167911213Y-128316813D01*
X167963360Y-128351657D01*
X167969517Y-128352882D01*
X167986062Y-128363938D01*
X167997118Y-128380483D01*
X167998342Y-128386638D01*
X168033188Y-128438786D01*
X168166812Y-128438786D01*
X168201658Y-128386634D01*
X168202882Y-128380483D01*
X168213938Y-128363938D01*
X168230483Y-128352882D01*
X168236634Y-128351658D01*
X168288786Y-128316812D01*
X168288786Y-128183188D01*
X168236638Y-128148342D01*
X168230483Y-128147118D01*
X168213938Y-128136062D01*
X168202882Y-128119517D01*
X168201657Y-128113360D01*
X168166813Y-128061213D01*
X168033187Y-128061213D01*
X167998342Y-128113359D01*
X167997118Y-128119517D01*
X167986062Y-128136062D01*
X167969517Y-128147118D01*
X167963359Y-128148342D01*
X167911213Y-128183187D01*
X167588785Y-128183187D01*
X167536638Y-128148342D01*
X167530483Y-128147118D01*
X167513938Y-128136062D01*
X167502882Y-128119517D01*
X167499000Y-128100000D01*
X167499000Y-127600000D01*
X167502882Y-127580483D01*
X167513938Y-127563938D01*
X167530483Y-127552882D01*
X167550000Y-127549000D01*
X167950000Y-127549000D01*
X167969517Y-127552882D01*
G37*
G36*
X171013344Y-128288643D02*
G01*
X171033134Y-128301866D01*
X171046357Y-128321656D01*
X171051000Y-128345000D01*
X171051000Y-128475000D01*
X171046357Y-128498344D01*
X171034288Y-128516406D01*
X171034288Y-128583593D01*
X171046357Y-128601656D01*
X171051000Y-128625000D01*
X171051000Y-128755000D01*
X171046357Y-128778344D01*
X171033134Y-128798134D01*
X171013344Y-128811357D01*
X170990000Y-128816000D01*
X170810000Y-128816000D01*
X170786656Y-128811357D01*
X170766866Y-128798134D01*
X170753643Y-128778344D01*
X170749000Y-128755000D01*
X170749000Y-128625000D01*
X170753643Y-128601656D01*
X170765711Y-128583594D01*
X170765711Y-128516405D01*
X170753643Y-128498344D01*
X170749000Y-128475000D01*
X170749000Y-128345000D01*
X170753643Y-128321656D01*
X170766866Y-128301866D01*
X170786656Y-128288643D01*
X170810000Y-128284000D01*
X170990000Y-128284000D01*
X171013344Y-128288643D01*
G37*
G36*
X165719517Y-128152882D02*
G01*
X165736062Y-128163938D01*
X165747118Y-128180483D01*
X165751000Y-128200000D01*
X165751000Y-128600000D01*
X165747118Y-128619517D01*
X165736062Y-128636062D01*
X165719517Y-128647118D01*
X165700000Y-128651000D01*
X164700000Y-128651000D01*
X164680483Y-128647118D01*
X164663938Y-128636062D01*
X164652882Y-128619517D01*
X164649000Y-128600000D01*
X164649000Y-128200000D01*
X164652882Y-128180483D01*
X164663938Y-128163938D01*
X164680483Y-128152882D01*
X164700000Y-128149000D01*
X165700000Y-128149000D01*
X165719517Y-128152882D01*
G37*
G36*
X166786038Y-127422190D02*
G01*
X166816399Y-127426187D01*
X166824036Y-127429748D01*
X166843093Y-127433539D01*
X166868332Y-127450404D01*
X166878444Y-127455119D01*
X166884596Y-127461271D01*
X166905057Y-127474943D01*
X166918728Y-127495403D01*
X166924880Y-127501555D01*
X166929594Y-127511664D01*
X166946461Y-127536907D01*
X166950251Y-127555965D01*
X166953812Y-127563600D01*
X166957807Y-127593950D01*
X166961000Y-127610000D01*
X166961000Y-127890000D01*
X166957806Y-127906052D01*
X166953812Y-127936399D01*
X166950252Y-127944032D01*
X166946461Y-127963093D01*
X166929592Y-127988337D01*
X166924880Y-127998444D01*
X166918730Y-128004593D01*
X166905057Y-128025057D01*
X166884593Y-128038730D01*
X166878444Y-128044880D01*
X166868337Y-128049592D01*
X166843093Y-128066461D01*
X166824032Y-128070252D01*
X166816399Y-128073812D01*
X166786051Y-128077807D01*
X166770000Y-128081000D01*
X166430000Y-128081000D01*
X166413948Y-128077807D01*
X166383600Y-128073812D01*
X166375965Y-128070251D01*
X166356907Y-128066461D01*
X166331664Y-128049594D01*
X166321555Y-128044880D01*
X166315403Y-128038728D01*
X166294943Y-128025057D01*
X166281271Y-128004596D01*
X166275119Y-127998444D01*
X166270404Y-127988332D01*
X166253539Y-127963093D01*
X166249748Y-127944036D01*
X166246187Y-127936399D01*
X166242189Y-127906037D01*
X166239000Y-127890000D01*
X166239000Y-127610000D01*
X166242189Y-127593963D01*
X166246187Y-127563600D01*
X166249748Y-127555961D01*
X166253539Y-127536907D01*
X166270402Y-127511669D01*
X166275119Y-127501555D01*
X166281273Y-127495400D01*
X166294943Y-127474943D01*
X166315400Y-127461273D01*
X166321555Y-127455119D01*
X166331669Y-127450402D01*
X166356907Y-127433539D01*
X166375961Y-127429748D01*
X166383600Y-127426187D01*
X166413964Y-127422189D01*
X166430000Y-127419000D01*
X166770000Y-127419000D01*
X166786038Y-127422190D01*
G37*
M02*
