G04 #@! TF.GenerationSoftware,KiCad,Pcbnew,9.0.7*
G04 #@! TF.CreationDate,2026-04-13T17:32:46+01:00*
G04 #@! TF.ProjectId,flatLEDtag,666c6174-4c45-4447-9461-672e6b696361,rev?*
G04 #@! TF.SameCoordinates,Original*
G04 #@! TF.FileFunction,Copper,L2,Bot*
G04 #@! TF.FilePolarity,Positive*
%FSLAX46Y46*%
G04 Gerber Fmt 4.6, Leading zero omitted, Abs format (unit mm)*
G04 Created by KiCad (PCBNEW 9.0.7) date 2026-04-13 17:32:46*
%MOMM*%
%LPD*%
G01*
G04 APERTURE LIST*
G04 Aperture macros list*
%AMRoundRect*
0 Rectangle with rounded corners*
0 $1 Rounding radius*
0 $2 $3 $4 $5 $6 $7 $8 $9 X,Y pos of 4 corners*
0 Add a 4 corners polygon primitive as box body*
4,1,4,$2,$3,$4,$5,$6,$7,$8,$9,$2,$3,0*
0 Add four circle primitives for the rounded corners*
1,1,$1+$1,$2,$3*
1,1,$1+$1,$4,$5*
1,1,$1+$1,$6,$7*
1,1,$1+$1,$8,$9*
0 Add four rect primitives between the rounded corners*
20,1,$1+$1,$2,$3,$4,$5,0*
20,1,$1+$1,$4,$5,$6,$7,0*
20,1,$1+$1,$6,$7,$8,$9,0*
20,1,$1+$1,$8,$9,$2,$3,0*%
G04 Aperture macros list end*
G04 #@! TA.AperFunction,Conductor*
%ADD10C,0.200000*%
G04 #@! TD*
G04 #@! TA.AperFunction,SMDPad,CuDef*
%ADD11R,1.000000X0.700000*%
G04 #@! TD*
G04 #@! TA.AperFunction,SMDPad,CuDef*
%ADD12RoundRect,0.140000X0.170000X-0.140000X0.170000X0.140000X-0.170000X0.140000X-0.170000X-0.140000X0*%
G04 #@! TD*
G04 #@! TA.AperFunction,SMDPad,CuDef*
%ADD13R,1.400000X1.400000*%
G04 #@! TD*
G04 #@! TA.AperFunction,ViaPad*
%ADD14C,0.400000*%
G04 #@! TD*
G04 #@! TA.AperFunction,Conductor*
%ADD15C,0.070000*%
G04 #@! TD*
G04 APERTURE END LIST*
D10*
G04 #@! TO.N,/+VE*
X169900000Y-129350000D02*
X169900000Y-128700000D01*
G04 #@! TD*
D11*
G04 #@! TO.P,,1*
G04 #@! TO.N,/GND*
X165200000Y-128250000D03*
G04 #@! TD*
D12*
G04 #@! TO.P,C3,1*
G04 #@! TO.N,/+VE*
X166400000Y-128700000D03*
G04 #@! TO.P,C3,2*
G04 #@! TO.N,/GND*
X166400000Y-127740000D03*
G04 #@! TD*
D13*
G04 #@! TO.P,C2,1*
G04 #@! TO.N,/+VE*
X170050000Y-128200000D03*
G04 #@! TO.P,C2,2*
G04 #@! TO.N,/GND*
X167850000Y-128200000D03*
G04 #@! TD*
D14*
G04 #@! TO.N,/GND*
X170600000Y-129300000D03*
X169300000Y-127000000D03*
G04 #@! TO.N,/+VE*
X169900000Y-129350000D03*
G04 #@! TD*
D10*
G04 #@! TO.N,/GND*
X166400000Y-127740000D02*
X167390000Y-127740000D01*
D15*
X169300000Y-127000000D02*
X170650000Y-127000000D01*
D10*
X165200000Y-128250000D02*
X165200000Y-128050000D01*
D15*
X170950000Y-129150000D02*
X170800000Y-129300000D01*
D10*
X168250000Y-128200000D02*
X167850000Y-128200000D01*
X175250000Y-124750000D02*
X175300000Y-124700000D01*
D15*
X170800000Y-129300000D02*
X170600000Y-129300000D01*
D10*
X165890000Y-128250000D02*
X165200000Y-128250000D01*
D15*
X170650000Y-127000000D02*
X170950000Y-127300000D01*
D10*
X169300000Y-127150000D02*
X168250000Y-128200000D01*
D15*
X167800007Y-128249993D02*
X167850000Y-128200000D01*
X170950000Y-127300000D02*
X170950000Y-129150000D01*
X167390000Y-127740000D02*
X167850000Y-128200000D01*
D10*
X166400000Y-127740000D02*
X165890000Y-128250000D01*
X169300000Y-127000000D02*
X169300000Y-127150000D01*
G04 #@! TO.N,/+VE*
X169900000Y-129350000D02*
X167050000Y-129350000D01*
X167050000Y-129350000D02*
X166400000Y-128700000D01*
D15*
X169650000Y-128600000D02*
X170050000Y-128200000D01*
G04 #@! TD*
M02*
