G04 #@! TF.GenerationSoftware,KiCad,Pcbnew,9.0.7*
G04 #@! TF.CreationDate,2026-04-13T17:32:46+01:00*
G04 #@! TF.ProjectId,flatLEDtag,666c6174-4c45-4447-9461-672e6b696361,rev?*
G04 #@! TF.SameCoordinates,Original*
G04 #@! TF.FileFunction,Legend,Bot*
G04 #@! TF.FilePolarity,Positive*
%FSLAX46Y46*%
G04 Gerber Fmt 4.6, Leading zero omitted, Abs format (unit mm)*
G04 Created by KiCad (PCBNEW 9.0.7) date 2026-04-13 17:32:46*
%MOMM*%
%LPD*%
G01*
G04 APERTURE LIST*
%ADD10C,0.100000*%
%ADD11C,0.120000*%
%ADD12C,0.200000*%
G04 APERTURE END LIST*
D10*
X171696115Y-129091466D02*
X170934211Y-129091466D01*
X171315163Y-129472419D02*
X171315163Y-128710514D01*
D11*
G04 #@! TO.C,C3*
X166040000Y-128327836D02*
X166040000Y-128112164D01*
X166760000Y-128327836D02*
X166760000Y-128112164D01*
D10*
G04 #@! TO.C,C2*
X167350000Y-126950000D02*
X168050000Y-126950000D01*
X167350000Y-127200000D02*
X167350000Y-126950000D01*
X167350000Y-129200000D02*
X167350000Y-129450000D01*
X167350000Y-129450000D02*
X168050000Y-129450000D01*
X168050000Y-126950000D02*
X168050000Y-127100000D01*
X168050000Y-127100000D02*
X168850000Y-127100000D01*
X168050000Y-129300000D02*
X168850000Y-129300000D01*
X168050000Y-129450000D02*
X168050000Y-129300000D01*
X168500000Y-127250000D02*
X168800000Y-127550000D01*
X168850000Y-126950000D02*
X170550000Y-126950000D01*
X168850000Y-127100000D02*
X168850000Y-126950000D01*
X168850000Y-129300000D02*
X168850000Y-129450000D01*
X168850000Y-129450000D02*
X170550000Y-129450000D01*
X170550000Y-126950000D02*
X170550000Y-127200000D01*
X170550000Y-129450000D02*
X170550000Y-129200000D01*
D12*
X171300000Y-127200000D02*
G75*
G02*
X171100000Y-127200000I-100000J0D01*
G01*
X171100000Y-127200000D02*
G75*
G02*
X171300000Y-127200000I100000J0D01*
G01*
G04 #@! TD*
M02*
