G04 #@! TF.GenerationSoftware,KiCad,Pcbnew,9.0.7*
G04 #@! TF.CreationDate,2026-04-13T17:32:46+01:00*
G04 #@! TF.ProjectId,flatLEDtag,666c6174-4c45-4447-9461-672e6b696361,rev?*
G04 #@! TF.SameCoordinates,Original*
G04 #@! TF.FileFunction,Profile,NP*
%FSLAX46Y46*%
G04 Gerber Fmt 4.6, Leading zero omitted, Abs format (unit mm)*
G04 Created by KiCad (PCBNEW 9.0.7) date 2026-04-13 17:32:46*
%MOMM*%
%LPD*%
G01*
G04 APERTURE LIST*
G04 #@! TA.AperFunction,Profile*
%ADD10C,0.050000*%
G04 #@! TD*
G04 APERTURE END LIST*
D10*
X171100000Y-126750000D02*
X171000000Y-126750000D01*
X115550000Y-128270000D02*
X115550000Y-127630000D01*
X171100000Y-129600000D02*
X171050000Y-129600000D01*
X165700000Y-128700000D02*
X166400000Y-129600000D01*
X165700000Y-128700000D02*
X164600000Y-128700000D01*
X115550000Y-127630000D02*
X164950000Y-127630000D01*
X164600000Y-128270000D02*
X164600000Y-128700000D01*
X112250000Y-123800000D02*
X112250000Y-132700000D01*
X177200000Y-123800000D02*
X177200000Y-132700000D01*
X165250000Y-127630000D02*
X164950000Y-127630000D01*
X171650000Y-123800000D02*
X112250000Y-123800000D01*
X171100000Y-128700000D02*
X171100000Y-129600000D01*
X171100000Y-127400000D02*
X171100000Y-126750000D01*
X170250000Y-129600000D02*
X171050000Y-129600000D01*
X112250000Y-132700000D02*
X165450000Y-132700000D01*
X171650000Y-123800000D02*
X177200000Y-123800000D01*
X168950000Y-126750000D02*
X166400000Y-126750000D01*
X164600000Y-128270000D02*
X115550000Y-128270000D01*
X167500000Y-129600000D02*
X169550000Y-129600000D01*
X165250000Y-127630000D02*
X166400000Y-126750000D01*
X165450000Y-132700000D02*
X177200000Y-132700000D01*
X167500000Y-129600000D02*
X166400000Y-129600000D01*
X169650000Y-126750000D02*
X171000000Y-126750000D01*
M02*
