M48
METRIC,TZ
T1C0.200
%
G90
G05
T1
X57000Y-44150
X57000Y-53050
X57000Y-61950
X57000Y-70850
X57000Y-79750
X57000Y-88650
X57000Y-97550
X57000Y-106450
X59000Y-46550
X59000Y-55450
X59000Y-64350
X59000Y-73250
X59000Y-82150
X59000Y-91050
X59000Y-99950
X59000Y-108850
X60050Y-47850
X60050Y-56750
X60050Y-65650
X60050Y-74550
X60050Y-83450
X60050Y-92350
X60050Y-101250
X60050Y-110150
X68750Y-44150
X68750Y-53050
X68750Y-61950
X68750Y-70850
X68750Y-79750
X68750Y-88650
X68750Y-97550
X68750Y-106450
X70750Y-46550
X70750Y-55450
X70750Y-64350
X70750Y-73250
X70750Y-82150
X70750Y-91050
X70750Y-99950
X70750Y-108850
X71800Y-47850
X71800Y-56750
X71800Y-65650
X71800Y-74550
X71800Y-83450
X71800Y-92350
X71800Y-101250
X71800Y-110150
X80500Y-44150
X80500Y-53050
X80500Y-61950
X80500Y-70850
X80500Y-79750
X80500Y-88650
X80500Y-97550
X80500Y-106450
X82500Y-46550
X82500Y-55450
X82500Y-64350
X82500Y-73250
X82500Y-82150
X82500Y-91050
X82500Y-99950
X82500Y-108850
X83550Y-47850
X83550Y-56750
X83550Y-65650
X83550Y-74550
X83550Y-83450
X83550Y-92350
X83550Y-101250
X83550Y-110150
X92250Y-44150
X92250Y-53050
X92250Y-61950
X92250Y-70850
X92250Y-79750
X92250Y-88650
X92250Y-97550
X92250Y-106450
X94250Y-46550
X94250Y-55450
X94250Y-64350
X94250Y-73250
X94250Y-82150
X94250Y-91050
X94250Y-99950
X94250Y-108850
X95300Y-47850
X95300Y-56750
X95300Y-65650
X95300Y-74550
X95300Y-83450
X95300Y-92350
X95300Y-101250
X95300Y-110150
T0
M30
