G04 #@! TF.GenerationSoftware,KiCad,Pcbnew,9.0.7*
G04 #@! TF.CreationDate,2026-03-03T13:47:40+00:00*
G04 #@! TF.ProjectId,receiver6,72656365-6976-4657-9236-2e6b69636164,rev?*
G04 #@! TF.SameCoordinates,Original*
G04 #@! TF.FileFunction,Copper,L1,Top*
G04 #@! TF.FilePolarity,Positive*
%FSLAX46Y46*%
G04 Gerber Fmt 4.6, Leading zero omitted, Abs format (unit mm)*
G04 Created by KiCad (PCBNEW 9.0.7) date 2026-03-03 13:47:40*
%MOMM*%
%LPD*%
G01*
G04 APERTURE LIST*
G04 Aperture macros list*
%AMRoundRect*
0 Rectangle with rounded corners*
0 $1 Rounding radius*
0 $2 $3 $4 $5 $6 $7 $8 $9 X,Y pos of 4 corners*
0 Add a 4 corners polygon primitive as box body*
4,1,4,$2,$3,$4,$5,$6,$7,$8,$9,$2,$3,0*
0 Add four circle primitives for the rounded corners*
1,1,$1+$1,$2,$3*
1,1,$1+$1,$4,$5*
1,1,$1+$1,$6,$7*
1,1,$1+$1,$8,$9*
0 Add four rect primitives between the rounded corners*
20,1,$1+$1,$2,$3,$4,$5,0*
20,1,$1+$1,$4,$5,$6,$7,0*
20,1,$1+$1,$6,$7,$8,$9,0*
20,1,$1+$1,$8,$9,$2,$3,0*%
G04 Aperture macros list end*
G04 #@! TA.AperFunction,Conductor*
%ADD10C,0.200000*%
G04 #@! TD*
G04 #@! TA.AperFunction,SMDPad,CuDef*
%ADD11RoundRect,0.010000X-0.090000X0.065000X-0.090000X-0.065000X0.090000X-0.065000X0.090000X0.065000X0*%
G04 #@! TD*
G04 #@! TA.AperFunction,ConnectorPad*
%ADD12R,4.000000X0.700000*%
G04 #@! TD*
G04 #@! TA.AperFunction,SMDPad,CuDef*
%ADD13R,0.500000X0.400000*%
G04 #@! TD*
G04 #@! TA.AperFunction,SMDPad,CuDef*
%ADD14RoundRect,0.140000X-0.170000X0.140000X-0.170000X-0.140000X0.170000X-0.140000X0.170000X0.140000X0*%
G04 #@! TD*
G04 #@! TA.AperFunction,SMDPad,CuDef*
%ADD15R,2.100000X0.700000*%
G04 #@! TD*
G04 #@! TA.AperFunction,SMDPad,CuDef*
%ADD16C,0.227000*%
G04 #@! TD*
G04 #@! TA.AperFunction,SMDPad,CuDef*
%ADD17R,0.600000X0.600000*%
G04 #@! TD*
G04 #@! TA.AperFunction,ViaPad*
%ADD18C,0.400000*%
G04 #@! TD*
G04 #@! TA.AperFunction,Conductor*
%ADD19C,0.070000*%
G04 #@! TD*
G04 #@! TA.AperFunction,Conductor*
%ADD20C,0.060000*%
G04 #@! TD*
G04 #@! TA.AperFunction,Conductor*
%ADD21C,0.100000*%
G04 #@! TD*
G04 APERTURE END LIST*
D10*
G04 #@! TO.N,Net-(U1-RFIOp)*
X151602702Y-89500000D02*
G75*
G02*
X151120117Y-89013308I-2J482600D01*
G01*
G04 #@! TD*
D11*
G04 #@! TO.P,LED1,1*
G04 #@! TO.N,/GND*
X154850000Y-90520000D03*
G04 #@! TO.P,LED1,2*
G04 #@! TO.N,Net-(J1-Pin_5)*
X154850000Y-90800000D03*
G04 #@! TD*
D12*
G04 #@! TO.P,J1,1,Pin_1*
G04 #@! TO.N,Net-(J1-Pin_1)*
X158950000Y-87000000D03*
G04 #@! TO.P,J1,2,Pin_2*
G04 #@! TO.N,Net-(J1-Pin_2)*
X158950000Y-88000000D03*
G04 #@! TO.P,J1,3,Pin_3*
G04 #@! TO.N,Net-(J1-Pin_3)*
X158950000Y-89000000D03*
G04 #@! TO.P,J1,4,Pin_4*
G04 #@! TO.N,Net-(J1-Pin_4)*
X158950000Y-90000000D03*
G04 #@! TO.P,J1,5,Pin_5*
G04 #@! TO.N,Net-(J1-Pin_5)*
X158950000Y-91000000D03*
G04 #@! TO.P,J1,6,Pin_6*
G04 #@! TO.N,Net-(J1-Pin_6)*
X158950000Y-92000000D03*
G04 #@! TO.P,J1,7,Pin_7*
G04 #@! TO.N,/+VE*
X158950000Y-93000000D03*
G04 #@! TO.P,J1,8,Pin_8*
G04 #@! TO.N,/GND*
X158950000Y-94000000D03*
G04 #@! TD*
D13*
G04 #@! TO.P,Y1,1,1*
G04 #@! TO.N,Net-(U1-XTAL32Mp)*
X152060000Y-91340000D03*
G04 #@! TO.P,Y1,2,2*
G04 #@! TO.N,/GND*
X151260000Y-91340000D03*
G04 #@! TO.P,Y1,3,3*
G04 #@! TO.N,Net-(U1-XTAL32Mm)*
X151260000Y-92040000D03*
G04 #@! TO.P,Y1,4,4*
G04 #@! TO.N,/GND*
X152060000Y-92040000D03*
G04 #@! TD*
D14*
G04 #@! TO.P,C3,1*
G04 #@! TO.N,/+VE*
X154500000Y-91990000D03*
G04 #@! TO.P,C3,2*
G04 #@! TO.N,/GND*
X154500000Y-92950000D03*
G04 #@! TD*
D15*
G04 #@! TO.P,,1*
G04 #@! TO.N,/GND*
X151950000Y-93100000D03*
G04 #@! TD*
D16*
G04 #@! TO.P,U1,A1,RFIOp*
G04 #@! TO.N,Net-(U1-RFIOp)*
X152800000Y-89500000D03*
G04 #@! TO.P,U1,A3,RFIOm*
G04 #@! TO.N,/GND*
X153400000Y-89500000D03*
G04 #@! TO.P,U1,A5,P0_4/XTAL32km*
G04 #@! TO.N,Net-(J1-Pin_2)*
X154000000Y-89500000D03*
G04 #@! TO.P,U1,B4,P0_3/XTAL32kp*
G04 #@! TO.N,Net-(J1-Pin_1)*
X153700000Y-89750000D03*
G04 #@! TO.P,U1,C1,GND_RF2*
G04 #@! TO.N,/GND*
X152800000Y-90000000D03*
G04 #@! TO.P,U1,C3,GND_RF1*
X153400000Y-90000000D03*
G04 #@! TO.P,U1,C5,P0_2/ADC1/SWCLK*
G04 #@! TO.N,Net-(J1-Pin_3)*
X154000000Y-90000000D03*
G04 #@! TO.P,U1,D2,XTAL32Mp*
G04 #@! TO.N,Net-(U1-XTAL32Mp)*
X153100000Y-90250000D03*
G04 #@! TO.P,U1,D4,P0_5/SWDIO*
G04 #@! TO.N,Net-(J1-Pin_4)*
X153700000Y-90250000D03*
G04 #@! TO.P,U1,E1,XTAL32Mm*
G04 #@! TO.N,Net-(U1-XTAL32Mm)*
X152800000Y-90500000D03*
G04 #@! TO.P,U1,E3,VSS*
G04 #@! TO.N,/GND*
X153400000Y-90500000D03*
G04 #@! TO.P,U1,E5,P0_1/ADC0/SWDIO*
G04 #@! TO.N,Net-(J1-Pin_5)*
X154000000Y-90500000D03*
G04 #@! TO.P,U1,F2,GND_DCDC*
G04 #@! TO.N,/GND*
X153100000Y-90750000D03*
G04 #@! TO.P,U1,F4,P0_0/RST*
G04 #@! TO.N,Net-(J1-Pin_6)*
X153700000Y-90750000D03*
G04 #@! TO.P,U1,G1,VBAT_LOW*
G04 #@! TO.N,/+VE*
X152800000Y-91000000D03*
G04 #@! TO.P,U1,G3,LX*
G04 #@! TO.N,unconnected-(U1-LX-PadG3)*
X153400000Y-91000000D03*
G04 #@! TO.P,U1,G5,VBAT_HIGH*
G04 #@! TO.N,/+VE*
X154000000Y-91000000D03*
G04 #@! TD*
D17*
G04 #@! TO.P,,1*
G04 #@! TO.N,Net-(J1-Pin_1)*
X153800000Y-88900000D03*
G04 #@! TD*
D14*
G04 #@! TO.P,C1,1*
G04 #@! TO.N,/+VE*
X153550000Y-91990000D03*
G04 #@! TO.P,C1,2*
G04 #@! TO.N,/GND*
X153550000Y-92950000D03*
G04 #@! TD*
D18*
G04 #@! TO.N,/+VE*
X155900000Y-93000000D03*
X154350000Y-91200000D03*
G04 #@! TO.N,/GND*
X154850000Y-90150000D03*
X152350000Y-88800000D03*
G04 #@! TD*
D10*
G04 #@! TO.N,/+VE*
X155900000Y-93000000D02*
X158950000Y-93000000D01*
X154000000Y-91350000D02*
X154000000Y-91000000D01*
X154350000Y-91200000D02*
X154150000Y-91400000D01*
D19*
X154500000Y-91990000D02*
X154490000Y-91990000D01*
D10*
X154490000Y-91990000D02*
X153900000Y-91400000D01*
D19*
X153550000Y-91990000D02*
X153550000Y-92000000D01*
D10*
X153350000Y-91400000D02*
X153200000Y-91400000D01*
X153550000Y-91990000D02*
X153550000Y-91400000D01*
X154500000Y-91990000D02*
X154500000Y-91850000D01*
X153900000Y-91400000D02*
X153350000Y-91400000D01*
X153200000Y-91400000D02*
X152800000Y-91000000D01*
X154150000Y-91400000D02*
X153900000Y-91400000D01*
X153550000Y-91400000D02*
X153350000Y-91400000D01*
D19*
G04 #@! TO.N,/GND*
X155400000Y-94000000D02*
X156050000Y-94000000D01*
X152200000Y-93100000D02*
X153550000Y-94450000D01*
D10*
X152350000Y-88800000D02*
X152330000Y-88780000D01*
X153286500Y-89886500D02*
X152913500Y-89886500D01*
X151360000Y-91340000D02*
X152060000Y-92040000D01*
D19*
X150905000Y-92345000D02*
X150905000Y-91695000D01*
D10*
X151640000Y-90970000D02*
X151925000Y-90970000D01*
D19*
X150905000Y-91695000D02*
X151260000Y-91340000D01*
D10*
X153286500Y-89886500D02*
X153286500Y-89613500D01*
X152195000Y-90700000D02*
X152195000Y-90355000D01*
X151640000Y-91160000D02*
X151640000Y-90970000D01*
X153550000Y-94450000D02*
X154950000Y-94450000D01*
X153286500Y-89613500D02*
X153400000Y-89500000D01*
D20*
X154850000Y-90150000D02*
X154850000Y-90500000D01*
D10*
X151800000Y-93100000D02*
X153260000Y-93100000D01*
D19*
X156050000Y-94000000D02*
X158950000Y-94000000D01*
D10*
X152700000Y-88800000D02*
X153400000Y-89500000D01*
D19*
X151510000Y-92950000D02*
X151650000Y-92950000D01*
D21*
X153400000Y-90000000D02*
X153400000Y-90500000D01*
D10*
X151460000Y-91340000D02*
X151640000Y-91160000D01*
X154950000Y-94450000D02*
X155400000Y-94000000D01*
X153400000Y-90000000D02*
X153286500Y-89886500D01*
X153260000Y-93100000D02*
X153550000Y-92810000D01*
X153400000Y-90500000D02*
X153350000Y-90500000D01*
X151260000Y-91340000D02*
X151460000Y-91340000D01*
X152195000Y-90355000D02*
X152550000Y-90000000D01*
X153550000Y-92950000D02*
X154500000Y-92950000D01*
X152913500Y-89886500D02*
X152800000Y-90000000D01*
D19*
X151650000Y-92950000D02*
X151800000Y-93100000D01*
X150905000Y-92345000D02*
X151510000Y-92950000D01*
D10*
X152350000Y-88800000D02*
X152700000Y-88800000D01*
X152550000Y-90000000D02*
X152800000Y-90000000D01*
X151260000Y-91340000D02*
X151360000Y-91340000D01*
X153350000Y-90500000D02*
X153100000Y-90750000D01*
X155400000Y-94000000D02*
X158950000Y-94000000D01*
X151925000Y-90970000D02*
X152195000Y-90700000D01*
G04 #@! TO.N,Net-(U1-RFIOp)*
X151120000Y-88993325D02*
X151120000Y-56880000D01*
X151117393Y-88995932D02*
X151120000Y-88993325D01*
X152800000Y-89500000D02*
X151617376Y-89500000D01*
D21*
G04 #@! TO.N,Net-(U1-XTAL32Mm)*
X152566500Y-90733500D02*
X152566500Y-92183500D01*
X151580000Y-92360000D02*
X151260000Y-92040000D01*
X152800000Y-90500000D02*
X152566500Y-90733500D01*
X152566500Y-92183500D02*
X152390000Y-92360000D01*
X152390000Y-92360000D02*
X151580000Y-92360000D01*
D19*
G04 #@! TO.N,Net-(U1-XTAL32Mp)*
X152620000Y-90250000D02*
X152400000Y-90470000D01*
X152400000Y-90470000D02*
X152400000Y-91000000D01*
X153100000Y-90250000D02*
X152620000Y-90250000D01*
X152400000Y-91000000D02*
X152060000Y-91340000D01*
G04 #@! TO.N,Net-(J1-Pin_2)*
X154000000Y-89500000D02*
X155500000Y-88000000D01*
D10*
X155500000Y-88000000D02*
X158950000Y-88000000D01*
G04 #@! TO.N,Net-(J1-Pin_3)*
X155900000Y-89000000D02*
X158950000Y-89000000D01*
D19*
X155000000Y-89000000D02*
X154000000Y-90000000D01*
X155900000Y-89000000D02*
X155000000Y-89000000D01*
G04 #@! TO.N,Net-(J1-Pin_4)*
X155850000Y-89500000D02*
X156350000Y-90000000D01*
X154927262Y-89500000D02*
X155850000Y-89500000D01*
X153700000Y-90250000D02*
X154177262Y-90250000D01*
X154177262Y-90250000D02*
X154927262Y-89500000D01*
X153731500Y-90218500D02*
X153700000Y-90250000D01*
D10*
X156350000Y-90000000D02*
X158950000Y-90000000D01*
G04 #@! TO.N,Net-(J1-Pin_5)*
X155450000Y-91000000D02*
X158950000Y-91000000D01*
D19*
X154645000Y-90632912D02*
X154812088Y-90800000D01*
X155450000Y-91000000D02*
X155050000Y-91000000D01*
X154812088Y-90800000D02*
X154850000Y-90800000D01*
X154000000Y-90500000D02*
X154512088Y-90500000D01*
X154512088Y-90500000D02*
X154645000Y-90632912D01*
X155050000Y-91000000D02*
X154850000Y-90800000D01*
D10*
G04 #@! TO.N,Net-(J1-Pin_6)*
X155694472Y-92000000D02*
X158950000Y-92000000D01*
D19*
X154444472Y-90750000D02*
X153700000Y-90750000D01*
X155694472Y-92000000D02*
X154444472Y-90750000D01*
G04 #@! TO.N,Net-(J1-Pin_1)*
X153700000Y-89000000D02*
X153800000Y-88900000D01*
X153800000Y-88900000D02*
X153800000Y-88300000D01*
X153800000Y-88300000D02*
X154175000Y-87925000D01*
X153700000Y-89750000D02*
X153700000Y-89000000D01*
D10*
X155100000Y-87000000D02*
X158950000Y-87000000D01*
X154175000Y-87925000D02*
X155100000Y-87000000D01*
G04 #@! TD*
M02*
