G04 #@! TF.GenerationSoftware,KiCad,Pcbnew,8.0.1*
G04 #@! TF.CreationDate,2025-05-19T13:24:42+01:00*
G04 #@! TF.ProjectId,receiver6,72656365-6976-4657-9236-2e6b69636164,rev?*
G04 #@! TF.SameCoordinates,Original*
G04 #@! TF.FileFunction,Soldermask,Bot*
G04 #@! TF.FilePolarity,Negative*
%FSLAX46Y46*%
G04 Gerber Fmt 4.6, Leading zero omitted, Abs format (unit mm)*
G04 Created by KiCad (PCBNEW 8.0.1) date 2025-05-19 13:24:42*
%MOMM*%
%LPD*%
G01*
G04 APERTURE LIST*
G04 APERTURE END LIST*
G36*
X153629034Y-92640764D02*
G01*
X153662125Y-92662875D01*
X153684236Y-92695966D01*
X153692000Y-92735000D01*
X153692000Y-93424778D01*
X153765222Y-93498000D01*
X153800000Y-93498000D01*
X155200000Y-93498000D01*
X155239034Y-93505764D01*
X155272125Y-93527875D01*
X155294236Y-93560966D01*
X155302000Y-93600000D01*
X155302000Y-94800000D01*
X155294236Y-94839034D01*
X155272125Y-94872125D01*
X155239034Y-94894236D01*
X155200000Y-94902000D01*
X153800000Y-94902000D01*
X153760966Y-94894236D01*
X153727875Y-94872125D01*
X153724388Y-94866907D01*
X153721691Y-94865105D01*
X153650179Y-94865106D01*
X153629034Y-94879236D01*
X153590000Y-94887000D01*
X152690000Y-94887000D01*
X152650966Y-94879236D01*
X152617875Y-94857125D01*
X152595764Y-94824034D01*
X152588000Y-94785000D01*
X152588000Y-92735000D01*
X152595764Y-92695966D01*
X152617875Y-92662875D01*
X152650966Y-92640764D01*
X152690000Y-92633000D01*
X153590000Y-92633000D01*
X153629034Y-92640764D01*
G37*
G36*
X152129034Y-92640764D02*
G01*
X152162125Y-92662875D01*
X152184236Y-92695966D01*
X152192000Y-92735000D01*
X152192000Y-94785000D01*
X152184236Y-94824034D01*
X152162125Y-94857125D01*
X152129034Y-94879236D01*
X152090000Y-94887000D01*
X151190000Y-94887000D01*
X151150966Y-94879236D01*
X151117875Y-94857125D01*
X151095764Y-94824034D01*
X151088000Y-94785000D01*
X151088000Y-92735000D01*
X151095764Y-92695966D01*
X151117875Y-92662875D01*
X151150966Y-92640764D01*
X151190000Y-92633000D01*
X152090000Y-92633000D01*
X152129034Y-92640764D01*
G37*
M02*
