G04 #@! TF.GenerationSoftware,KiCad,Pcbnew,8.0.1*
G04 #@! TF.CreationDate,2025-03-13T17:04:02+00:00*
G04 #@! TF.ProjectId,receiver6,72656365-6976-4657-9236-2e6b69636164,rev?*
G04 #@! TF.SameCoordinates,Original*
G04 #@! TF.FileFunction,Legend,Top*
G04 #@! TF.FilePolarity,Positive*
%FSLAX46Y46*%
G04 Gerber Fmt 4.6, Leading zero omitted, Abs format (unit mm)*
G04 Created by KiCad (PCBNEW 8.0.1) date 2025-03-13 17:04:02*
%MOMM*%
%LPD*%
G01*
G04 APERTURE LIST*
%ADD10C,0.150000*%
%ADD11C,0.125000*%
%ADD12C,0.120000*%
G04 APERTURE END LIST*
D10*
X150800000Y-88550000D02*
X154810000Y-88550000D01*
X154810000Y-88550000D02*
X154810000Y-93250000D01*
X150800000Y-93250000D02*
X150800000Y-88550000D01*
X150795000Y-93250000D02*
X154805000Y-93250000D01*
D11*
X149827474Y-89639452D02*
X150065569Y-89639452D01*
X149779855Y-89782309D02*
X149946521Y-89282309D01*
X149946521Y-89282309D02*
X150113188Y-89782309D01*
X150541759Y-89782309D02*
X150256045Y-89782309D01*
X150398902Y-89782309D02*
X150398902Y-89282309D01*
X150398902Y-89282309D02*
X150351283Y-89353738D01*
X150351283Y-89353738D02*
X150303664Y-89401357D01*
X150303664Y-89401357D02*
X150256045Y-89425166D01*
X152201283Y-90984690D02*
X152225093Y-91008500D01*
X152225093Y-91008500D02*
X152201283Y-91032309D01*
X152201283Y-91032309D02*
X152177474Y-91008500D01*
X152177474Y-91008500D02*
X152201283Y-90984690D01*
X152201283Y-90984690D02*
X152201283Y-91032309D01*
X153251283Y-91691833D02*
X153632236Y-91691833D01*
X153441759Y-91882309D02*
X153441759Y-91501357D01*
D12*
X152575600Y-89278900D02*
X152575600Y-91311100D01*
X152575600Y-91311100D02*
X154269400Y-91311100D01*
X154269400Y-89278900D02*
X152575600Y-89278900D01*
X154269400Y-91311100D02*
X154269400Y-89278900D01*
X152429363Y-89075700D02*
G75*
G02*
X152213837Y-89075700I-107763J0D01*
G01*
X152213837Y-89075700D02*
G75*
G02*
X152429363Y-89075700I107763J0D01*
G01*
X153690000Y-92172164D02*
X153690000Y-92387836D01*
X154410000Y-92172164D02*
X154410000Y-92387836D01*
M02*
